<?xml version="1.0" encoding="utf-8" ?>
<svg xmlns="http://www.w3.org/2000/svg" xmlns:xlink="http://www.w3.org/1999/xlink" width="1024" height="1024">
	<path fill="#102231" d="M498.13 102.234C587.065 100.786 672.898 131.728 743.826 184.651Q757.394 194.764 769.793 206.281C775.241 211.346 780.158 217.098 785.802 221.922C789.671 225.229 794.1 228.011 798.32 230.853C807.668 229.339 817.877 228.264 826.398 223.894C832.79 220.616 838.43 216.119 845.397 214.011C857.671 210.296 872.114 213.364 883.125 219.443C902.576 230.18 915.323 250.442 921.165 271.413C927.134 292.838 925.765 316.936 914.569 336.482C906.21 351.077 893.955 359.953 877.865 364.39C889.224 391.837 896.562 421.652 901.035 450.97Q901.777 456.027 902.395 461.1Q903.012 466.173 903.504 471.26Q903.997 476.348 904.363 481.445Q904.73 486.543 904.971 491.648Q905.212 496.753 905.327 501.863Q905.442 506.972 905.431 512.083Q905.42 517.194 905.284 522.303Q905.147 527.412 904.884 532.516Q904.621 537.62 904.233 542.716Q903.845 547.812 903.331 552.897Q902.817 557.982 902.178 563.052Q901.539 568.123 900.776 573.177Q900.012 578.23 899.124 583.263Q898.236 588.296 897.224 593.306Q896.212 598.316 895.078 603.299Q893.943 608.282 892.685 613.236Q891.428 618.19 890.049 623.111Q888.67 628.032 887.17 632.918Q885.67 637.804 884.05 642.651Q882.431 647.498 880.692 652.304Q878.953 657.11 877.096 661.872Q875.24 666.634 873.266 671.348Q871.293 676.062 869.204 680.727Q867.115 685.391 864.912 690.003Q862.708 694.614 860.392 699.17Q858.076 703.726 855.648 708.223Q853.22 712.72 850.682 717.157Q848.144 721.593 845.498 725.965Q842.851 730.337 840.098 734.643Q837.345 738.949 834.486 743.185Q831.627 747.422 828.665 751.587Q825.703 755.751 822.639 759.842Q819.808 763.757 816.88 767.601Q813.953 771.445 810.931 775.215Q807.91 778.985 804.796 782.68Q801.682 786.374 798.477 789.99Q795.272 793.606 791.979 797.141Q788.686 800.677 785.306 804.13Q781.926 807.582 778.462 810.95Q774.998 814.318 771.451 817.6Q767.905 820.881 764.278 824.073Q760.651 827.266 756.946 830.367Q753.241 833.469 749.461 836.478Q745.68 839.486 741.827 842.401Q737.973 845.315 734.048 848.133Q730.123 850.951 726.13 853.671Q722.136 856.391 718.077 859.011Q714.017 861.631 709.894 864.15Q705.771 866.668 701.587 869.084Q697.402 871.5 693.159 873.811Q688.916 876.123 684.618 878.329Q680.319 880.534 675.967 882.633Q671.615 884.731 667.212 886.721Q662.809 888.711 658.358 890.592Q653.908 892.472 649.412 894.242Q644.916 896.012 640.377 897.669Q635.839 899.327 631.261 900.872Q626.683 902.417 622.068 903.847Q617.453 905.278 612.804 906.595Q608.155 907.911 603.475 909.111Q598.795 910.312 594.087 911.396Q589.378 912.481 584.644 913.448Q579.911 914.415 575.154 915.265Q570.398 916.115 565.622 916.847Q542.362 920.304 518.857 921.016Q513.895 921.191 508.93 921.245Q503.966 921.299 499.001 921.232Q494.036 921.165 489.075 920.977Q484.114 920.788 479.158 920.479Q474.203 920.17 469.256 919.741Q464.31 919.311 459.376 918.761Q454.441 918.211 449.522 917.54Q444.602 916.87 439.7 916.08Q434.799 915.29 429.917 914.38Q425.036 913.471 420.179 912.443Q415.322 911.415 410.491 910.269Q405.66 909.122 400.858 907.859Q396.057 906.595 391.287 905.215Q386.518 903.834 381.784 902.338Q377.05 900.842 372.353 899.231Q367.657 897.62 363.001 895.895Q358.346 894.169 353.734 892.331Q349.121 890.493 344.555 888.543Q339.989 886.593 335.472 884.532Q330.955 882.471 326.49 880.301Q322.024 878.131 317.613 875.852Q313.201 873.573 308.847 871.188Q304.492 868.803 300.198 866.312Q295.903 863.821 291.67 861.226Q287.437 858.631 283.268 855.934Q279.1 853.237 274.998 850.438Q270.897 847.64 266.865 844.743Q262.833 841.846 258.872 838.851Q254.912 835.856 251.026 832.766Q247.14 829.676 243.331 826.492Q239.521 823.307 235.79 820.031Q232.06 816.755 228.41 813.389Q224.716 809.944 221.107 806.409Q217.499 802.874 213.978 799.252Q210.457 795.63 207.026 791.923Q203.594 788.216 200.255 784.425Q196.916 780.635 193.67 776.764Q190.425 772.893 187.276 768.944Q184.126 764.995 181.074 760.97Q178.022 756.944 175.07 752.846Q172.118 748.747 169.267 744.577Q166.416 740.407 163.668 736.168Q160.92 731.93 158.277 727.625Q155.633 723.32 153.096 718.952Q150.559 714.584 148.13 710.155Q145.701 705.727 143.381 701.239Q141.061 696.752 138.852 692.21Q136.642 687.667 134.545 683.072Q132.448 678.476 130.464 673.831Q128.48 669.185 126.61 664.493Q124.74 659.8 122.986 655.063Q121.232 650.326 119.594 645.547Q117.957 640.769 116.437 635.952Q114.917 631.134 113.516 626.281Q112.114 621.428 110.832 616.542Q109.55 611.656 108.388 606.74Q107.226 601.824 106.185 596.882Q105.144 591.939 104.224 586.972Q103.304 582.005 102.506 577.017Q101.708 572.029 101.033 567.023Q100.358 562.017 99.8054 556.996Q99.2529 551.974 98.8237 546.941Q98.3944 541.908 98.0887 536.866Q97.7829 531.824 97.6007 526.776C93.827 416.386 131.03 312.972 206.787 232.137C283.972 149.778 385.737 105.811 498.13 102.234Z"/>
	<path fill="#FEFEFE" d="M342.621 149.665C343.798 152.126 343.459 153.719 342.8 156.302L337.434 152.042L342.621 149.665Z"/>
	<path fill="#B4DADF" d="M495.95 536.378L501.984 534.119C503.299 535.931 504.266 537.489 504.974 539.621L497.968 542.602L495.95 536.378Z"/>
	<path fill="#FEFEFE" d="M493.545 833.338C498.039 838.767 497.147 855.246 496.946 862.216L496.325 861.701C492.834 853.195 493.322 842.401 493.545 833.338Z"/>
	<path fill="#356D7F" d="M482.015 346.746C484.025 346.524 485.834 346 487.767 345.419C488.224 348.268 488.646 351.125 489.655 353.84C490.682 356.607 497.161 369.109 497.247 370.748C495.879 369.868 483.465 349.427 482.015 346.746Z"/>
	<path fill="#5492A3" d="M168.163 585.854C170.551 579.86 172.693 573.504 177.558 569.022C175.679 576.975 173.717 584.92 172.222 592.957L170.271 592.005C169.438 590.027 168.845 587.892 168.163 585.854Z"/>
	<path fill="#FEFEFE" d="M545.51 833.38C547.987 834.339 550.069 836.557 551.571 838.697C557.055 846.509 555.558 856.648 554.085 865.396L553.827 866.065L553.253 866.102C552.397 863.073 552.598 859.743 552.396 856.613C551.842 848.066 549.79 840.778 545.51 833.38Z"/>
	<path fill="#FEFEFE" d="M348.913 820.941C349.087 821.08 349.269 821.21 349.436 821.358C359.213 830.061 361.153 847.496 361.336 859.654C360.571 859.043 360.28 858.303 359.978 857.385C358.191 851.952 357.352 846.056 355.768 840.534C353.852 833.855 351.146 827.506 348.913 820.941Z"/>
	<path fill="#FEFEFE" d="M586.906 840.41C587.276 845.345 579.238 860.023 577.138 865.613C575.33 870.423 573.875 875.285 572.623 880.265C572.494 879.963 572.313 879.679 572.237 879.36C571.861 877.781 572.329 875.193 572.494 873.557C573.761 860.986 579.091 850.153 586.906 840.41Z"/>
	<path fill="#FEFEFE" d="M686.198 409.838L686.835 410.546C688.402 416.945 689.771 444.073 686.903 449.184C686.252 448.822 685.316 448.414 684.848 447.817C682.249 444.508 685.241 415.249 686.198 409.838Z"/>
	<path fill="#FEFEFE" d="M685.849 168.199C691.506 167.772 697.259 168.413 702.896 168.887C699.411 169.544 695.998 170.045 692.63 171.203C689.263 172.361 685.463 174.328 682.019 174.979C681.02 175.167 679.918 174.939 678.931 174.757C672.83 173.031 666.496 171.97 660.25 170.913C668.776 169.834 677.271 168.767 685.849 168.199Z"/>
	<path fill="#B4DADF" d="M482.314 328.224L488.983 326.894C487.932 333.084 487.331 339.142 487.767 345.419C485.834 346 484.025 346.524 482.015 346.746C481.414 346.114 480.921 345.565 480.55 344.765C478.034 339.344 480.227 333.376 482.314 328.224Z"/>
	<path fill="#356D7F" d="M605.119 353.329Q616.638 351.199 628.207 349.359L630.664 355.042Q620.061 357.209 609.41 359.121C607.994 357.193 606.632 355.178 605.119 353.329Z"/>
	<path fill="#FEFEFE" d="M676.172 392.7C681.866 392.048 690.138 391.602 695.487 393.655C697.343 394.366 698.645 395.222 699.472 397.075C699.29 397.849 699.418 397.929 698.944 398.386C696.1 401.126 690.821 400.634 687.208 400.507Q681.237 400.066 675.259 399.75C676.99 399.408 678.845 399.214 680.538 398.722C681.701 398.383 682.768 398.035 683.3 396.94C679.746 393.813 672.898 393.912 668.405 393.529C670.962 393.113 673.592 392.955 676.172 392.7Z"/>
	<path fill="#FEFEFE" d="M409.904 819.535L410.018 819.627C410.311 821.885 402.938 830.787 401.401 833.239C393.846 845.287 389.392 861.481 386.17 875.265L385.862 875.114C385.583 874.415 385.555 874.009 385.62 873.252C387.335 853.465 394.122 832.591 409.904 819.535Z"/>
	<path fill="#FEFEFE" d="M302.577 801.449C304.9 801.599 307.347 802.918 309.363 804.03C326.594 813.544 340.271 837.82 345.501 856.127C344.37 855.352 343.617 854.165 342.918 853.009C337.372 843.844 332.899 834.534 326.652 825.743C319.854 816.175 312.203 808.168 302.577 801.449Z"/>
	<path fill="#356D7F" d="M797.106 341.595C802.799 338.59 812.802 338.73 819.179 338.345C821.426 340.911 823.622 343.527 826.13 345.846L803.451 348.693C801.381 346.341 799.363 343.757 797.106 341.595Z"/>
	<path fill="#FEFEFE" d="M593.568 290.399L595.031 290.627C595.606 291.674 594.724 292.316 594.093 293.266C587.75 302.81 585.628 306.797 584.888 318.47Q584.66 322.134 584.787 325.803Q584.915 329.472 585.397 333.112Q585.88 336.751 586.712 340.327Q587.544 343.903 588.719 347.381C589.932 350.865 594.742 357.52 594.426 360.687Q593.601 359.628 592.85 358.516C583.538 344.969 578.805 325.607 581.977 309.374C583.537 301.392 586.65 295.012 593.568 290.399Z"/>
	<path fill="#356D7F" d="M342.621 149.665C348.435 146.569 354.815 144.591 361.046 142.517C360.411 147.989 359.695 154.363 360.762 159.807C354.701 159.891 348.144 159.421 342.8 156.302C343.459 153.719 343.798 152.126 342.621 149.665Z"/>
	<path fill="#FEFEFE" d="M378.259 793.415C381.081 797.487 380.678 841.473 380.375 848.441Q379.853 860.109 378.345 871.69L377.972 871.745C376.505 868.842 376.32 815.414 376.557 809.182C376.758 803.895 377.196 798.603 378.259 793.415Z"/>
	<path fill="#356D7F" d="M144.749 597.854C146.721 598.577 148.915 598.927 150.964 599.396C145.779 616.661 140.929 633.612 137.843 651.387C137.656 652.376 137.434 653.054 136.939 653.931L136.425 653.254C133.73 637.046 141.524 614.177 144.749 597.854Z"/>
	<path fill="#FEFEFE" d="M648.396 270.45L648.8 270.919C647.074 274.198 644.119 276.481 642.572 279.99C633.745 300.001 633.916 328.291 642.625 348.295Q644.94 353.555 647.896 358.483C649.138 360.535 650.945 362.332 651.772 364.585L651.1 364.391Q648.054 360.984 645.664 357.089C634.366 338.544 629.465 312.914 634.787 291.702C636.978 282.971 640.44 275.257 648.396 270.45Z"/>
	<path fill="#89C0CB" d="M133.015 558.857C138.164 566.721 131.114 587.798 136.215 592.55C133.786 601.46 130.935 610.238 128.126 619.034C127.544 599.33 127.884 578.006 133.015 558.857Z"/>
	<path fill="#FEFEFE" d="M458.182 261.682C467.15 260.973 475.501 262.117 482.691 268.009C488.679 272.916 492.8 280.497 493.462 288.241C494.218 297.087 490.868 304.042 485.406 310.65L484.476 311.291C483.175 308.945 488.077 299.883 488.601 296.73C489.346 292.242 488.616 287.543 487.099 283.283C483.761 273.916 475.649 265.811 465.796 263.614C463.421 263.085 459.67 263.459 457.653 262.505L458.182 261.682Z"/>
	<path fill="#FEFEFE" d="M549.919 799.474L550.211 799.832C549.743 803.233 545.718 808.419 544.004 811.538C539.44 819.844 535.564 828.266 531.873 836.995C528.727 844.438 525.864 852.176 523.803 859.991C521.784 867.646 520.36 875.502 517.953 883.045L517.429 882.754C517.303 877.827 518.248 872.561 518.942 867.675C522.666 841.451 533.041 819.688 549.919 799.474Z"/>
	<path fill="#356D7F" d="M508.996 367.239C516.527 364.364 524.975 362.826 532.838 361.116Q555.204 356.276 577.744 352.328C578.527 353.765 579.369 355.196 580.034 356.691L512.409 370.47L508.996 367.239Z"/>
	<path fill="#356D7F" d="M170.271 592.005L172.222 592.957C170.569 599.896 169.456 608.025 166.684 614.556C160.421 620.814 153.091 649.832 151.076 659.926C150.371 663.458 150.591 667.708 149.323 671.021C149.284 670.849 149.237 670.68 149.205 670.507C148.318 665.727 150.353 658.306 151.108 653.508C153.291 639.642 158.805 603.4 166.674 592.351C167.645 592.342 168.533 592.308 169.495 592.149C169.755 592.106 170.012 592.053 170.271 592.005Z"/>
	<path fill="#FEFEFE" d="M339.074 770.301C341.762 771.649 344.27 774.391 346.23 776.648C368.803 802.644 371.791 835.583 369.403 868.43C369.258 868.647 368.974 868.73 368.748 868.86C367.511 861.161 367.79 853.004 366.885 845.218C363.55 816.517 355.055 794.438 339.074 770.301Z"/>
	<path fill="#B4DADF" d="M777.419 274.144C780.351 273.242 783.528 272.864 786.533 272.177Q794.945 270.196 803.282 267.921C802.738 272.914 801.971 278.33 802.533 283.324C802.193 284.558 802.276 285.364 801.042 285.993C796.083 288.521 782.669 290.301 777.013 290.368C776.951 284.964 777.237 279.544 777.419 274.144Z"/>
	<path fill="#FEFEFE" d="M706.372 456.72C710.755 456.456 714.618 456.716 718.894 457.75C719.577 460.277 719.783 463.03 720.147 465.624Q700.855 465.295 681.56 465.164C672.929 465.12 663.987 465.502 655.406 464.55C662.516 463.422 669.758 463.266 676.92 462.558C680.883 462.543 684.825 462 688.757 461.55C675.014 460.192 661.236 461.046 647.571 458.674C655.118 457.257 663.288 457.513 670.955 457.47C682.787 457.404 694.56 457.533 706.372 456.72Z"/>
	<path fill="#FEFEFE" d="M781.76 234.377C782.385 234.512 781.992 234.381 782.829 235.007C781.871 237.454 778.547 239.934 777.057 242.457C771.1 252.545 768.209 265.035 767.433 276.613C765.872 299.882 770.465 330.488 787.125 348.108C791.86 353.116 799.399 356.571 803.157 360.871L802.303 360.959C792.222 356.651 785.09 349.23 779.281 340.065C765.266 317.955 758.547 287.684 764.558 261.968C767.268 250.374 771.373 240.829 781.76 234.377Z"/>
	<path fill="#356D7F" d="M166.616 572.024C162.002 578.563 159.787 587.757 153.985 593.382C152.396 594.923 150.773 595.876 148.525 595.836C147.923 595.413 147.515 595.312 147.274 594.569C144.796 586.922 162.069 548.467 166.373 539.707C166.666 546.3 164.335 567.314 166.616 572.024Z"/>
	<path fill="#FEFEFE" d="M361.046 142.517C374.307 137.203 387.618 132.402 401.331 128.39C395.566 132.68 389.453 137.246 385.314 143.215C383.416 145.951 382.098 149.754 379.745 152.071C375.94 155.82 370.289 158.407 365.829 161.365L360.762 159.807C359.695 154.363 360.411 147.989 361.046 142.517Z"/>
	<path fill="#356D7F" d="M162.804 310.244C165.927 320.533 161.399 339.271 163.273 351.259C162.668 351.967 161.582 352.558 160.762 352.985C154.842 356.068 146.697 354.142 140.649 352.399C145.587 343.48 150.244 334.32 154.878 325.239C157.448 320.201 159.803 315.047 162.804 310.244Z"/>
	<path fill="#356D7F" d="M138.365 540.619C138.884 539.302 138.8 539.11 140.027 538.455C147.841 538.995 150.789 542.521 159.659 540.81C153.133 552.335 143.655 569.391 139.681 581.778C138.572 585.337 137.622 589.105 136.215 592.55C131.114 587.798 138.164 566.721 133.015 558.857C134.293 552.576 136.208 546.64 138.365 540.619Z"/>
	<path fill="#B4DADF" d="M138.365 540.619C140.234 544.743 139.178 574.129 139.681 581.778C138.572 585.337 137.622 589.105 136.215 592.55C131.114 587.798 138.164 566.721 133.015 558.857C134.293 552.576 136.208 546.64 138.365 540.619Z"/>
	<path fill="#FEFEFE" d="M594.652 313.54C595.276 309.588 595.871 305.44 598.201 302.084C603.403 294.591 617.516 294.022 625.769 292.764C624.255 298.164 623.221 303.59 622.323 309.117C622.483 311.766 622.173 314.386 621.938 317.023L619.062 317.55C610.947 319.189 602.36 320.508 594.503 323.102C594.464 319.902 594.437 316.735 594.652 313.54Z"/>
	<path fill="#5492A3" d="M618.472 310.847C618.508 307.151 619.633 303.727 620.754 300.248C620.761 303.301 620.379 306.578 622.323 309.117C622.483 311.766 622.173 314.386 621.938 317.023L619.062 317.55C619.042 315.273 618.782 313.096 618.472 310.847Z"/>
	<path fill="#B4DADF" d="M594.652 313.54L595.011 314.787C598.423 316.825 614.037 311.952 618.472 310.847C618.782 313.096 619.042 315.273 619.062 317.55C610.947 319.189 602.36 320.508 594.503 323.102C594.464 319.902 594.437 316.735 594.652 313.54Z"/>
	<path fill="#FEFEFE" d="M489.09 372.678C495.697 382.467 499.918 390.513 497.605 402.724C495.929 411.571 491.678 419.396 487.12 427.049C485.213 424.512 486.002 419.271 486.056 416.217C486.29 414.892 486.821 413.55 486.028 412.312C483.405 408.218 477.398 407.208 473.689 400.622L475.855 390.877C482.662 385.946 486.491 380.627 489.09 372.678Z"/>
	<path fill="#FEFEFE" d="M787.859 242.857C797.345 239.841 806.802 237.951 816.562 236.045C810.135 246.258 806.341 256.317 803.282 267.921Q794.945 270.196 786.533 272.177C783.528 272.864 780.351 273.242 777.419 274.144Q777.46 272.05 777.659 269.966Q777.858 267.881 778.215 265.817Q778.571 263.753 779.081 261.723Q779.592 259.692 780.255 257.705Q780.918 255.719 781.729 253.788Q782.54 251.857 783.495 249.993Q784.449 248.129 785.542 246.342Q786.635 244.556 787.859 242.857Z"/>
	<path fill="#FEFEFE" d="M516.732 378.655L518.739 378.466C519.545 378.965 519.827 379.297 520.281 380.164C523.823 386.932 519.496 405.979 517.095 413.026C511.723 428.793 502.837 437.496 488.181 444.785C487.34 445.078 486.643 445.226 485.772 445.369C486.111 442.35 495.694 429.39 497.918 425.903C506.83 411.934 508.151 396.578 504.717 380.712C508.672 379.859 512.738 379.321 516.732 378.655Z"/>
	<path fill="#102D3F" d="M619.062 317.55L621.938 317.023C622.651 328.416 624.527 338.499 628.207 349.359Q616.638 351.199 605.119 353.329C604.98 353.234 604.835 353.149 604.704 353.044C596.822 346.753 595.438 332.361 594.503 323.102C602.36 320.508 610.947 319.189 619.062 317.55Z"/>
	<path fill="#356D7F" d="M658.905 355.145C663.229 353.892 668.147 353.59 672.625 352.985Q684.091 351.463 695.535 349.783C718.504 346.393 741.417 342.056 764.464 339.362C766.079 341.959 767.876 344.328 769.761 346.729C745.649 351.159 721.207 354.433 696.955 358.03C687.443 359.441 675.476 360.231 666.444 362.658L658.905 355.145Z"/>
	<path fill="#FEFEFE" d="M369.171 162.472C374.775 159.454 380.69 156.685 386.947 155.358C410.653 150.331 433.367 167.802 452.025 180C452.289 184.715 452.953 189.799 452.266 194.484C447.413 188.912 442.504 183.234 436.659 178.669C421.983 167.206 403.978 168.817 386.569 170.928Q377.903 166.633 369.171 162.472Z"/>
	<path fill="#FEFEFE" d="M554.929 117.134C569.45 119.755 583.81 122.619 598.072 126.429C585.326 131.958 576.466 138.277 571.238 151.588C570.028 154.669 569.115 157.836 568.22 161.02L554.571 161.406C554.247 154.327 554.544 147.186 554.417 140.096C554.305 133.84 553.608 127.372 553.993 121.137C554.084 119.653 554.315 118.486 554.929 117.134Z"/>
	<path fill="#FEFEFE" d="M450.142 117.674L451.295 118.056C453.252 122.088 453.25 150.106 451.743 154.253C451.658 154.486 451.516 154.694 451.403 154.915C446.149 151.44 440.878 148.053 435.101 145.5C418.533 138.178 404.265 140.922 388.002 147.265C405.875 131.026 426.502 121.658 450.142 117.674Z"/>
	<path fill="#FEFEFE" d="M670.623 488.335C670.75 488.501 670.897 488.652 671.004 488.831C672.503 491.358 669.765 507.074 669.167 510.821C665.186 535.79 660.121 560.522 655.599 585.388L629.337 731Q620.226 784.214 610.111 837.247C607.274 852.469 605.391 867.796 601.667 882.844L601.222 882.434C600.029 873.007 606.842 846.469 608.734 836.13L619.134 776.753L640.118 654.907Q648.759 600.113 658.403 545.488Q661.276 530.464 664.339 515.477C666.064 506.597 667.178 496.704 670.623 488.335Z"/>
	<path fill="#FEFEFE" d="M501.984 534.119C533.64 520.864 565.17 502.38 578.696 469.01C588.641 444.473 585.478 416.236 577.942 391.443C575.547 383.563 572.158 375.933 570.093 367.975C585.182 392.624 594.518 431.729 587.754 459.957C580.966 488.284 561.524 509.905 537.049 524.781C526.759 531.035 516.166 535.371 504.974 539.621C504.266 537.489 503.299 535.931 501.984 534.119Z"/>
	<path fill="#102D3F" d="M777.013 290.368C782.669 290.301 796.083 288.521 801.042 285.993C802.276 285.364 802.193 284.558 802.533 283.324C803.302 303.175 809.647 321.09 819.179 338.345C812.802 338.73 802.799 338.59 797.106 341.595C795.9 340.983 794.573 339.914 793.581 339C782.815 329.074 777.619 304.405 777.013 290.368Z"/>
	<path fill="#FEFEFE" d="M500.822 324.801C510.287 323.234 519.849 320.443 529.203 318.249Q550.993 313.207 572.864 308.526Q571.892 314.346 570.986 320.176C571.192 322.713 571.468 325.265 571.532 327.809L523.505 338.638C515.317 340.52 506.913 343.386 498.518 343.919C498.476 340.08 498.368 336.235 498.702 332.406L500.822 324.801Z"/>
	<path fill="#B4DADF" d="M498.702 332.406C498.825 333.41 499.043 334.298 499.337 335.265C506.466 334.817 516.98 331.373 524.404 329.676Q547.581 324.366 570.986 320.176C571.192 322.713 571.468 325.265 571.532 327.809L523.505 338.638C515.317 340.52 506.913 343.386 498.518 343.919C498.476 340.08 498.368 336.235 498.702 332.406Z"/>
	<path fill="#FEFEFE" d="M602.331 127.362C606.858 128.867 611.629 129.887 616.218 131.226Q624.019 133.424 631.621 136.233Q639.223 139.043 646.578 142.446C627.895 140.725 612.614 148.914 598.229 160.039C612.151 160.257 628.469 157.489 641.321 152.096C645.728 150.246 650.929 145.869 655.688 145.466Q662.604 147.947 669.365 150.826C660.985 156.248 652.663 160.617 645.196 167.425C624.621 162.635 595.648 158.667 574.592 160.98C591.305 152.797 596.305 144.658 602.331 127.362Z"/>
	<path fill="#FEFEFE" d="M534.09 713.726C544.167 718.738 553.046 729.566 559.472 738.514C591.806 783.532 571.779 832.041 563.675 880.378L562.382 888.066Q561.57 881.252 561.47 874.39Q561.369 867.529 561.981 860.694C562.752 852.829 564.415 845.012 565.621 837.201Q567.911 822.444 567.816 807.511Q567.808 806.093 567.764 804.675Q567.721 803.258 567.642 801.842Q567.564 800.426 567.45 799.012Q567.336 797.599 567.187 796.188Q567.038 794.778 566.854 793.372Q566.671 791.965 566.452 790.564Q566.233 789.163 565.98 787.768Q565.727 786.372 565.439 784.984Q565.151 783.595 564.828 782.214Q564.506 780.833 564.149 779.46Q563.793 778.088 563.402 776.724Q563.012 775.361 562.588 774.008Q562.163 772.655 561.706 771.312Q561.248 769.97 560.757 768.64Q560.266 767.309 559.742 765.991Q559.219 764.673 558.662 763.369Q558.106 762.064 557.517 760.774Q556.929 759.484 556.308 758.209Q555.688 756.933 555.036 755.674Q554.384 754.414 553.701 753.172Q553.018 751.929 552.304 750.703Q551.59 749.478 550.847 748.27Q550.103 747.063 549.329 745.874Q548.556 744.686 547.753 743.517Q546.95 742.348 546.118 741.199Q545.286 740.05 544.427 738.922Q543.567 737.795 542.679 736.689Q541.791 735.583 540.877 734.499Q539.962 733.415 539.02 732.355Q538.079 731.294 537.111 730.257Q536.144 729.221 535.151 728.208Q534.158 727.195 533.14 726.208C533.541 722.06 533.776 717.882 534.09 713.726Z"/>
	<path fill="#FEFEFE" d="M701.36 487C702.498 486.998 704.124 486.852 705.054 487.583C706.39 488.631 706.677 489.965 707.065 491.526C709.216 500.18 710.88 508.968 712.862 517.664Q722.338 558.811 730.908 600.157L754.946 709.744L768.745 772.263C770.358 779.405 774.114 789.162 774.162 796.234C774.173 797.795 773.442 798.237 772.474 799.294C771.599 799.89 770.72 800.375 769.777 800.856C766.898 795.94 765.943 785.838 764.628 780.007L750.858 716.761Q731.749 631.263 713.74 545.526C710.548 530.689 706.465 516.04 703.435 501.174C702.497 496.569 701.395 491.701 701.36 487Z"/>
	<path fill="#102D3F" d="M571.532 327.809C572.934 336.254 575.37 344.143 577.744 352.328Q555.204 356.276 532.838 361.116C524.975 362.826 516.527 364.364 508.996 367.239C502.537 361.424 499.615 352.269 498.518 343.919C506.913 343.386 515.317 340.52 523.505 338.638L571.532 327.809Z"/>
	<path fill="#FEFEFE" d="M323.299 546.352C323.943 546.966 324.16 547.751 324.31 548.612C325.938 557.98 326.189 567.232 328.408 576.602Q329.135 579.618 330.009 582.595Q330.882 585.572 331.9 588.503Q332.917 591.434 334.076 594.312Q335.235 597.19 336.534 600.008Q337.832 602.825 339.266 605.577Q340.699 608.328 342.266 611.006Q343.832 613.684 345.527 616.283Q347.222 618.881 349.042 621.394Q352.092 625.605 355.382 629.632Q358.672 633.659 362.191 637.488Q365.709 641.317 369.444 644.935Q373.179 648.553 377.118 651.948C391.88 664.796 415.818 677.229 423.25 695.976C424.548 699.251 427.591 707.41 426.154 710.761L425.555 710.719L424.454 708.52C414.209 688.385 392.894 678.508 374.686 666.881C357.033 655.609 339.313 642.059 328.584 623.726C315.138 600.75 316.835 571.226 323.299 546.352Z"/>
	<path fill="#B4DADF" d="M122.573 406.774C126.189 413.323 125.246 462.119 125.802 472.933C126.558 487.64 127.97 502.361 129.117 517.046C129.62 523.488 129.645 536.671 132.751 541.965C130.745 548.101 127.804 554.015 125.645 560.129C121.715 571.254 119.637 582.437 117.716 594.041C109.461 542.915 105.774 495.386 114.165 444.002C116.215 431.442 118.514 418.862 122.573 406.774Z"/>
	<path fill="#FEFEFE" d="M684.541 183.017C693.189 183.412 701.331 187.51 709.545 189.885C716.695 191.952 724.064 193.332 731.26 195.247C752.518 200.906 761.438 211.789 775.816 227.403C770.555 230.807 767.089 234.514 763.52 239.643L760.619 244.655C748.475 247.234 736.29 249.689 724.249 252.718Q723.139 245.742 721.911 238.785C718.734 220.923 713.385 203.62 698.532 192.018C694.347 188.749 689.399 186.453 685.049 183.382L684.541 183.017Z"/>
	<path fill="#FEFEFE" d="M654.284 277.817C667.163 273.641 680.668 271.242 693.881 268.345L755.814 254.713C753.001 263.889 751.95 273.224 751.443 282.774L673.085 297.534C664.313 299.174 655.16 302.211 646.373 303.253C646.757 294.378 649.666 285.36 654.284 277.817Z"/>
	<path fill="#B4DADF" d="M213.052 671.744C216.721 674.595 221.388 683.508 225.583 687.647C243.777 705.597 265.233 714.113 289.162 721.353C278.297 726.061 269.329 732.232 260.181 739.649C250.335 748.743 241.914 758.465 233.711 769.051C230.459 762.432 227.083 755.86 224.401 748.982C214.913 724.649 211.729 697.721 213.052 671.744Z"/>
	<path fill="#FEFEFE" d="M336.844 724.718C353.331 723.285 372.262 729.601 385.665 738.998C421.942 764.43 439.543 822.721 446.745 864.302C459.003 865.218 470.483 868.381 480.873 875.116C493.926 883.577 498.927 894.381 502.135 909.186C498.808 902.115 487.309 884.015 479.903 881.236C478.618 880.754 478.108 880.974 476.958 881.597C475.819 884.581 476.595 889.42 475.984 892.838L475.833 893.658C474.968 889.285 474.453 885.222 471.879 881.416C467.138 874.406 458.384 873.182 450.719 871.66C452.848 874.361 454.817 877.065 456.649 879.976C458.379 883.954 458.794 888.122 459.332 892.382C456.712 886.113 453.753 880.702 447.977 876.773C437.908 869.922 426.425 871.255 415.138 873.365Q421.4 870.532 427.908 868.321Q434.415 866.11 441.107 864.541Q439.179 857.227 436.857 850.028C424.323 810.969 402.834 762.917 364.501 743.446C338.107 730.04 309.521 733.248 282.311 742.011C299.283 731.182 316.856 726.353 336.844 724.718Z"/>
	<path fill="#64A1AC" d="M801.752 670.541Q820.179 670.391 838.597 669.82C846.223 669.629 854.098 669.056 861.698 669.735L860.093 672.549C854.729 684.498 849.138 696.316 842.438 707.585C841.522 709.213 840.667 710.9 839.572 712.414C827.814 731.573 815.672 750.249 801.81 767.971C803.378 750.365 805.726 732.703 806.968 715.093C798.848 733.608 794.173 752.752 791.56 772.753C788.556 756.679 786.462 739.11 778.278 724.728C779.908 736.699 781.878 748.849 782.282 760.932C782.444 765.794 781.839 770.549 781.892 775.391C780.969 768.999 779.009 762.643 777.758 756.284C774.898 741.734 772.414 727.131 769.478 712.588C766.809 699.366 765.173 685.689 761.667 672.671L761.178 670.673C774.157 670.518 789.004 669.589 801.752 670.541Z"/>
	<path fill="#B4DADF" d="M761.178 670.673C774.157 670.518 789.004 669.589 801.752 670.541C801.43 670.604 801.108 670.67 800.785 670.729C797.265 671.37 793.435 671.369 789.855 671.716C790.771 672.257 790.273 672.155 791.311 672.015C796.126 671.365 801.86 671.332 806.601 672.479Q784.135 672.768 761.667 672.671L761.178 670.673Z"/>
	<path fill="#FEFEFE" d="M801.752 670.541Q820.179 670.391 838.597 669.82C846.223 669.629 854.098 669.056 861.698 669.735L860.093 672.549L806.601 672.479C801.86 671.332 796.126 671.365 791.311 672.015C790.273 672.155 790.771 672.257 789.855 671.716C793.435 671.369 797.265 671.37 800.785 670.729C801.108 670.67 801.43 670.604 801.752 670.541Z"/>
	<path fill="#B4DADF" d="M792.294 708.927C805.047 707.646 830.774 703.738 842.438 707.585C841.522 709.213 840.667 710.9 839.572 712.414C823.263 713.361 808.333 711.541 792.294 708.927Z"/>
	<path fill="#B4DADF" d="M790.372 688.215C803.43 687.8 819.32 687.452 831.563 692.216C825.26 694.32 818.552 694.648 811.968 695.086C800.807 695.973 783.465 696.266 772.885 692.568C771.795 692.187 771.491 692.349 770.988 691.307C775.231 688.285 785.115 688.549 790.372 688.215Z"/>
	<path fill="#102D3F" d="M646.373 303.253C655.16 302.211 664.313 299.174 673.085 297.534L751.443 282.774L751.478 296.24C753.009 304.175 753.561 312.377 756.177 320.063C758.439 326.707 762.075 332.8 764.464 339.362C741.417 342.056 718.504 346.393 695.535 349.783Q684.091 351.463 672.625 352.985C668.147 353.59 663.229 353.892 658.905 355.145C658.769 355.022 658.627 354.905 658.497 354.775C649.643 345.907 646.386 329.723 645.921 317.729C645.892 312.865 646.042 308.106 646.373 303.253Z"/>
	<path fill="#B4DADF" d="M646.373 303.253C655.16 302.211 664.313 299.174 673.085 297.534L751.443 282.774L751.478 296.24C726.833 300.72 702.293 306.312 677.764 311.412C667.381 313.57 656.444 316.727 645.921 317.729C645.892 312.865 646.042 308.106 646.373 303.253Z"/>
	<path fill="#FEFEFE" d="M122.573 406.774C123.53 396.881 135.033 363.094 139.517 355.351C140.963 355.513 141.423 356.25 142.49 357.177C149.97 358.708 155.61 359.7 163.249 358.019C163.094 368.593 163.13 440.955 165.489 445.726C167.061 445.23 168.458 444.608 170.12 445.008C170.546 446.086 170.54 446.094 170.068 447.11C168.969 449.48 166.608 451.955 164.977 454.021L165.715 494.255C165.867 503.774 165.596 513.52 166.535 522.997C166.241 525.545 165.902 527.985 166.137 530.554C162.929 534.297 160.212 536.514 155.117 536.838C150.601 537.125 145.671 535.796 141.444 534.289C141.998 532.763 142.808 531.197 142.527 529.549C141.457 529.285 140.989 529.613 140.079 530.145C139.541 530.458 139.031 530.855 138.529 531.22C135.964 534.372 134.356 538.262 132.751 541.965C129.645 536.671 129.62 523.488 129.117 517.046C127.97 502.361 126.558 487.64 125.802 472.933C125.246 462.119 126.189 413.323 122.573 406.774Z"/>
	<path fill="#356D7F" d="M141.352 452.775C149.641 454.315 156.562 455.572 164.977 454.021L165.715 494.255C165.867 503.774 165.596 513.52 166.535 522.997C166.241 525.545 165.902 527.985 166.137 530.554C162.929 534.297 160.212 536.514 155.117 536.838C150.601 537.125 145.671 535.796 141.444 534.289C141.998 532.763 142.808 531.197 142.527 529.549C141.457 529.285 140.989 529.613 140.079 530.145C139.541 530.458 139.031 530.855 138.529 531.22C140.343 521.322 139.3 510.023 139.495 499.932C139.799 484.224 140.644 468.472 141.352 452.775Z"/>
	<path fill="#356D7F" d="M142.49 357.177C149.97 358.708 155.61 359.7 163.249 358.019C163.094 368.593 163.13 440.955 165.489 445.726C167.061 445.23 168.458 444.608 170.12 445.008C170.546 446.086 170.54 446.094 170.068 447.11C168.969 449.48 166.608 451.955 164.977 454.021C156.562 455.572 149.641 454.315 141.352 452.775C140.741 452.303 140.773 452.35 140.113 451.706C138.266 449.906 135.842 447.223 135.888 444.591C137.303 443.838 137.931 444.205 139.479 444.472C141.021 440.705 142.494 366.607 142.49 357.177Z"/>
	<path fill="#102231" d="M141.352 452.775C140.741 452.303 140.773 452.35 140.113 451.706C138.266 449.906 135.842 447.223 135.888 444.591C137.303 443.838 137.931 444.205 139.479 444.472C140.456 446.749 141.885 447.778 144.175 448.691C149.257 450.716 156.764 450.787 161.751 448.599C163.259 447.937 164.484 447.024 165.489 445.726C167.061 445.23 168.458 444.608 170.12 445.008C170.546 446.086 170.54 446.094 170.068 447.11C168.969 449.48 166.608 451.955 164.977 454.021C156.562 455.572 149.641 454.315 141.352 452.775Z"/>
	<path fill="#FEFEFE" d="M684.216 487.181C687.988 499.81 690.1 512.91 692.552 525.836Q696.74 547.528 701.189 569.168Q716.714 646.479 733.39 723.552L744.532 775.727C747.204 787.99 750.453 800.557 751.939 813.012C752.112 814.463 752.145 815.638 751.544 816.986C748.112 814.183 744.095 798.896 742.555 794.259C742.446 783.808 736.53 765.524 734.14 754.488L727.54 723.348C726.198 716.932 725.183 710.443 723.111 704.209L722.339 699.05C721.468 696.423 720.837 693.659 720.12 690.984Q709.916 690.969 699.766 689.922Q709.866 688.798 720.025 688.548Q717.581 677.27 715.275 665.963Q686.3 666.2 657.33 665.57L638.755 775.443Q634.744 799.913 629.756 824.202C628.938 828.362 628.747 832.953 627.758 836.994C624.894 851.473 624.679 867.185 614.23 878.615C621.851 844.953 626.82 810.459 632.73 776.457L667.678 576.772C670.34 562.385 673.214 548.013 675.539 533.569C678.047 517.979 679.681 502.363 684.216 487.181Z"/>
	<path fill="#B4DADF" d="M657.33 665.57C659.886 656.185 662.322 646.172 671.492 640.953C676.139 638.308 681.474 638.043 686.518 639.641C692.152 641.426 697.198 644.976 702.374 647.76C705.386 649.381 708.639 650.694 711.521 652.525C713.677 656.742 714.194 661.407 715.275 665.963Q686.3 666.2 657.33 665.57Z"/>
	<path fill="#FEFEFE" d="M460.167 473.511C460.221 473.391 460.27 473.268 460.33 473.15C461.648 470.563 464.407 469.84 466.961 468.962C469.287 496.952 479.428 522.306 488.064 548.756C508.562 611.531 533.423 693.673 514.474 759.134C507.408 783.541 496.312 798.387 485.168 820.257C480.836 828.758 477.424 837.931 474.138 846.891C473.227 837.951 473.779 829.21 474.607 820.294C475.638 814.758 479.831 811.06 482.2 806.14Q484.675 800.922 486.73 795.524Q488.784 790.126 490.406 784.583Q492.028 779.04 493.206 773.386Q494.384 767.732 495.112 762.002C500.374 717.541 479.364 677.67 462.199 638.229Q451.974 615.301 444.717 591.267C441.916 581.8 438.577 571.865 437.837 561.985C440.614 562.066 443.354 562.054 446.13 561.946C462.6 561.792 479.416 570.221 493.071 578.657C483.903 553.668 473.027 529.065 466.077 503.332C463.407 493.445 462.151 483.515 460.167 473.511Z"/>
	<path fill="#FEFEFE" d="M853.217 221.63C862.115 220.477 871.365 223.009 879.119 227.331C896.286 236.9 907.872 254.739 913.088 273.34C918.511 292.677 917.642 314.087 907.584 331.814C900.68 343.983 890.904 350.982 877.553 354.698L877.074 354.794C866.353 356.852 854.549 353.122 845.681 347.1C829.256 335.947 819.262 316.624 815.654 297.477C812.085 278.538 813.384 256.099 824.671 239.814C831.797 229.532 841.031 223.909 853.217 221.63Z"/>
	<path fill="#102231" d="M853.123 230.609C862.355 229.868 871.037 231.875 878.904 236.795C893.677 246.034 902.782 262.901 906.602 279.504C910.349 295.791 909.195 314.75 899.982 329.109C894.396 337.815 886.222 343.685 876.122 345.943C866.838 346.913 857.9 344.996 849.987 339.982C835.461 330.777 826.439 314.694 822.738 298.233C818.952 281.401 819.772 261.711 829.356 246.849C835.194 237.796 842.717 232.93 853.123 230.609Z"/>
	<path fill="#FEFEFE" d="M861.898 340.768C863.401 339.333 865.721 338.406 867.525 337.367C886.007 326.715 889.111 300.459 885.488 281.264C884.84 277.829 881.436 269.379 882.172 266.601C890.328 281.702 892.861 299.369 887.929 315.936C885.401 324.429 880.21 335.525 871.907 339.711C868.433 341.462 865.631 341.568 861.898 340.768Z"/>
	<defs>
		<linearGradient id="gradient_0" gradientUnits="userSpaceOnUse" x1="848.07208" y1="306.95468" x2="895.64264" y2="260.31519">
			<stop offset="0" stop-color="#2B5D73"/>
			<stop offset="1" stop-color="#417B8F"/>
		</linearGradient>
	</defs>
	<path fill="url(#gradient_0)" d="M852.721 234.134C857.407 233.802 862.261 234.692 866.68 236.221C880.024 240.841 890.06 251.47 896.136 263.965C903.803 279.733 906.629 299.832 900.696 316.617C896.586 328.244 889.215 335.298 878.22 340.475L877.451 340.347L877.427 339.542C878.886 337.51 880.904 336.024 882.742 334.347C892.981 325.005 896.791 309.608 897.31 296.234C897.955 279.594 892.753 261.892 881.159 249.631C871.842 239.777 860.302 235.787 846.966 235.493C848.861 234.878 850.769 234.514 852.721 234.134Z"/>
	<path fill="#64A1AC" d="M831.614 250.497C833.761 246.22 836.265 242.65 841.086 241.17C847.959 239.06 856.618 242.953 862.547 246.307C870.822 250.988 878.233 257.815 882.172 266.601C881.436 269.379 884.84 277.829 885.488 281.264C889.111 300.459 886.007 326.715 867.525 337.367C865.721 338.406 863.401 339.333 861.898 340.768C860.033 340.294 858.13 339.533 856.368 338.754C843.399 333.017 834.273 320.891 829.185 307.99C823.036 292.4 821.082 273.502 827.957 257.841C828.716 255.15 830.159 252.849 831.614 250.497Z"/>
	<path fill="#FEFEFE" d="M866.751 283.548C868.062 283.479 869.478 283.604 870.754 283.924C873.029 284.496 875.234 285.964 876.437 288.002C877.625 290.017 877.812 292.348 877.178 294.576C876.151 298.187 873.716 299.683 870.549 301.332C869.357 301.175 868.132 301.033 866.967 300.734C864.21 300.027 861.371 297.704 860.145 295.14C859.197 293.159 859.121 290.986 859.964 288.953C861.231 285.898 863.935 284.786 866.751 283.548Z"/>
	<path fill="#FEFEFE" d="M831.614 250.497C837.707 248.282 844.305 246.307 850.579 249.162Q851.238 249.457 851.863 249.819Q852.489 250.181 853.073 250.605Q853.658 251.03 854.196 251.512Q854.734 251.994 855.219 252.53Q855.704 253.065 856.131 253.647Q856.559 254.229 856.924 254.853Q857.289 255.476 857.588 256.134Q857.887 256.791 858.117 257.476Q858.372 258.248 858.549 259.042Q858.726 259.835 858.823 260.643Q858.92 261.45 858.936 262.263Q858.951 263.076 858.886 263.886Q858.82 264.697 858.674 265.496Q858.527 266.296 858.302 267.078Q858.076 267.859 857.774 268.613Q857.471 269.368 857.095 270.089C855.28 273.502 852.193 276.112 848.431 277.099C844.397 278.158 839.425 277.385 835.897 275.164C831.497 272.393 829.601 267.429 828.662 262.532C828.365 260.98 828.16 259.408 827.957 257.841C828.716 255.15 830.159 252.849 831.614 250.497Z"/>
	<path fill="#B4DADF" d="M353.857 292.607L353.281 293.156C347.734 298.403 341.264 302.569 335.682 307.77C320.982 321.466 310.174 342.014 309.546 362.323Q309.501 363.762 309.527 365.201Q309.553 366.641 309.651 368.077Q309.748 369.513 309.916 370.943Q310.085 372.373 310.323 373.792Q310.562 375.212 310.871 376.618Q311.18 378.024 311.557 379.413Q311.935 380.802 312.382 382.171Q312.828 383.54 313.341 384.885Q313.854 386.23 314.434 387.548Q315.013 388.866 315.656 390.153Q316.3 391.441 317.007 392.695Q317.713 393.949 318.481 395.167Q319.249 396.385 320.076 397.563Q320.903 398.742 321.787 399.878Q322.672 401.013 323.611 402.104Q324.551 403.195 325.543 404.238Q326.803 405.56 328.127 406.817Q329.452 408.074 330.837 409.265Q332.221 410.455 333.664 411.575Q335.106 412.695 336.602 413.742Q338.098 414.789 339.644 415.761Q341.19 416.733 342.783 417.627Q344.375 418.52 346.01 419.334Q347.644 420.148 349.318 420.879Q350.991 421.611 352.698 422.259Q354.405 422.907 356.143 423.469Q357.88 424.031 359.643 424.507Q361.406 424.982 363.191 425.37Q364.975 425.757 366.777 426.056Q368.578 426.354 370.393 426.563Q372.207 426.772 374.029 426.89Q375.851 427.009 377.677 427.037C386.106 427.229 393.718 425.743 401.737 423.274C393.576 434.167 379.008 440.356 367.711 447.524C396.067 449.885 422.565 441.908 444.377 423.566C446.524 421.761 448.615 419.801 450.511 417.731C458.907 415.472 464.845 412.693 471.667 407.243C476.134 412.419 479.216 414.866 486.056 416.217C486.002 419.271 485.213 424.512 487.12 427.049C478.782 441.123 468.063 451.835 466.961 468.962C464.407 469.84 461.648 470.563 460.33 473.15C460.27 473.268 460.221 473.391 460.167 473.511C458.333 474.05 456.466 475.347 454.655 476.111C449.746 478.18 444.414 479.667 439.17 480.587C412.235 485.307 385.27 479.818 361.508 466.667C353.659 462.323 346.245 457.085 338.665 452.285C313.501 436.352 290.62 426.237 260.168 431.445C261.732 422.196 264.384 412.997 266.742 403.922C274.641 373.516 286.534 342.389 308.541 319.275C314.028 313.512 320.08 308.656 326.355 303.806C334.354 297.529 344.212 295.141 353.857 292.607Z"/>
	<path fill="#64A1AC" d="M657.33 665.57Q686.3 666.2 715.275 665.963Q717.581 677.27 720.025 688.548Q709.866 688.798 699.766 689.922Q709.916 690.969 720.12 690.984C720.837 693.659 721.468 696.423 722.339 699.05L723.111 704.209C725.183 710.443 726.198 716.932 727.54 723.348L734.14 754.488C736.53 765.524 742.446 783.808 742.555 794.259C737.601 785.999 734.514 776.844 731.115 767.871C732.857 779.3 734.484 790.727 736.514 802.111C738.122 811.127 740.188 820.105 741.37 829.185C738.269 823.891 736.184 817.717 733.8 812.064C727.699 797.597 721.414 782.173 711.918 769.551C714.264 780.398 718.369 790.763 721.694 801.331C725.284 812.737 728.145 824.314 730.866 835.953L722.495 841.768C722.488 835.998 722.64 830.179 722.315 824.418C720.892 830.198 718.898 842.205 715.023 846.564L714.258 846.536C711.537 842.347 711.467 824.324 711.192 818.746C707.287 829.578 707.391 840.677 705.986 851.924L701.575 855.362C702.605 849.14 703.644 842.926 703.488 836.595L703.104 837.345C700.962 841.577 695.429 858.673 692.022 860.246C691.887 860.308 691.737 860.328 691.595 860.369C690.224 858.71 690.726 855.091 690.915 852.971C692.542 834.705 699.719 816.489 706.146 799.489C689.148 817.815 682.216 842.474 678.405 866.623L678.345 865.974C677.758 859.026 678.185 851.901 678.077 844.921C677.813 827.736 675.53 808.907 668.464 793.126C669.066 804.064 670.247 815.093 670.494 826.036C670.757 837.634 669.891 849.095 668.697 860.619C668.373 863.748 668.247 870.276 666.138 872.72C665.738 873.184 665.689 873.171 665.234 873.433C662.896 872.21 655.783 851.868 653.841 847.943C651.895 844.007 649.667 840.522 647.102 836.971L655.098 878.535C651.884 879.974 648.664 881.555 645.322 882.663L648.412 863.985C645.23 868.447 642.862 873.05 640.651 878.053C639.897 868.683 639.718 862.154 643.522 853.293C640.234 855.637 637.166 858.015 634.323 860.894C633.347 855.771 631.651 840.325 628.342 837.11L627.758 836.994C628.747 832.953 628.938 828.362 629.756 824.202Q634.744 799.913 638.755 775.443L657.33 665.57Z"/>
	<path fill="#B4DADF" d="M674.426 758.218Q692.688 757.194 710.903 758.861C705.338 759.614 699.608 759.671 694 759.956C682.486 760.189 671.036 760.28 659.526 759.756L659.384 759.439L658.761 759.455L658.528 759.765L657.429 759.553L658.733 759.643L659.01 758.809L659.59 759.074C664.5 758.463 669.484 758.405 674.426 758.218Z"/>
	<path fill="#B4DADF" d="M673.421 778.219C679.12 777.882 709.355 777.098 712.925 779.723L711.47 779.634L711.759 779.808C706.962 779.877 702.211 779.963 697.43 780.411C684.727 780.764 669.651 781.36 657.128 779.618C661.793 778.043 668.453 778.477 673.421 778.219Z"/>
	<path fill="#FEFEFE" d="M672.612 728.76C685.758 728.287 713.679 727.261 725.626 729.409C720.926 730.708 716.204 730.598 711.377 730.653C695.13 731.661 673.814 732.96 657.944 729.255C662.845 728.916 667.702 728.797 672.612 728.76Z"/>
	<path fill="#B4DADF" d="M655.677 701.417C677.936 698.221 699.917 698.814 722.339 699.05L723.111 704.209C700.727 705.491 677.665 706.723 655.677 701.417Z"/>
	<path fill="#B4DADF" d="M349.277 598.878Q354.536 593.577 360.582 589.194C380.238 574.822 404.792 565.025 428.957 562.292C434.585 561.655 440.497 561.091 446.13 561.946C443.354 562.054 440.614 562.066 437.837 561.985C438.577 571.865 441.916 581.8 444.717 591.267Q451.974 615.301 462.199 638.229C479.364 677.67 500.374 717.541 495.112 762.002Q494.384 767.732 493.206 773.386Q492.028 779.04 490.406 784.583Q488.784 790.126 486.73 795.524Q484.675 800.922 482.2 806.14C479.831 811.06 475.638 814.758 474.607 820.294C474.38 811.923 475.117 803.574 474.759 795.194C473.078 805.345 470.097 815.425 467.492 825.378C463.3 808.622 457.425 793.552 446.096 780.244C449.342 787.062 452.444 793.924 454.745 801.131C459.372 815.62 462.509 831.413 455.237 845.477C453.01 837.221 451.109 828.905 448.633 820.712C439.718 791.22 426.516 764.893 407.873 740.384C412.602 739.776 417.614 738.754 421.915 736.62C428.403 733.401 432.792 728.077 434.995 721.22C447.269 683.01 403.512 659.71 380.422 638.435C368.002 626.991 357.033 613.947 349.277 598.878Z"/>
	<path fill="#FEFEFE" d="M253.48 334.928C247.277 326.102 244.705 317.246 246.656 306.473Q246.846 305.441 247.086 304.419Q247.327 303.397 247.618 302.388Q247.908 301.379 248.249 300.386Q248.589 299.393 248.978 298.418Q249.367 297.443 249.803 296.489Q250.24 295.534 250.724 294.602Q251.207 293.67 251.736 292.764Q252.265 291.857 252.838 290.977Q253.411 290.098 254.027 289.248Q254.642 288.397 255.299 287.579Q255.957 286.76 256.653 285.975Q257.35 285.19 258.085 284.44Q258.82 283.69 259.591 282.978Q260.362 282.265 261.167 281.592Q261.972 280.918 262.81 280.286Q263.647 279.653 264.515 279.062C272.759 273.487 283.419 270.572 293.303 272.493C308.922 275.53 317.326 289.646 329.727 298.045C328.736 296.371 327.776 294.67 326.747 293.02C361.196 279.346 389.455 283.42 424.837 286.111C434.258 286.828 444.107 285.838 452.985 289.686C465.834 295.256 476.588 306.48 481.755 319.433C477.666 322.202 475.304 325.593 474.294 330.491C471.831 342.427 478.665 349.933 483.502 359.802C473.558 358.406 461.53 356.825 452.981 363.503C451.517 364.646 450.25 366.089 450.181 368.053C450.031 372.356 456.949 378.265 460.025 380.912C463.719 384.093 469.191 387.737 469.73 392.976C470.137 396.924 467.961 401.229 465.495 404.179C460.188 410.528 445.052 412.073 444.208 414.752C445.591 416.655 448.359 417.139 450.511 417.731C448.615 419.801 446.524 421.761 444.377 423.566C422.565 441.908 396.067 449.885 367.711 447.524C379.008 440.356 393.576 434.167 401.737 423.274C393.718 425.743 386.106 427.229 377.677 427.037Q375.851 427.009 374.029 426.89Q372.207 426.772 370.393 426.563Q368.578 426.354 366.777 426.056Q364.975 425.757 363.191 425.37Q361.406 424.982 359.643 424.507Q357.88 424.031 356.143 423.469Q354.405 422.907 352.698 422.259Q350.991 421.611 349.318 420.879Q347.644 420.148 346.01 419.334Q344.375 418.52 342.783 417.627Q341.19 416.733 339.644 415.761Q338.098 414.789 336.602 413.742Q335.106 412.695 333.664 411.575Q332.221 410.455 330.837 409.265Q329.452 408.074 328.127 406.817Q326.803 405.56 325.543 404.238Q324.551 403.195 323.611 402.104Q322.672 401.013 321.787 399.878Q320.903 398.742 320.076 397.563Q319.249 396.385 318.481 395.167Q317.713 393.949 317.007 392.695Q316.3 391.441 315.656 390.153Q315.013 388.866 314.434 387.548Q313.854 386.23 313.341 384.885Q312.828 383.54 312.382 382.171Q311.935 380.802 311.557 379.413Q311.18 378.024 310.871 376.618Q310.562 375.212 310.323 373.792Q310.085 372.373 309.916 370.943Q309.748 369.513 309.651 368.077Q309.553 366.641 309.527 365.201Q309.501 363.762 309.546 362.323C310.174 342.014 320.982 321.466 335.682 307.77C341.264 302.569 347.734 298.403 353.281 293.156L353.857 292.607C344.212 295.141 334.354 297.529 326.355 303.806C310.872 292.54 299.415 274.769 277.795 278.297Q276.921 278.432 276.055 278.61Q275.189 278.789 274.333 279.011Q273.478 279.232 272.634 279.496Q271.79 279.76 270.961 280.066Q270.131 280.372 269.318 280.719Q268.505 281.066 267.71 281.453Q266.915 281.84 266.14 282.267Q265.366 282.693 264.614 283.158Q263.862 283.622 263.133 284.124Q262.405 284.626 261.703 285.163Q261.001 285.7 260.327 286.272Q259.653 286.844 259.008 287.449Q258.363 288.054 257.749 288.69Q257.135 289.326 256.554 289.992Q255.972 290.658 255.425 291.353Q254.878 292.047 254.366 292.768C249.321 299.83 246.193 309.516 247.615 318.214C248.579 324.112 251.828 329.247 253.48 334.928Z"/>
	<path fill="#102231" d="M396.701 319.571C403.905 319.254 410.243 319.895 416.693 323.305C423.581 326.946 430.93 333.792 433.13 341.436C433.767 343.649 434.074 346.17 433.646 348.451C432.03 357.085 417.7 382.421 412.692 391.135C406.414 402.057 400.775 408.763 388.211 412.152C380.361 412.658 372.295 410.944 365.577 406.779Q364.886 406.346 364.216 405.88Q363.547 405.414 362.901 404.915Q362.255 404.417 361.634 403.888Q361.013 403.359 360.419 402.8Q359.825 402.241 359.259 401.653Q358.693 401.066 358.156 400.452Q357.619 399.837 357.113 399.198Q356.607 398.558 356.132 397.894Q355.658 397.23 355.217 396.544Q354.776 395.858 354.368 395.151Q353.961 394.444 353.589 393.718Q353.217 392.992 352.88 392.249Q352.544 391.506 352.245 390.747Q351.945 389.988 351.683 389.216Q351.421 388.443 351.197 387.659Q350.973 386.874 350.787 386.08C347.669 372.747 352.547 358.486 359.577 347.21C368.459 332.964 380.28 323.421 396.701 319.571Z"/>
	<path fill="#FEFEFE" d="M404.6 340.577C408.172 340.918 411.594 341.958 414.951 343.172Q413.129 343.134 411.312 343.285C407.654 343.578 404.178 345.279 401.867 348.192C400.054 350.477 399.043 353.34 399.54 356.263C400.195 360.115 402.988 362.754 406.04 364.905L408.292 366.222L408.168 367.08L408.619 366.504L408.982 367.086C406.641 367.297 402.986 365.761 400.898 364.73C397.41 363.007 394.649 359.847 393.585 356.089C392.676 352.875 392.991 349.358 394.795 346.508C397.24 342.646 400.421 341.629 404.6 340.577Z"/>
	<path fill="#FEFEFE" d="M637.497 364.175C642.148 366.63 647.236 374.986 653.279 378.152C658.767 381.027 664.461 379.937 670.044 378.124L670.069 385.147C665.962 385.894 662.209 386.709 658.924 389.489C656.221 391.776 654.554 394.869 654.43 398.432C654.338 401.048 655.274 403.758 657.089 405.663C660.524 409.268 664.848 409.546 669.491 409.519Q668.948 429.021 669.016 448.53C661.785 448.085 647.963 445.709 642.218 450.552C638.66 453.551 636.745 458.789 636.585 463.347C636.475 466.498 637.363 469.571 639.608 471.856C643.449 475.766 648.737 475.879 653.845 476.089C651.367 487.088 649.834 498.293 647.944 509.403L640.062 553.512L613.016 704.938C606.308 743.407 600.8 780.907 589.606 818.495C589.601 801.291 588.415 785.747 585.035 768.877C579.076 746.497 568.86 728.333 551.399 712.892C545.424 707.607 538.912 702.966 533.15 697.435C531.679 683.352 530.409 669.223 528.008 655.262C522.051 620.626 511.908 587.075 501.347 553.626C510.682 550.693 520.073 547.456 528.93 543.273C558.05 529.521 584.846 505.209 595.851 474.349C609.465 436.173 595.843 401.015 579.54 366.569L585.574 364.889C590.387 369.378 595.911 373.856 602.782 374.263C608.364 374.595 612.048 371.633 616.036 368.247Q626.799 366.385 637.497 364.175Z"/>
	<path fill="#64A1AC" d="M546.04 541.642C547.346 540.618 548.287 539.435 549.967 539.34C551 540.522 550.964 542.349 551.16 543.852C549.76 543.545 548.367 543.028 546.998 542.594L546.04 541.642Z"/>
	<path fill="#102D3F" d="M621.792 508.145C623.185 508.365 624.17 508.557 625.4 509.319C626.227 510.719 625.981 511.796 625.802 513.328C624.332 513.161 623.356 513.027 622.072 512.202C621.291 510.768 621.569 509.68 621.792 508.145Z"/>
	<path fill="#B4DADF" d="M617.252 414.609C627.347 414.298 637.569 414.142 647.285 417.314C649.73 418.112 652.603 418.967 653.805 421.365L653.133 422.261C650.915 423.111 648.703 422.79 646.379 422.66Q634.434 422.423 622.488 422.53C617.627 422.53 612.35 422.915 607.582 421.987L607.661 420.88C610.074 417.045 612.955 415.704 617.252 414.609Z"/>
	<path fill="#356D7F" d="M546.04 541.642L546.998 542.594C548.367 543.028 549.76 543.545 551.16 543.852L551.239 545.28C550.921 546.801 551.055 547.498 549.698 548.438C549.135 548.828 548.391 549.15 547.79 549.458L547.298 550.406Q548.901 574.602 549.591 598.841C549.696 603.1 550.158 607.426 550.107 611.673C550.059 615.573 548.782 619.385 548.676 623.248C548.552 627.747 550.73 629.544 548.144 634.04C548.32 636.212 549.575 637.884 549.707 640.134C550.074 645.977 549.573 651.264 547.731 656.845C546.361 657.97 544.036 659.384 543.356 660.994C544.401 662.069 546.205 661.68 546.243 663.228C546.365 668.254 545.011 669.204 546.745 674.801L546.419 675.463C543.771 680.975 545.374 692.371 541.97 694.024C539.435 692.086 540.262 688.56 538.438 686.07C537.055 673.545 535.494 661.123 533.219 648.72C530.764 635.34 527.646 622.2 525.86 608.695L525.835 608.723C526.303 607.361 526.801 606.236 526.543 604.77L525.246 604.944C525.047 601.415 528.158 598.819 527.22 594.9L525.828 595.956C524.333 591.397 527.361 572.594 527.725 566.3C528.004 561.474 528.014 556.725 527.681 551.902Q536.93 546.896 546.04 541.642Z"/>
	<path fill="#5492A3" d="M546.998 542.594C548.367 543.028 549.76 543.545 551.16 543.852L551.239 545.28C550.921 546.801 551.055 547.498 549.698 548.438C549.135 548.828 548.391 549.15 547.79 549.458L547.298 550.406C546.73 548.251 547.059 544.891 546.998 542.594Z"/>
	<path fill="#5492A3" d="M549.707 640.134C550.074 645.977 549.573 651.264 547.731 656.845C546.437 655.585 544.838 654.574 543.374 653.519C544.947 651.792 546.386 649.922 547.865 648.113C547.313 646.09 546.655 644.164 546.76 642.045C547.648 640.693 548.225 640.693 549.707 640.134Z"/>
	<path fill="#64A1AC" d="M551.239 545.28C552.963 565.591 553.474 585.818 554.541 606.149C554.912 613.219 555.851 620.255 556.346 627.317C566.303 620.792 576.984 602.872 590.45 605.94C601.177 608.384 612.383 623.656 617.715 632.557Q618.863 634.507 619.898 636.519C618.949 644.746 616.593 652.406 615.28 660.49C614.845 662.404 614.369 664.302 614.155 666.256L612.797 672.54C610.071 681.644 609.46 691.158 608.043 700.517C605.733 715.775 602.897 730.981 600.302 746.193C598.366 757.541 597.052 769.587 593.408 780.532C590.14 761.971 585.204 744.859 574.619 728.998C569.89 721.913 563.794 715.197 557.411 709.572C551.734 704.569 543.419 699.854 539.425 693.313C538.235 691.364 538.327 688.291 538.438 686.07C540.262 688.56 539.435 692.086 541.97 694.024C545.374 692.371 543.771 680.975 546.419 675.463L546.745 674.801C545.011 669.204 546.365 668.254 546.243 663.228C546.205 661.68 544.401 662.069 543.356 660.994C544.036 659.384 546.361 657.97 547.731 656.845C549.573 651.264 550.074 645.977 549.707 640.134C549.575 637.884 548.32 636.212 548.144 634.04C550.73 629.544 548.552 627.747 548.676 623.248C548.782 619.385 550.059 615.573 550.107 611.673C550.158 607.426 549.696 603.1 549.591 598.841Q548.901 574.602 547.298 550.406L547.79 549.458C548.391 549.15 549.135 548.828 549.698 548.438C551.055 547.498 550.921 546.801 551.239 545.28Z"/>
	<path fill="#B4DADF" d="M610.558 666.565L614.155 666.256L612.797 672.54C611.347 671.788 609.75 671.192 608.816 669.795C608.917 668.148 609.517 667.803 610.558 666.565Z"/>
	<path fill="#B4DADF" d="M556.346 627.317C566.303 620.792 576.984 602.872 590.45 605.94C601.177 608.384 612.383 623.656 617.715 632.557Q618.863 634.507 619.898 636.519C618.949 644.746 616.593 652.406 615.28 660.49C614.845 662.404 614.369 664.302 614.155 666.256L610.558 666.565L606.537 663.197C606.531 660.496 606.884 656.142 605.494 653.868L604.845 654.075C603.525 656.267 603.486 659.715 603.024 662.255C601.583 663.55 600.541 662.229 598.885 663.246L598.844 664.083C599.991 664.489 600.894 664.958 601.918 665.613C603.381 669.147 599.41 670.78 598.509 673.744C598.263 674.553 598.37 675.939 598.314 676.819C596.555 677.242 594.2 676.119 592.507 675.575C593.698 674.018 594.908 672.507 595.839 670.775L595.388 670.167C594.161 670.09 593.08 670.006 591.883 669.697C592.011 668.687 594.07 667.01 594.858 666.129C594.52 664.753 592.587 663.738 591.432 662.869C591.134 661.618 593.018 660.635 593.53 659.295C592.321 659.367 591.605 659.603 590.51 659.015C591.478 654.513 588.897 654.634 589.914 651.245L589.525 650.594C588.53 650.55 587.973 650.543 587.138 649.972C586.165 647.161 586.25 643.873 586.049 640.916C581.114 637.826 581.691 632.485 579.35 627.633C577.417 630.072 579.442 635.933 576.506 639.867C575.334 641.437 576.603 645.557 575.849 647.651C575.551 648.476 574.592 648.535 573.832 648.829L573.448 649.742C573.783 650.903 574.089 651.719 573.889 652.938C573.114 653.489 572.392 654.06 571.673 654.682C572.434 655.76 573.068 656.765 573.658 657.953C572.873 659.712 572.118 661.451 571.79 663.362C571.395 665.671 572.416 668.722 570.784 670.544C569.925 671.503 568.537 672.343 567.262 672.474L566.636 671.867C566.722 670.423 567.628 669.603 568.507 668.534C569.094 667.82 568.956 667.794 568.989 666.916C567.395 665.663 564.329 665.913 562.368 665.842C562.594 664.875 565.107 664.141 565.939 663.017C565.115 661.27 563.463 659.757 562.181 658.322L565.679 656.561C563.286 654.978 561.155 653.262 558.989 651.384C559.991 650.437 560.939 649.44 561.895 648.449L561.701 647.923L560.081 648.356C559.361 647.185 558.535 646.13 558.476 644.713C558.963 644.159 559.386 643.617 559.791 643.002C556.012 639.356 556.653 632.335 556.346 627.317Z"/>
	<path fill="#89C0CB" d="M606.537 663.197C609.617 660.19 611.569 656.524 613.724 652.848C614.306 655.388 614.893 657.911 615.28 660.49C614.845 662.404 614.369 664.302 614.155 666.256L610.558 666.565L606.537 663.197Z"/>
	<path fill="#FEFEFE" d="M775.823 356.296C782.066 363.437 790.659 368.345 800.123 369.539C806.548 370.35 816.336 369.363 821.329 364.832C823.032 363.286 823.739 360.889 825.647 359.555C831.863 355.21 848.207 361.711 854.872 363.536C858.371 364.495 861.94 365.093 865.515 365.689C882.403 411.609 891.793 450.275 893.566 499.443C894.062 513.191 894.242 527.032 892.477 540.705C892.661 551.678 890.47 562.789 889.253 573.683C887.125 585.085 882.898 614.718 877.211 623.451C878.839 628.714 864.415 661.961 861.698 669.735C854.098 669.056 846.223 669.629 838.597 669.82Q820.179 670.391 801.752 670.541C789.004 669.589 774.157 670.518 761.178 670.673L761.667 672.671C765.173 685.689 766.809 699.366 769.478 712.588C772.414 727.131 774.898 741.734 777.758 756.284C779.009 762.643 780.969 768.999 781.892 775.391C782.578 779.766 783.331 784.136 783.654 788.556C779.568 778.445 777.87 767.081 775.43 756.465Q768.796 727.911 762.51 699.278Q747.517 627.659 731.437 556.277C725.354 529.025 719.526 501.44 712.085 474.536C717.005 474.523 723.038 474.83 726.732 470.971C728.597 469.022 729.267 466.391 729.21 463.754C729.111 459.195 727.27 453.601 723.863 450.432C719.192 446.089 704.247 448.245 697.938 448.537C696.58 435.314 696.761 422.404 694.392 409.209C697.41 408.906 699.994 408.723 702.565 406.922C705.148 405.113 706.806 402.582 707.324 399.461C707.883 396.092 706.988 392.485 704.833 389.824C701.644 385.884 697.675 385.396 692.981 384.84L693.062 368.963L775.823 356.296Z"/>
	<path fill="#89C0CB" d="M833.559 434.174C842.71 433.341 849.511 435.765 857.496 439.949L844.451 440.004C839.942 440.164 827.285 441.504 823.627 439.476C822.845 439.043 823.114 439.262 822.867 438.271C823.002 438.076 823.124 437.872 823.272 437.688C825.615 434.769 830.111 434.641 833.559 434.174Z"/>
	<path fill="#B4DADF" d="M792.585 474.603C799.1 474.768 809.12 479.586 814.758 482.875C818.256 484.916 821.597 487.517 825.365 489.046C833.932 492.524 838.737 491.157 847.292 497.001Q826.274 496.504 805.25 496.488C786.6 496.623 768.1 496.878 749.465 495.789C755.788 489.757 783.795 476.582 792.585 474.603Z"/>
	<path fill="#B4DADF" d="M753.612 633.761C758.166 627.877 763.423 622.053 769.308 617.471C772.352 615.101 776 613.096 779.987 613.739C789.357 615.25 797.693 629.91 802.668 637.121C799.093 640.189 795.458 642.94 791.479 645.464L786.156 640.322C779.439 645.203 763.3 654.365 759.108 660.44C757.827 651.394 755.791 642.624 753.612 633.761Z"/>
	<path fill="#B4DADF" d="M777.429 384.589C782.036 384.414 785.575 384.543 789.793 386.774C796.683 390.42 800.866 399.049 807.42 403.739C816.268 410.07 826.373 412.059 835.742 417.052L836.436 417.428C810.28 417.065 784.043 417.315 757.875 417.217C742.951 417.451 717.969 418.97 704.006 416.263C707.941 413.708 712.038 411.461 715.806 408.646C722.616 403.559 728.754 396.728 736.939 393.857C745.067 391.007 751.573 393.392 758.835 397.042C764.404 390.581 769.087 386.983 777.429 384.589Z"/>
	<path fill="#B4DADF" d="M832.562 547.628C838.091 539.534 843.671 531.199 851.256 524.86C855.858 521.014 861.524 517.84 867.729 518.582C879.154 519.948 886.165 532.414 892.477 540.705C892.661 551.678 890.47 562.789 889.253 573.683C889.228 572.748 889.144 571.986 888.893 571.083C887.917 570.117 886.983 569.711 885.61 569.677C874.937 569.414 864.064 569.764 853.366 569.76Q823.294 569.791 793.227 569.222C779.8 568.989 766.406 569.17 753.047 567.576C765.52 565.679 778.963 565.125 791.08 561.559C806.215 557.104 815.872 549.001 832.562 547.628Z"/>
	<path fill="#356D7F" d="M851.647 604.75C860.579 610.389 869.27 616.477 877.211 623.451C878.839 628.714 864.415 661.961 861.698 669.735C854.098 669.056 846.223 669.629 838.597 669.82Q820.179 670.391 801.752 670.541C789.004 669.589 774.157 670.518 761.178 670.673C760.738 667.224 759.872 663.829 759.108 660.44C763.3 654.365 779.439 645.203 786.156 640.322L791.479 645.464C795.458 642.94 799.093 640.189 802.668 637.121Q813.627 628.401 824.681 619.802L829.723 623.8C837.225 617.719 844.149 610.88 851.647 604.75Z"/>
	<path fill="#B4DADF" d="M853.96 612.252C855.222 612.924 856.16 613.839 857.106 614.898C863.829 622.425 868.028 632.622 867.467 642.738C866.842 642.412 866.348 642.148 865.811 641.684C856.411 633.566 855.322 623.789 853.96 612.252Z"/>
	<path fill="#FEFEFE" d="M468.419 115.512C482.438 114.176 496.266 113.193 510.35 113.697C519.575 114.027 528.748 115.174 537.949 115.544C543.477 115.481 549.468 116.25 554.929 117.134C554.315 118.486 554.084 119.653 553.993 121.137C553.608 127.372 554.305 133.84 554.417 140.096C554.544 147.186 554.247 154.327 554.571 161.406C548.927 162.311 543.155 162.491 537.554 163.545C530.088 163.842 507.473 166.211 501.651 170.007C513.655 168.538 525.271 165.487 537.476 165.527C543.072 164.648 548.959 164.968 554.613 165.039L564.191 165.449C566.628 167.537 568.748 169.658 570.831 172.1C574.655 200.572 582.015 228.257 589.444 255.966Q592.294 246.327 594.265 236.47C596.765 219.813 595.545 204.514 591.305 188.28C586.239 179.196 578.248 172.845 571.514 165.09Q582.718 165.024 593.91 165.556C605.293 180.578 604.641 198.96 611.971 215.649C618.06 229.514 628.039 241.217 635.932 254.023C634.962 226.212 633.205 196.028 611.405 175.826C607.481 172.189 603.19 168.92 598.936 165.678C603.524 165.78 608.364 165.588 612.855 166.575C613.048 166.617 613.244 166.647 613.436 166.693C619.892 168.233 643.381 193.093 650.627 199.297C659.687 207.053 669.383 214.114 678.208 222.138C682.382 225.933 686.215 229.898 689.846 234.221C683.952 216.185 677.944 196.823 663.715 183.464C659.061 179.094 653.757 175.501 648.555 171.826C659.278 175.598 670.401 178.052 681.125 181.81C684.67 189.516 686.424 197.693 689.556 205.515C696.574 223.039 709.431 239.646 722.678 253.056C703.942 257.228 685.36 262.124 666.611 266.222C661.676 262.628 656.922 260.454 650.633 261.451C643.393 262.599 637.519 267.487 633.464 273.372C631.492 276.235 630.045 279.399 628.649 282.573C623.477 283.721 618.382 284.994 613.424 286.884C607.198 283.136 601.251 280.686 593.84 282.629C585.056 284.931 579.964 291.814 575.746 299.277C565.86 299.633 556.406 302.487 546.837 304.772C528.503 309.149 509.954 314.411 491.413 317.702C498.81 307.56 503.687 297.888 501.69 285.005Q501.533 284.002 501.326 283.007Q501.12 282.013 500.865 281.03Q500.61 280.047 500.307 279.078Q500.004 278.109 499.653 277.155Q499.303 276.202 498.906 275.267Q498.509 274.333 498.066 273.419Q497.624 272.505 497.137 271.613Q496.65 270.722 496.12 269.856Q495.589 268.99 495.017 268.151Q494.445 267.312 493.832 266.502Q493.219 265.693 492.567 264.914Q491.915 264.135 491.226 263.39Q490.536 262.644 489.811 261.933Q489.086 261.223 488.326 260.548Q487.567 259.874 486.775 259.238Q485.983 258.602 485.161 258.006C476.96 252.084 467.091 249.917 457.123 251.554Q456.362 251.674 455.608 251.832Q454.853 251.989 454.108 252.185Q453.362 252.38 452.627 252.611Q451.893 252.843 451.17 253.111Q450.448 253.38 449.74 253.683Q449.031 253.987 448.339 254.326Q447.647 254.664 446.973 255.037Q446.298 255.409 445.643 255.815Q444.988 256.221 444.354 256.659Q443.719 257.096 443.108 257.565Q442.496 258.034 441.909 258.532Q441.321 259.031 440.759 259.558Q440.197 260.085 439.662 260.64Q439.127 261.194 438.62 261.775Q438.113 262.355 437.636 262.96Q437.159 263.565 436.712 264.193C433.732 268.395 431.996 273.051 430.631 277.985C397.079 272.11 354.386 267.308 323.314 284.234C314.478 270.917 304.177 259.653 287.897 256.246Q286.749 255.995 285.589 255.802Q284.429 255.609 283.261 255.474Q282.093 255.34 280.92 255.264Q279.747 255.188 278.571 255.171Q277.396 255.155 276.221 255.197Q275.046 255.24 273.875 255.341Q272.704 255.442 271.539 255.603Q270.374 255.763 269.219 255.981Q268.064 256.2 266.921 256.476Q265.779 256.752 264.651 257.086Q263.524 257.419 262.414 257.808Q261.305 258.198 260.217 258.643Q259.129 259.088 258.064 259.587Q257 260.086 255.962 260.637Q254.924 261.189 253.915 261.793Q252.905 262.396 251.928 263.049C240.978 270.387 233.778 282.216 231.359 295.089C228.62 309.667 232.201 324.349 240.665 336.437C247.616 346.364 257.107 354.344 267.668 360.212Q258.043 387.429 251.275 415.494C247.104 432.099 243.696 449.848 237.481 465.775C233.072 477.075 226.367 487.596 220.264 498.032Q210.343 514.632 201.565 531.863C197.137 540.506 192.87 549.239 189.41 558.322C184.478 571.271 180.925 584.754 177.652 598.202C168.766 634.717 163.804 671.402 160.847 708.837C158.808 705.093 156.552 701.328 155.917 697.041C155.028 691.038 156.329 684.245 156.949 678.245C158.229 665.867 159.391 653.462 161.488 641.189C163.005 632.309 165.442 623.452 166.684 614.556C169.456 608.025 170.569 599.896 172.222 592.957C173.717 584.92 175.679 576.975 177.558 569.022C182.303 556.94 186.974 544.859 192.651 533.176C191.272 534.555 189.98 536.025 188.665 537.466C180.693 548.673 172.931 559.772 166.616 572.024C164.335 567.314 166.666 546.3 166.373 539.707C167.849 534.254 170.28 530.45 173.51 525.84C170.881 527.203 168.543 528.839 166.137 530.554C165.902 527.985 166.241 525.545 166.535 522.997C165.596 513.52 165.867 503.774 165.715 494.255L164.977 454.021C166.608 451.955 168.969 449.48 170.068 447.11C170.54 446.094 170.546 446.086 170.12 445.008C168.458 444.608 167.061 445.23 165.489 445.726C163.13 440.955 163.094 368.593 163.249 358.019C164.766 356.687 166.629 355.024 167.566 353.226C168.073 352.252 167.963 352.111 167.616 351.143C166.085 350.519 164.821 350.935 163.273 351.259C161.399 339.271 165.927 320.533 162.804 310.244C165.031 306.158 167.8 302.196 170.29 298.252C181.527 280.46 194.047 263.954 207.838 248.07C210.636 243.929 214.384 239.048 218.087 235.711C219.099 234.798 219.629 234.235 221.043 234.29L221.68 235.481C228.358 247.35 229.687 252.998 232.867 265.764C233.079 266.615 232.904 267.029 233.796 267.358C234.204 261.746 234.065 256.113 234.025 250.491C234.056 241.732 232.412 232.524 233.209 223.845C233.415 221.609 234.275 220.933 235.884 219.547C239.305 215.442 244.226 211.65 248.087 207.877C249.069 207.417 248.697 207.427 249.595 207.491C255.843 207.933 283.479 222.874 289.012 227.085C294.059 230.926 298.302 235.641 302.515 240.346C292.776 218.05 286.241 207.504 264.595 195.434C285.308 179.63 311.1 163.172 335.273 153.388C338.545 155.588 341.088 157.146 342.744 160.892C347.623 163.703 354.646 164.606 360.199 164.266C362.649 164.792 364.674 165.627 366.917 166.687C368.257 177.571 370.28 187.898 374.206 198.196C381.007 216.033 391.16 227.526 389.562 247.856C398.961 231.733 400.869 211.45 396.13 193.537C394.819 188.581 392.945 183.876 390.905 179.182C412.069 202.171 416.863 235.59 429.543 263.329C429.055 237.157 431.284 205.285 410.808 185.66C405.192 180.278 398.584 176.709 391.571 173.493C406.513 175.718 420.608 179.69 434.143 186.537C440.313 189.659 446.412 193.736 452.825 196.245C452.747 195.705 452.441 195.008 452.266 194.484C452.953 189.799 452.289 184.715 452.025 180C457.806 182.989 464.28 186.16 469.438 190.127Q483.527 197.634 497.924 204.532Q483.551 186.799 468.485 169.65C462.853 164.667 457.057 159.873 451.403 154.915C451.516 154.694 451.658 154.486 451.743 154.253C453.25 150.106 453.252 122.088 451.295 118.056L450.142 117.674C456.042 116.185 462.349 115.644 468.419 115.512Z"/>
	<path fill="#B4DADF" d="M235.884 219.547C239.305 215.442 244.226 211.65 248.087 207.877C248.125 223.372 247.755 238.88 248.077 254.374C242.972 258.409 238.463 262.837 233.796 267.358C234.204 261.746 234.065 256.113 234.025 250.491C234.056 241.732 232.412 232.524 233.209 223.845C233.415 221.609 234.275 220.933 235.884 219.547Z"/>
	<path fill="#FEFEFE" d="M235.884 219.547C237.699 223.387 237.143 245.639 235.709 249.897C235.5 250.518 235.407 250.605 235.091 251.08C234.229 250.939 234.582 251.141 234.025 250.491C234.056 241.732 232.412 232.524 233.209 223.845C233.415 221.609 234.275 220.933 235.884 219.547Z"/>
	<path fill="#B4DADF" d="M450.142 117.674C456.042 116.185 462.349 115.644 468.419 115.512L468.485 169.65C462.853 164.667 457.057 159.873 451.403 154.915C451.516 154.694 451.658 154.486 451.743 154.253C453.25 150.106 453.252 122.088 451.295 118.056L450.142 117.674Z"/>
	<path fill="#356D7F" d="M338.64 225.496C343.538 228.533 349.91 228.431 355.358 227.156C355.979 227.01 356.584 226.845 357.188 226.641C354.012 239.378 354.692 254.135 353.92 267.222Q344.487 269.524 335.084 271.944Q337.529 248.771 338.64 225.496Z"/>
	<path fill="#356D7F" d="M537.949 115.544C543.477 115.481 549.468 116.25 554.929 117.134C554.315 118.486 554.084 119.653 553.993 121.137C553.608 127.372 554.305 133.84 554.417 140.096C554.544 147.186 554.247 154.327 554.571 161.406C548.927 162.311 543.155 162.491 537.554 163.545C538.169 147.542 538.019 131.555 537.949 115.544Z"/>
	<path fill="#B4DADF" d="M591.305 188.28Q595.035 187.16 598.707 185.864C600.811 194.871 602.937 203.854 604.202 213.024C606.753 231.514 606.507 250.287 606.487 268.908L596.423 268.64C596.494 261.208 597.804 242.52 595.213 236.689L594.265 236.47C596.765 219.813 595.545 204.514 591.305 188.28Z"/>
	<path fill="#B4DADF" d="M452.025 180C457.806 182.989 464.28 186.16 469.438 190.127C468.227 192.195 469.013 236.63 468.995 241.916C463.634 242.292 458.25 242.555 453 243.786C453.096 235.046 454.604 201.758 452.825 196.245C452.747 195.705 452.441 195.008 452.266 194.484C452.953 189.799 452.289 184.715 452.025 180Z"/>
	<path fill="#356D7F" d="M342.744 160.892C347.623 163.703 354.646 164.606 360.199 164.266C359.244 175.493 355.268 213.903 358.19 222.529L357.188 226.641C356.584 226.845 355.979 227.01 355.358 227.156C349.91 228.431 343.538 228.533 338.64 225.496C337.738 224.207 336.581 222.926 336.368 221.329C337.512 220.524 337.762 220.782 339.108 220.841C341.066 213.427 340.708 204.597 341.01 196.958C341.487 184.917 341.888 172.914 342.744 160.892Z"/>
	<path fill="#102231" d="M338.64 225.496C337.738 224.207 336.581 222.926 336.368 221.329C337.512 220.524 337.762 220.782 339.108 220.841C341.113 223.188 343.817 223.883 346.836 224.069C350.726 224.308 354.458 223.501 358.19 222.529L357.188 226.641C356.584 226.845 355.979 227.01 355.358 227.156C349.91 228.431 343.538 228.533 338.64 225.496Z"/>
	<path fill="#B4DADF" d="M166.535 522.997C170.885 515.802 176.871 476.964 178.375 466.469C184.472 488.448 183.936 511.662 187.354 534.033C187.565 535.409 187.629 536.448 188.665 537.466C180.693 548.673 172.931 559.772 166.616 572.024C164.335 567.314 166.666 546.3 166.373 539.707C167.849 534.254 170.28 530.45 173.51 525.84C170.881 527.203 168.543 528.839 166.137 530.554C165.902 527.985 166.241 525.545 166.535 522.997Z"/>
	<path fill="#356D7F" d="M537.476 165.527C543.072 164.648 548.959 164.968 554.613 165.039Q554.36 186.661 554.46 208.283C554.441 215.23 553.921 222.302 554.153 229.228C554.29 233.349 555.76 237.36 555.845 241.487C555.999 249.023 555.138 256.769 554.865 264.316Q554.435 279.45 555.223 294.569L536.423 299.239C536.554 285.571 537.22 271.778 536.813 258.127C536.624 251.829 535.106 245.551 535.165 239.282C535.212 234.328 537.17 229.645 537.361 224.711C538.096 205.786 537.909 184.525 537.476 165.527Z"/>
	<path fill="#B4DADF" d="M207.838 248.07C210.636 243.929 214.384 239.048 218.087 235.711C219.099 234.798 219.629 234.235 221.043 234.29L221.68 235.481C220.145 238.434 220.669 265.25 220.572 271.272Q219.577 323.393 216.859 375.453C216.636 379.424 219.109 381.93 219.232 384.646C219.275 385.578 217.673 387.719 217.165 388.494C216.799 397.709 214.318 439.026 217.377 444.658C218.241 445.006 218.988 445.136 219.912 445.247C219.424 446.26 217.485 446.844 216.453 447.354C216.514 459.016 219.2 481.465 215.235 491.522C213.486 495.956 210.059 499.86 207.832 504.147C204.007 511.51 200.594 519.185 196.026 526.126C196.033 521.34 197.28 502.053 195.729 499.34C195.409 498.782 195.107 498.219 194.782 497.662C195.058 494.774 196.814 492.195 197.084 489.287C198.397 475.172 198.533 460.659 199.043 446.48C198.198 445.456 196.701 444.043 196.438 442.774L198.597 442.669C199.307 441.397 202.025 390.915 201.991 386.59L199.672 382.859C200.516 381.396 201.932 381.788 202.416 379.99C203.127 377.348 202.937 373.645 203.138 370.822C203.975 359.028 204.818 347.186 204.488 335.356C203.473 334.053 202.334 333.251 202.451 331.568Q203.689 330.539 204.897 329.475C205.565 319.104 210.26 251.731 207.838 248.07Z"/>
</svg>
