<?xml version="1.0" encoding="utf-8" ?>
<svg xmlns="http://www.w3.org/2000/svg" xmlns:xlink="http://www.w3.org/1999/xlink" width="1024" height="1024">
	<path fill="#1D3658" d="M873.998 363.055C899.295 423.966 908.371 494.759 900.429 560.17C890.096 645.267 857.487 721.72 800.834 786.277Q788.832 800.164 775.583 812.866Q762.334 825.568 747.953 836.974Q744.065 840.005 740.103 842.94Q736.141 845.874 732.108 848.709Q728.074 851.544 723.972 854.278Q719.87 857.013 715.701 859.644Q711.532 862.276 707.299 864.804Q703.066 867.331 698.772 869.754Q694.478 872.176 690.125 874.491Q685.772 876.805 681.363 879.012Q676.954 881.218 672.492 883.314Q668.03 885.411 663.517 887.396Q659.004 889.381 654.444 891.254Q649.883 893.127 645.278 894.886Q640.672 896.645 636.024 898.29Q631.377 899.935 626.69 901.464Q622.003 902.992 617.279 904.405Q612.556 905.817 607.799 907.112Q603.042 908.407 598.254 909.583Q593.466 910.76 588.651 911.818Q583.835 912.875 578.995 913.813Q574.155 914.751 569.293 915.569Q564.432 916.386 559.551 917.083Q554.67 917.781 549.774 918.356Q544.878 918.932 539.969 919.387Q535.059 919.841 530.141 920.174Q525.222 920.506 520.296 920.717Q515.37 920.928 510.441 921.016Q505.512 921.105 500.582 921.071Q495.652 921.038 490.724 920.882Q485.796 920.726 480.874 920.448Q475.952 920.171 471.038 919.771Q466.124 919.371 461.222 918.85Q456.319 918.329 451.431 917.686Q446.393 917.041 441.373 916.272Q436.352 915.503 431.352 914.61Q426.352 913.717 421.376 912.701Q416.4 911.685 411.45 910.546Q406.501 909.407 401.581 908.146Q396.661 906.885 391.773 905.503Q386.886 904.12 382.034 902.618Q377.183 901.115 372.37 899.493Q367.557 897.871 362.785 896.13Q358.014 894.39 353.287 892.532Q348.56 890.674 343.88 888.699Q339.201 886.725 334.571 884.636Q329.942 882.546 325.366 880.343Q320.789 878.14 316.269 875.824Q311.749 873.509 307.287 871.082Q302.825 868.655 298.424 866.119Q294.024 863.583 289.688 860.939Q285.351 858.294 281.082 855.544Q276.812 852.793 272.611 849.938Q268.411 847.083 264.283 844.124Q260.154 841.166 256.1 838.107Q252.046 835.047 248.068 831.888Q244.091 828.73 240.193 825.474Q236.295 822.218 232.479 818.866Q228.663 815.515 224.93 812.07Q221.198 808.625 217.552 805.089Q213.906 801.553 210.349 797.928Q206.791 794.303 203.324 790.591Q199.858 786.879 196.484 783.083Q193.11 779.286 189.831 775.408Q186.552 771.529 183.37 767.571Q180.187 763.612 177.104 759.576C132.064 701.722 103.836 628.088 96.8965 555.222Q95.8503 543 95.4536 530.74Q95.057 518.48 95.311 506.216Q95.565 493.952 96.469 481.719Q97.373 469.486 98.9244 457.318Q99.4976 452.369 100.195 447.436Q100.892 442.503 101.712 437.59Q102.533 432.676 103.476 427.784Q104.419 422.892 105.485 418.026Q106.551 413.159 107.738 408.321Q108.925 403.482 110.233 398.675Q111.541 393.868 112.969 389.095Q114.398 384.323 115.945 379.587Q117.492 374.852 119.158 370.156Q120.823 365.461 122.606 360.809Q124.388 356.157 126.287 351.551Q128.186 346.945 130.199 342.388Q132.213 337.832 134.34 333.327Q136.467 328.822 138.706 324.371Q140.945 319.921 143.295 315.528Q145.645 311.135 148.105 306.803Q150.564 302.47 153.131 298.201Q155.698 293.931 158.372 289.728Q161.045 285.524 163.823 281.388Q166.601 277.253 169.481 273.188Q172.362 269.123 175.344 265.132Q178.325 261.141 181.406 257.226Q184.487 253.311 187.664 249.474Q190.842 245.637 194.115 241.881Q197.388 238.125 200.754 234.453Q204.12 230.78 207.577 227.193Q211.034 223.605 214.58 220.106Q218.126 216.606 221.758 213.197Q225.39 209.787 229.107 206.47Q232.824 203.153 236.623 199.929Q240.421 196.706 244.299 193.579Q248.178 190.452 252.133 187.423Q256.097 184.343 260.137 181.363Q264.176 178.382 268.288 175.502Q272.4 172.623 276.582 169.846Q280.764 167.069 285.014 164.397Q289.263 161.725 293.578 159.159Q297.893 156.593 302.269 154.135Q306.646 151.677 311.083 149.328Q315.519 146.979 320.013 144.74Q324.506 142.502 329.054 140.376Q333.601 138.25 338.2 136.237Q342.799 134.224 347.446 132.326Q352.093 130.428 356.786 128.646Q361.479 126.863 366.215 125.198Q370.95 123.533 375.726 121.985Q380.501 120.438 385.314 119.009Q390.126 117.58 394.973 116.272Q399.819 114.963 404.696 113.774Q409.574 112.586 414.479 111.519Q419.384 110.452 424.314 109.507Q429.244 108.562 434.197 107.739Q439.149 106.917 444.12 106.217Q449.091 105.518 454.078 104.942Q459.064 104.366 464.064 103.913Q469.064 103.461 474.073 103.133Q479.082 102.805 484.098 102.601Q489.114 102.397 494.133 102.318Q499.152 102.238 504.172 102.283Q509.192 102.328 514.209 102.498Q519.226 102.667 524.238 102.961Q529.249 103.255 534.251 103.673Q539.254 104.091 544.245 104.633Q549.235 105.175 554.211 105.84C619.835 114.195 680.856 139.295 734.796 177.259C751.157 188.774 768.565 202.297 780.882 218.217C783.727 219.75 785.719 221.572 787.742 224.068C813.492 220.024 844.81 204.529 870.369 213.798C886.912 219.797 899.188 235.415 906.447 250.872C917.169 273.702 919.601 301.37 910.853 325.247C903.957 344.071 891.804 354.823 873.998 363.055Z"/>
	<path fill="#C6C5C6" d="M479.034 332.679C477.32 335.637 475.595 338.485 474.492 341.737C473.395 342.045 472.261 342.455 471.131 342.595C472.391 337.63 475.091 335.585 479.034 332.679Z"/>
	<path fill="#558981" d="M490.598 894.025C492.72 897.375 494.775 900.677 497.442 903.629C495.437 903.643 493.774 903.686 492.339 902.011C490.596 899.976 490.615 896.564 490.598 894.025Z"/>
	<path fill="#28698F" d="M683.289 367.678C684.028 367.622 684.713 367.566 685.447 367.715C686.514 367.933 686.619 367.829 687.262 368.761L686.65 369.783C685.088 370.911 683.86 370.945 681.972 371.071C680.108 371.018 678.374 371.121 676.792 370.023L677.139 369.216C679.214 368.021 680.967 367.896 683.289 367.678Z"/>
	<path fill="#F5FAF2" d="M531.167 327.148C532.504 324.168 533.814 320.53 537.003 319.029C537.469 318.809 537.583 318.824 538.029 318.77C538.752 319.877 538.584 320.675 538.265 321.918C537.543 324.731 535.986 327.103 535.395 330C533.817 329.506 532.453 328.175 531.167 327.148Z"/>
	<path fill="#92AAB9" d="M687.839 427.528C689.102 427.887 689.35 427.925 689.945 429.222C691.044 431.616 690.942 436.759 689.7 439.045C689.236 439.899 688.815 439.929 687.984 440.358C687.145 439.437 686.265 438.523 685.884 437.308C684.787 433.807 686.253 430.596 687.839 427.528Z"/>
	<path fill="#C6C5C6" d="M531.167 327.148C532.453 328.175 533.817 329.506 535.395 330C535.606 333.21 535.735 336.441 536.26 339.618C535.915 340.732 536.246 340.298 535.272 340.926C533.452 340.261 532.064 338.149 530.823 336.707C530.597 333.467 530.868 330.371 531.167 327.148Z"/>
	<path fill="#5D8AB0" d="M684.274 459.578C686.02 459.208 687.804 458.986 689.57 458.723C693.298 460.542 696.487 461.543 700.634 461.613C696.474 462.339 692.007 462.47 687.959 463.541C684.72 463.56 681.687 463.613 678.52 462.823C680.627 461.882 682.468 461.056 684.274 459.578Z"/>
	<path fill="#040C0C" d="M704.487 519.767C704.496 518.666 704.465 517.239 704.911 516.211C705.649 514.511 707.675 512.865 709.412 512.262C711.282 511.612 712.464 511.823 714.207 512.531C715.382 513.858 715.217 515.034 715.429 516.766L709.776 518.631C708.014 519 706.232 519.326 704.487 519.767Z"/>
	<path fill="#558981" d="M760.253 792.66C761.736 796.313 762.966 799.342 766.244 801.773C764.091 803.759 762.135 805.838 760.183 808.02C759.273 804.281 758.484 800.506 757.644 796.751C758.346 795.021 758.875 793.939 760.253 792.66Z"/>
	<defs>
		<linearGradient id="gradient_0" gradientUnits="userSpaceOnUse" x1="474.63974" y1="356.97137" x2="471.8259" y2="343.2406">
			<stop offset="0" stop-color="#A1A4A4"/>
			<stop offset="1" stop-color="#C0B8C1"/>
		</linearGradient>
	</defs>
	<path fill="url(#gradient_0)" d="M474.492 341.737C474.72 347.54 476.245 353.599 475.601 359.381L474.868 359.494C474.762 359.368 474.654 359.243 474.549 359.116C470.699 354.428 470.575 348.341 471.131 342.595C472.261 342.455 473.395 342.045 474.492 341.737Z"/>
	<path fill="#3F6866" d="M752.922 769.821L754.837 771.638C756.337 778.599 757.506 786.068 760.253 792.66C758.875 793.939 758.346 795.021 757.644 796.751C755.443 787.789 753.425 779.079 752.922 769.821Z"/>
	<path fill="#92AAB9" d="M702.458 465.278C695.531 467.043 675.256 468.338 668.84 465.189C674.256 463.461 680.678 463.861 686.22 464.719C690.043 465.173 699.802 463.233 702.458 465.278Z"/>
	<path fill="#28698F" d="M521.814 357.234C523.292 356.873 524.122 357.349 525.376 357.993L525.28 358.759C519.02 362.023 508.397 361.322 501.378 361.634C500.101 361.777 498.869 361.812 497.587 361.827L497.092 361.334C500.532 358.231 516.648 357.64 521.814 357.234Z"/>
	<path fill="#F5FAF2" d="M581.249 315.146C582.983 308.119 584.728 301.553 591.216 297.449L592.218 297.431C592.625 298.657 592.411 299.421 591.88 300.575C589.009 306.818 587.397 306.848 585.643 314.771L581.249 315.146Z"/>
	<path fill="#98C8C8" d="M169.144 601.145L173.48 601.629C172.076 605.831 170.838 615.362 166.616 617.574C165.994 617.9 165.358 618.16 164.694 618.381C163.445 613.025 167.165 606.073 169.144 601.145Z"/>
	<path fill="#F5FAF2" d="M650.922 501.689C656.86 501.364 664.477 501.808 669.777 504.736C672.316 506.138 673.12 507.292 673.926 510.05C669.497 508.796 654.511 505.384 651.746 502.995C651.356 502.659 651.197 502.124 650.922 501.689Z"/>
	<path fill="#748DA3" d="M679.24 429.465C682.165 428.96 685.022 428.491 687.839 427.528C686.253 430.596 684.787 433.807 685.884 437.308C686.265 438.523 687.145 439.437 687.984 440.358C685.163 440.503 682.326 440.87 679.513 441.153Q679.438 435.308 679.24 429.465Z"/>
	<path fill="#28698F" d="M700.634 461.613C703.93 461.015 706.628 458.857 710.068 459.873C712.047 460.068 714.069 460.185 716.034 460.477C712.29 463.237 707.062 464.898 702.458 465.278C699.802 463.233 690.043 465.173 686.22 464.719L687.959 463.541C692.007 462.47 696.474 462.339 700.634 461.613Z"/>
	<path fill="#464A4B" d="M637.569 648.231L639.276 637.792C640.173 632.468 641.447 619.502 645.849 616.368C644.338 626.79 642.863 637.259 640.761 647.582C639.709 647.786 638.595 647.931 637.569 648.231Z"/>
	<path fill="#92AAB9" d="M569.29 349.674C570.521 349.421 571.253 349.355 572.479 349.649C573.906 350.702 574.443 352.356 575.163 353.92Q566.121 354.336 557.119 355.276C556.882 355.325 556.647 355.388 556.407 355.421C554.016 355.75 552.44 354.029 550.738 352.629C556.877 351.439 563.107 350.614 569.29 349.674Z"/>
	<path fill="#F5FAF2" d="M714.998 500.667C716.021 500.58 716.548 500.757 717.518 501.041C718.375 501.951 718.336 501.884 718.334 503.137C717.723 504.04 717.12 504.76 716.075 505.179C711.273 507.108 703.008 507.774 697.61 509.048C696.397 509.389 696.074 509.538 694.871 509.237L695.046 508.332C700.049 503.403 708.344 501.818 714.998 500.667Z"/>
	<path fill="#748DA3" d="M530.823 336.707C532.064 338.149 533.452 340.261 535.272 340.926C536.246 340.298 535.915 340.732 536.26 339.618C536.343 339.996 536.431 340.373 536.505 340.753C538.278 349.885 542.088 355.968 547.786 363.135C546.126 362.464 544.435 361.792 542.95 360.775C535.319 355.551 532.359 345.31 530.823 336.707Z"/>
	<defs>
		<linearGradient id="gradient_1" gradientUnits="userSpaceOnUse" x1="658.90094" y1="329.77893" x2="650.83215" y2="315.14386">
			<stop offset="0" stop-color="#90A3C3"/>
			<stop offset="1" stop-color="#B8C4D0"/>
		</linearGradient>
	</defs>
	<path fill="url(#gradient_1)" d="M651.429 314.151C652.429 313.927 653.846 313.753 654.743 313.286C656.118 312.569 656.185 311.112 656.569 309.765L656.338 313.693C656.552 318.291 657.216 322.726 658.648 327.114L660.632 331.952C659.077 331.597 657.996 331.257 656.438 331.853C655.493 332.872 655.398 333.472 655.222 334.832C652.815 328.249 651.813 321.123 651.429 314.151Z"/>
	<path fill="#F5FAF2" d="M635.495 312.578C635.856 301.076 637.989 286.36 647.02 278.176C648.782 276.58 650.951 275.457 653.049 274.363C643.027 286.641 638.292 296.151 638.022 312.581C637.039 312.983 636.526 312.732 635.495 312.578Z"/>
	<path fill="#98C8C8" d="M638.334 856.417C642.243 863.16 647.135 869.629 650.544 876.591L642.778 879.535C641.298 871.679 637.57 864.655 638.334 856.417Z"/>
	<path fill="#28698F" d="M646.19 446.24C643.793 449.895 646.361 456.398 643.554 459.801L642.841 459.458C641.544 457.375 640.737 454.89 640.301 452.472C639.791 449.633 640.249 446.614 641.971 444.26C645.631 439.255 652.62 438.552 658.258 437.683C656.112 439.728 653.745 441.483 651.392 443.28C649.82 443.181 648.193 443.96 646.992 444.988C646.246 445.628 646.488 445.299 646.19 446.24Z"/>
	<path fill="#F5FAF2" d="M638.334 856.417L639.49 854.999C641.201 855.024 642.029 855.919 643.214 857.097C647.851 861.709 652.788 868.718 655.829 874.468L650.544 876.591C647.135 869.629 642.243 863.16 638.334 856.417Z"/>
	<path fill="#92AAB9" d="M544.568 337.001C552.988 336.85 560.243 335.251 568.267 332.852L569.166 338.692Q557.526 340.714 545.918 342.908C545.515 340.943 545.194 338.908 544.568 337.001Z"/>
	<path fill="#F5FAF2" d="M491.443 335.434C495.833 329.649 513.764 327.366 521.159 325.81L519.97 331.302C514.607 331.898 495.522 337.343 491.443 335.434Z"/>
	<path fill="#748DA3" d="M646.19 446.24C646.488 445.299 646.246 445.628 646.992 444.988C648.193 443.96 649.82 443.181 651.392 443.28C660.909 450.885 674.167 444.938 684.358 449.587L683.14 450.116C679.831 450.243 676.544 450.662 673.385 451.692C672.082 451.931 670.759 452.242 669.44 452.357C669.208 452.154 669.027 451.872 668.745 451.749C667.217 451.083 663.739 451.175 661.937 450.816C656.535 449.743 651.3 448.295 646.19 446.24Z"/>
	<path fill="#F5FAF2" d="M156.261 559.082C158.767 560.354 161.296 561.878 163.404 563.74C166.571 570.299 176.062 583.742 174.909 590.852C166.561 582.698 161.295 569.495 156.261 559.082Z"/>
	<path fill="#28698F" d="M622.741 351.75C624.717 351.455 626.785 351.388 628.78 351.216C630.109 353.02 631.132 354.808 632.115 356.82L614.879 359.062C610.833 359.074 608.233 356.532 605.144 354.23C610.958 353.088 616.864 352.47 622.741 351.75Z"/>
	<path fill="#F5FAF2" d="M545.03 325.477C545.409 324.451 545.789 323.369 546.399 322.454C550.355 316.525 562.877 315.414 569.365 314.127C568.895 316.59 568.412 318.991 567.665 321.391C560.042 323.322 552.935 325.305 545.03 325.477Z"/>
	<path fill="#F5FAF2" d="M459.521 277.605C465.627 275.924 471.148 276.461 476.678 279.671C482.792 283.22 487.977 290.1 489.5 297.066C490.05 299.581 490.001 302.776 488.442 304.948C487.816 305.82 487.025 306.329 486.134 306.9C485.931 303.8 485.882 300.717 484.967 297.722C482.413 289.366 475.519 281.882 467.043 279.335C464.97 278.711 461.85 278.976 460.061 277.94C459.878 277.834 459.701 277.717 459.521 277.605Z"/>
	<path fill="#28698F" d="M638.022 312.581C639.292 314.985 639.531 323.476 640.181 326.851Q640.926 330.718 642.127 334.468Q643.328 338.219 644.968 341.799C646.265 344.589 647.805 347.376 649.696 349.812C652.413 353.31 659.053 358.167 660.188 362.213L659.307 362.227C656.267 360.662 653.328 359.166 650.926 356.66C640.346 345.622 635.525 327.48 635.495 312.578C636.526 312.732 637.039 312.983 638.022 312.581Z"/>
	<path fill="#28698F" d="M496.98 342.154C502.376 345.921 513.071 340.577 519.444 340.594C519.637 342.329 519.756 343.973 519.71 345.72C517.651 348.257 498.91 349.944 494.715 350.386L492.303 350.629C491.714 348.247 491.152 345.942 490.923 343.49L496.98 342.154Z"/>
	<path fill="#28698F" d="M704.577 477.417C704.944 477.482 705.355 477.718 705.699 477.867C707.638 483.277 708.403 489.075 709.269 494.733L699.393 497.424L698.984 497.365C697.041 495.005 695.693 485.877 694.884 482.497C697.972 480.47 701.232 478.965 704.577 477.417Z"/>
	<path fill="#55424A" d="M617.13 754.22C617.723 756.881 617.88 759.901 619.424 762.184C617.36 774.736 615.511 787.457 612.579 799.84C608.373 803.111 612.374 810.481 606.369 812.062C606.614 806.276 608.391 800.05 609.408 794.317C611.783 780.928 613.909 767.44 617.13 754.22Z"/>
	<path fill="#28698F" d="M179.03 603.176C181.597 603.85 184.306 604.132 186.945 603.813L187.902 604.025Q186.077 617.306 184.862 630.657C181.334 625.272 177.954 619.547 173.989 614.487C175.113 610.419 177.101 606.888 179.03 603.176Z"/>
	<defs>
		<linearGradient id="gradient_2" gradientUnits="userSpaceOnUse" x1="585.06702" y1="341.09805" x2="594.5929" y2="336.52527">
			<stop offset="0" stop-color="#D2C1CE"/>
			<stop offset="1" stop-color="#F2F0EC"/>
		</linearGradient>
	</defs>
	<path fill="url(#gradient_2)" d="M581.249 315.146L585.643 314.771Q585.494 316.827 585.494 318.889C585.507 339.3 592.14 351.159 606.158 365.21C600.902 362.985 596.606 360.168 592.854 355.817C583.127 344.537 580.114 329.656 581.249 315.146Z"/>
	<path fill="#3F6866" d="M606.369 812.062C612.374 810.481 608.373 803.111 612.579 799.84C611.659 821.527 602.124 842.655 602.415 864.451C600.821 862.391 599.555 860.232 598.268 857.978C599.959 842.702 603.643 827.205 606.369 812.062Z"/>
	<defs>
		<linearGradient id="gradient_3" gradientUnits="userSpaceOnUse" x1="662.05219" y1="396.30594" x2="684.14117" y2="402.24866">
			<stop offset="0" stop-color="#446D96"/>
			<stop offset="1" stop-color="#7E90A8"/>
		</linearGradient>
	</defs>
	<path fill="url(#gradient_3)" d="M685.401 420.715C682.601 421.279 678.925 421.125 676.11 420.629Q675.657 420.55 675.21 420.449Q674.762 420.347 674.32 420.223Q673.878 420.099 673.442 419.952Q673.007 419.805 672.58 419.636Q672.153 419.467 671.735 419.277Q671.317 419.087 670.91 418.875Q670.502 418.664 670.106 418.432Q669.709 418.2 669.325 417.948Q668.941 417.696 668.571 417.425Q668.2 417.153 667.844 416.864Q667.488 416.574 667.147 416.266Q666.806 415.959 666.481 415.634Q666.156 415.309 665.848 414.969Q665.54 414.628 665.25 414.272Q664.96 413.916 664.689 413.545Q664.417 413.175 664.165 412.791Q663.887 412.374 663.63 411.944Q663.373 411.514 663.139 411.072Q662.904 410.629 662.692 410.176Q662.48 409.722 662.291 409.258Q662.102 408.794 661.936 408.322Q661.771 407.849 661.629 407.369Q661.488 406.888 661.37 406.401Q661.253 405.914 661.161 405.422Q661.068 404.93 661.001 404.433Q660.933 403.937 660.891 403.438Q660.849 402.939 660.831 402.438Q660.814 401.938 660.822 401.437Q660.83 400.936 660.863 400.436Q660.896 399.937 660.954 399.439Q661.013 398.942 661.096 398.448Q661.179 397.954 661.287 397.465Q661.388 396.979 661.514 396.5Q661.64 396.02 661.79 395.547Q661.939 395.074 662.113 394.609Q662.286 394.145 662.483 393.689Q662.679 393.234 662.898 392.789Q663.118 392.344 663.359 391.911Q663.601 391.478 663.864 391.057Q664.127 390.637 664.41 390.23Q664.694 389.823 664.998 389.431Q665.302 389.039 665.625 388.663Q665.949 388.287 666.291 387.927Q666.633 387.568 666.992 387.226Q667.352 386.885 667.728 386.562Q668.104 386.238 668.496 385.935Q668.888 385.631 669.295 385.347Q669.702 385.064 670.123 384.801C675.853 381.281 682.002 381.651 688.25 383.189C687.132 384.008 685.999 384.751 685.131 385.848C678.92 385.854 673.552 385.948 668.826 390.603C665.928 393.456 664.472 397.332 664.458 401.375Q664.455 402.174 664.533 402.968Q664.611 403.763 664.77 404.546Q664.929 405.329 665.167 406.091Q665.405 406.854 665.719 407.588Q666.033 408.322 666.421 409.02Q666.809 409.718 667.266 410.373Q667.723 411.028 668.244 411.633Q668.766 412.238 669.346 412.787C672.196 415.528 676.171 417.152 680.066 417.713C680.538 418.726 680.939 419.799 682.087 420.209C683.079 420.563 684.349 420.604 685.401 420.715Z"/>
	<path fill="#A7D9DD" d="M491.443 335.434C495.522 337.343 514.607 331.898 519.97 331.302C519.825 333.104 519.596 334.937 519.581 336.743C519.866 338.301 519.869 339.069 519.444 340.594C513.071 340.577 502.376 345.921 496.98 342.154L490.923 343.49C490.834 340.685 490.932 338.209 491.443 335.434Z"/>
	<path fill="#265378" d="M496.98 342.154C504.271 340.335 513.118 340.908 519.581 336.743C519.866 338.301 519.869 339.069 519.444 340.594C513.071 340.577 502.376 345.921 496.98 342.154Z"/>
	<path fill="#F5FAF2" d="M688.25 383.189C693.401 385.945 697.75 389.585 699.633 395.324Q699.786 395.792 699.915 396.268Q700.044 396.743 700.148 397.224Q700.252 397.706 700.332 398.192Q700.411 398.678 700.466 399.168Q700.52 399.657 700.549 400.149Q700.579 400.64 700.582 401.133Q700.586 401.626 700.565 402.118Q700.544 402.61 700.497 403.1Q700.45 403.59 700.379 404.078Q700.307 404.565 700.21 405.048Q700.114 405.531 699.992 406.008Q699.871 406.486 699.725 406.956Q699.58 407.427 699.41 407.889Q699.24 408.352 699.047 408.805Q698.854 409.258 698.638 409.7Q698.422 410.143 698.183 410.574C695.322 415.743 690.77 418.621 685.401 420.715C684.349 420.604 683.079 420.563 682.087 420.209C680.939 419.799 680.538 418.726 680.066 417.713C684.933 416.349 689.324 414.134 692.236 409.844Q692.656 409.23 693.014 408.577Q693.372 407.924 693.663 407.238Q693.954 406.553 694.176 405.843Q694.398 405.132 694.549 404.403Q694.7 403.674 694.777 402.934Q694.855 402.193 694.859 401.449Q694.864 400.704 694.794 399.963Q694.725 399.222 694.582 398.491C693.48 392.832 689.653 389.032 685.131 385.848C685.999 384.751 687.132 384.008 688.25 383.189Z"/>
	<path fill="#748DA3" d="M665.694 475.458C669.835 475.624 673.986 475.983 678.123 476.253C677.333 483.847 675.936 491.375 674.658 498.898C670.872 499.208 666.254 497.002 662.749 495.727C663.632 488.953 665.019 482.265 665.694 475.458Z"/>
	<path fill="#A7D9DD" d="M545.03 325.477C552.935 325.305 560.042 323.322 567.665 321.391L567.91 322.362C568.205 325.864 567.969 329.368 568.267 332.852C560.243 335.251 552.988 336.85 544.568 337.001C544.277 334.882 543.792 329.917 544.819 328.115L545.03 325.477Z"/>
	<path fill="#28698F" d="M567.586 329.277C567.553 326.927 567.573 324.7 567.91 322.362C568.205 325.864 567.969 329.368 568.267 332.852C560.243 335.251 552.988 336.85 544.568 337.001C544.277 334.882 543.792 329.917 544.819 328.115C544.829 329.602 544.648 331.118 545.432 332.438C550.736 333.555 561.931 330.293 567.586 329.277Z"/>
	<path fill="#F5FAF2" d="M173.48 601.629L179.03 603.176C177.101 606.888 175.113 610.419 173.989 614.487L171.054 620.518C179.512 634.944 184.439 639.845 183.902 657.478C179.965 648.805 175.558 640.326 171.308 631.801C169.114 627.399 167.134 622.632 164.694 618.381C165.358 618.16 165.994 617.9 166.616 617.574C170.838 615.362 172.076 605.831 173.48 601.629Z"/>
	<path fill="#748DA3" d="M450.107 282.364C453.005 280.08 455.788 278.152 459.521 277.605C459.701 277.717 459.878 277.834 460.061 277.94C461.85 278.976 464.97 278.711 467.043 279.335C475.519 281.882 482.413 289.366 484.967 297.722C485.882 300.717 485.931 303.8 486.134 306.9C486.026 306.681 485.88 306.476 485.81 306.242C485.557 305.4 485.601 304.6 485.229 303.767C480.896 294.063 459.486 286.263 450.107 282.364Z"/>
	<path fill="#F5FAF2" d="M267.848 270.113C277.159 268.962 285.88 270.434 293.437 276.327C299.732 281.236 303.148 287.944 303.926 295.809C304.241 299.003 303.916 301.284 302.428 304.094L301.699 303.995C300.389 300.871 299.609 297.539 298.251 294.457C296.365 288.868 291.461 284.677 287.354 280.673C284.709 277.496 281.489 276.443 277.643 275.52C276.907 276.3 276.806 276.573 275.752 276.916C274.453 276.144 273.206 275.389 272.07 274.385C270.638 273.12 269.15 271.939 267.657 270.747L267.848 270.113Z"/>
	<path fill="#F5FAF2" d="M699.832 437.119C705.874 437.491 715.366 438.537 719.6 443.38C721.576 445.641 722.002 449.176 721.662 452.051C721.34 454.778 720.326 457.742 718.03 459.432C717.391 459.903 716.788 460.235 716.034 460.477C714.069 460.185 712.047 460.068 710.068 459.873C710.59 458.542 711.367 458.007 712.402 457.073C713.278 456.825 714.404 456.218 715.029 455.539C715.937 454.552 716.172 453.326 716.133 452.022C716.081 450.297 715.013 447.76 713.686 446.726C711.743 448.052 709.427 449.634 707.209 450.439C700.708 452.8 691.285 452.89 684.468 453.028L683.14 450.116L684.358 449.587C689.235 449.173 700.597 448.441 703.727 444.23C704.424 443.292 704.535 442.291 704.215 441.185C703.7 439.412 701.288 438.126 699.832 437.119Z"/>
	<path fill="#F5FAF2" d="M593.554 314.022C594.364 311.018 595.048 307.958 596.872 305.378C602.617 297.252 614.991 296.243 624.029 294.65Q622.248 301.397 620.611 308.181C612.806 310.218 601.501 314.159 593.554 314.022Z"/>
	<path fill="#A7D9DD" d="M684.468 453.028C691.285 452.89 700.708 452.8 707.209 450.439C709.427 449.634 711.743 448.052 713.686 446.726C715.013 447.76 716.081 450.297 716.133 452.022C716.172 453.326 715.937 454.552 715.029 455.539C714.404 456.218 713.278 456.825 712.402 457.073C711.367 458.007 710.59 458.542 710.068 459.873C706.628 458.857 703.93 461.015 700.634 461.613C696.487 461.543 693.298 460.542 689.57 458.723C687.804 458.986 686.02 459.208 684.274 459.578C681.107 459.403 676.487 459.603 673.571 458.392C675.422 457.695 677.407 457.773 679.363 457.698C676.788 457 671.073 456.394 669.419 454.228C668.929 453.587 669.285 453.077 669.44 452.357C670.759 452.242 672.082 451.931 673.385 451.692C676.544 450.662 679.831 450.243 683.14 450.116L684.468 453.028Z"/>
	<path fill="#C6C5C6" d="M673.385 451.692C676.544 450.662 679.831 450.243 683.14 450.116L684.468 453.028C680.783 453.076 676.667 453.63 673.385 451.692Z"/>
	<path fill="#748DA3" d="M689.57 458.723C696.274 458.33 706.083 454.775 712.402 457.073C711.367 458.007 710.59 458.542 710.068 459.873C706.628 458.857 703.93 461.015 700.634 461.613C696.487 461.543 693.298 460.542 689.57 458.723Z"/>
	<path fill="#3F6866" d="M637.569 648.231C638.595 647.931 639.709 647.786 640.761 647.582C639.138 654.567 638.389 661.729 637.201 668.798Q634.425 684.562 631.478 700.294C625.439 720.43 624.941 741.975 619.424 762.184C617.88 759.901 617.723 756.881 617.13 754.22C621.628 732.738 625.518 711.091 629.755 689.553C632.431 675.947 635.979 661.99 637.569 648.231Z"/>
	<path fill="#A7D9DD" d="M753.965 732.236C757.244 742.399 758.59 753.956 760.588 764.485C762.453 774.309 764.973 784.191 766.207 794.102C766.528 796.681 766.802 799.201 766.244 801.773C762.966 799.342 761.736 796.313 760.253 792.66C757.506 786.068 756.337 778.599 754.837 771.638C755.494 759.512 748.736 747.923 749.443 735.834C749.932 736.962 750.463 737.697 751.273 738.619L752.241 738.524C753.629 736.65 753.748 734.489 753.965 732.236Z"/>
	<path fill="#92AAB9" d="M723.937 643.599C717.253 614.169 711.183 584.544 704.938 555.015C703.342 547.466 698.19 530.92 698.938 524.186C699.072 522.982 699.185 522.473 700.137 521.659L701.202 522.096C702.33 523.529 702.407 524.895 702.628 526.646L702.718 527.407C707.582 544.841 710.655 562.759 714.279 580.484C717.822 597.817 721.94 615.219 724.618 632.697C724.597 636.369 724.317 639.948 723.937 643.599Z"/>
	<path fill="#748DA3" d="M767.852 731.475Q779.171 731.641 790.483 732.086C791.96 739.475 793.347 746.826 794.149 754.326Q782.985 753.654 771.824 754.363Q770.144 742.866 767.852 731.475Z"/>
	<path fill="#265378" d="M636.893 839.759C650.297 837.575 663.803 838.286 677.293 839.122Q673.651 847.298 670.098 855.513C663.437 854.534 656.395 855.235 649.691 855.57L636.893 839.759Z"/>
	<path fill="#98C8C8" d="M729.872 626.569C732.079 634.243 732.81 642.648 734.039 650.538Q736.616 666.617 739.517 682.64C742.113 697.159 745.62 711.516 747.995 726.06C748.497 729.137 749.555 732.749 749.443 735.834C748.736 747.923 755.494 759.512 754.837 771.638L752.922 769.821C751.351 760.359 748.871 750.966 746.768 741.607Q741.735 719.378 737.366 697.008C735.977 689.88 734.562 682.702 733.619 675.499C732.528 667.158 731.957 658.661 730.146 650.432C729.793 644.632 728.347 638.794 727.131 633.122C727.188 632.927 727.218 632.722 727.302 632.537C728.21 630.553 728.964 628.548 729.872 626.569Z"/>
	<path fill="#748DA3" d="M620.611 308.181C620.361 312.028 619.938 315.958 620.096 319.809C620.681 324.573 621.359 329.253 622.573 333.902Q609.28 334.927 596.253 337.762C594.016 334.04 592.533 329.09 592.408 324.747C592.464 321.175 593.091 317.564 593.554 314.022C601.501 314.159 612.806 310.218 620.611 308.181Z"/>
	<path fill="#A7D9DD" d="M620.611 308.181C620.361 312.028 619.938 315.958 620.096 319.809C610.948 321.859 601.799 324.219 592.408 324.747C592.464 321.175 593.091 317.564 593.554 314.022C601.501 314.159 612.806 310.218 620.611 308.181Z"/>
	<path fill="#F5FAF2" d="M470.487 835.794C466.296 830.991 455.609 818.844 455.963 812.224C455.974 812.032 456.024 811.845 456.054 811.655L456.743 811.178C462.152 812.295 472.242 830.388 476.019 835.622C473.99 840.666 472.02 845.742 469.773 850.693C474.788 851.71 479.851 852.623 484.829 853.802C482.876 860.096 480.722 866.409 479.118 872.797C487.297 878.846 492.408 884.44 497.477 893.254C498.828 895.603 500.527 898.161 500.93 900.877C501.103 902.042 501.059 902.334 500.499 903.306C499.456 903.511 498.504 903.605 497.442 903.629C494.775 900.677 492.72 897.375 490.598 894.025C486.49 885.37 479.206 881.27 471.385 876.474C470.381 870.947 472.6 861.125 473.083 855.274C470.189 854.106 467.364 853.329 464.33 852.617L470.487 835.794Z"/>
	<path fill="#98C8C8" d="M473.083 855.274Q475.744 856.048 478.419 856.771C476.863 863.432 475.662 870.935 471.385 876.474C470.381 870.947 472.6 861.125 473.083 855.274Z"/>
	<path fill="#A7D9DD" d="M619.424 762.184C624.941 741.975 625.439 720.43 631.478 700.294L631.569 700.844C631.985 703.469 631.44 708.321 633.338 710.173C633.751 715.694 629.59 733.207 628.432 739.643L613.612 820.762Q610.767 836.241 608.121 851.756C607.162 857.355 606.433 863.114 605.139 868.642C604.221 867.272 603.196 865.9 602.415 864.451C602.124 842.655 611.659 821.527 612.579 799.84C615.511 787.457 617.36 774.736 619.424 762.184Z"/>
	<path fill="#1D3658" d="M680.066 417.713C676.171 417.152 672.196 415.528 669.346 412.787Q668.766 412.238 668.244 411.633Q667.723 411.028 667.266 410.373Q666.809 409.718 666.421 409.02Q666.033 408.322 665.719 407.588Q665.405 406.854 665.167 406.091Q664.929 405.329 664.77 404.546Q664.611 403.763 664.533 402.968Q664.455 402.174 664.458 401.375C664.472 397.332 665.928 393.456 668.826 390.603C673.552 385.948 678.92 385.854 685.131 385.848C689.653 389.032 693.48 392.832 694.582 398.491Q694.725 399.222 694.794 399.963Q694.864 400.704 694.859 401.449Q694.855 402.193 694.777 402.934Q694.7 403.674 694.549 404.403Q694.398 405.132 694.176 405.843Q693.954 406.553 693.663 407.238Q693.372 407.924 693.014 408.577Q692.656 409.23 692.236 409.844C689.324 414.134 684.933 416.349 680.066 417.713Z"/>
	<defs>
		<linearGradient id="gradient_4" gradientUnits="userSpaceOnUse" x1="704.75891" y1="580.51001" x2="730.64899" y2="568.61328">
			<stop offset="0" stop-color="#9BB9BC"/>
			<stop offset="1" stop-color="#A8DAD6"/>
		</linearGradient>
	</defs>
	<path fill="url(#gradient_4)" d="M704.487 519.767C706.232 519.326 708.014 519 709.776 518.631C710.518 529.045 714.006 539.904 715.916 550.248L729.872 626.569C728.964 628.548 728.21 630.553 727.302 632.537C727.218 632.722 727.188 632.927 727.131 633.122C728.347 638.794 729.793 644.632 730.146 650.432L729.51 650.116C726.464 646.069 725.853 637.658 724.618 632.697C721.94 615.219 717.822 597.817 714.279 580.484C710.655 562.759 707.582 544.841 702.718 527.407C703.573 526.623 704.281 525.679 705.024 524.788L704.487 519.767Z"/>
	<path fill="#040C0C" d="M702.718 527.407C703.573 526.623 704.281 525.679 705.024 524.788L720.01 598.022C722.369 609.535 725.645 621.495 727.131 633.122C728.347 638.794 729.793 644.632 730.146 650.432L729.51 650.116C726.464 646.069 725.853 637.658 724.618 632.697C721.94 615.219 717.822 597.817 714.279 580.484C710.655 562.759 707.582 544.841 702.718 527.407Z"/>
	<path fill="#F5FAF2" d="M645.849 616.368L656.777 555.38C658.618 545.101 659.801 534.125 662.556 524.077C663.045 522.293 663.758 520.941 664.87 519.478L665.968 518.948C667.073 519.607 667.31 520.104 667.579 521.377C668.03 523.512 667.743 525.917 667.416 528.055C665.845 538.309 663.452 548.553 661.478 558.745Q656.645 584.035 652.066 609.371L642.578 661.005C639.657 677.435 636.977 693.879 633.338 710.173C631.44 708.321 631.985 703.469 631.569 700.844L631.478 700.294Q634.425 684.562 637.201 668.798C638.389 661.729 639.138 654.567 640.761 647.582C642.863 637.259 644.338 626.79 645.849 616.368Z"/>
	<path fill="#5D8AB0" d="M655.222 334.832C655.398 333.472 655.493 332.872 656.438 331.853C657.996 331.257 659.077 331.597 660.632 331.952C663.666 339.934 667.963 346.409 674.421 352.03C690.4 351.33 706.247 349.768 722.181 348.503C736.077 347.401 749.954 346.624 763.823 345.162Q766.741 349.594 769.821 353.916Q740.425 355.165 711.048 356.791C698.096 357.554 685.144 358.756 672.16 358.769C664.939 352.728 657.991 343.999 655.222 334.832Z"/>
	<path fill="#F5FAF2" d="M540.523 717.649C560.654 729.409 573.485 751.413 579.328 773.512C584.26 792.164 584.813 811.582 583.186 830.72C582.971 833.246 582.816 838.986 581.336 841.116C580.941 841.683 580.901 841.662 580.422 842.007C579.078 841.33 578.789 840.16 578.254 838.804C581.225 822.564 581.782 801.199 577.759 785.001C575.203 774.711 571.252 766.057 561.906 760.45L563.322 759.61C562.32 757.825 560.981 756.133 559.809 754.45C554.284 741.991 541.721 741.207 538.727 736.146Q539.321 731.543 539.824 726.93C540.016 723.846 540.107 720.71 540.523 717.649Z"/>
	<path fill="#A7D9DD" d="M539.824 726.93C548.662 731.958 562.935 746.799 564.976 756.697C565.16 757.592 565.174 758.099 564.933 758.957C564.366 759.251 563.949 759.455 563.322 759.61C562.32 757.825 560.981 756.133 559.809 754.45C554.284 741.991 541.721 741.207 538.727 736.146Q539.321 731.543 539.824 726.93Z"/>
	<path fill="#748DA3" d="M267.753 327.949C263.935 327.165 260.211 326.338 256.801 324.36C250.833 320.898 246.844 314.99 245.072 308.403Q244.875 307.649 244.715 306.887Q244.555 306.124 244.432 305.355Q244.309 304.586 244.223 303.811Q244.138 303.037 244.09 302.259Q244.042 301.482 244.032 300.703Q244.021 299.924 244.049 299.145Q244.076 298.367 244.141 297.59Q244.207 296.814 244.309 296.042Q244.412 295.269 244.552 294.503Q244.692 293.737 244.869 292.978Q245.046 292.219 245.259 291.47Q245.472 290.721 245.722 289.983Q245.971 289.245 246.256 288.519Q246.541 287.794 246.861 287.084Q247.181 286.373 247.534 285.679Q247.888 284.985 248.275 284.309C252.692 276.693 259.426 272.289 267.848 270.113L267.657 270.747C269.15 271.939 270.638 273.12 272.07 274.385C273.206 275.389 274.453 276.144 275.752 276.916C276.806 276.573 276.907 276.3 277.643 275.52C281.489 276.443 284.709 277.496 287.354 280.673C291.461 284.677 296.365 288.868 298.251 294.457C295.077 296.992 293.755 300.267 292.076 303.854C291.24 302.24 290.4 300.621 289.462 299.062C286.315 293.832 281.48 288.584 275.313 287.221C272.177 286.527 268.968 287.004 266.288 288.82C262.558 291.348 260.511 295.802 259.642 300.096C257.416 311.095 261.841 319.253 267.753 327.949Z"/>
	<path fill="#C6C5C6" d="M277.643 275.52C281.489 276.443 284.709 277.496 287.354 280.673C287.05 281.812 286.894 282.908 286 283.744C285.836 283.731 285.67 283.737 285.509 283.706C282.589 283.146 279.3 277.866 277.643 275.52Z"/>
	<path fill="#F5FAF2" d="M715.429 516.766C716.264 525.833 718.461 534.765 720.263 543.678Q723.061 557.989 725.56 572.356L744.024 675.648C747.385 694.46 751.263 713.322 753.965 732.236C753.748 734.489 753.629 736.65 752.241 738.524L751.273 738.619C750.463 737.697 749.932 736.962 749.443 735.834C749.555 732.749 748.497 729.137 747.995 726.06C745.62 711.516 742.113 697.159 739.517 682.64Q736.616 666.617 734.039 650.538C732.81 642.648 732.079 634.243 729.872 626.569L715.916 550.248C714.006 539.904 710.518 529.045 709.776 518.631L715.429 516.766Z"/>
	<path fill="#F5FAF2" d="M524.071 803.449C524.902 802.11 525.59 800.46 527.154 799.911C532.703 802.655 550.26 826.694 555.07 832.903C550.704 838.371 545.868 843.761 542.117 849.662C549.338 849.954 556.561 850.321 563.79 850.224C574.843 864.033 583.777 878.283 589.169 895.249C581.004 891.232 571.881 887.234 565.09 881.072C564.965 880.992 564.831 880.924 564.715 880.832C560.553 877.552 557.675 861.836 556.901 856.361C552.286 856.666 542.203 857.25 538.312 854.407C537.214 853.605 537.235 852.765 536.997 851.532C535.948 846.783 535.392 842.071 534.089 837.319C532.021 829.779 523.652 809.328 524.071 803.449Z"/>
	<path fill="#A7D9DD" d="M556.901 856.361C559.582 856.696 560.894 858.333 562.515 860.376C565.641 864.316 568.14 868.856 571.014 872.992C573.575 876.677 576.564 880.174 578.893 884C575.265 882.923 568.58 879.826 565.09 881.072C564.965 880.992 564.831 880.924 564.715 880.832C560.553 877.552 557.675 861.836 556.901 856.361Z"/>
	<path fill="#A7D9DD" d="M536.997 851.532C535.948 846.783 535.392 842.071 534.089 837.319C532.021 829.779 523.652 809.328 524.071 803.449C532.292 812.946 540.856 823.317 547.214 834.17C543.865 839.802 540.685 846.181 536.997 851.532Z"/>
	<path fill="#748DA3" d="M749.923 296.282C749.893 294.458 749.483 291.733 750.359 290.121C750.359 298.077 750.739 306.048 752.183 313.888C739.273 315.229 726.429 317.561 713.608 319.569C695.309 322.436 677.063 325.095 658.648 327.114C657.216 322.726 656.552 318.291 656.338 313.693C670.948 313.056 686.314 308.697 700.643 305.875C717.052 302.644 733.643 300.14 749.923 296.282Z"/>
	<path fill="#748DA3" d="M538.727 736.146C541.721 741.207 554.284 741.991 559.809 754.45C560.981 756.133 562.32 757.825 563.322 759.61L561.906 760.45C571.252 766.057 575.203 774.711 577.759 785.001C581.782 801.199 581.225 822.564 578.254 838.804C575.146 832.963 570.858 827.886 567.946 821.786C561.075 807.397 556.087 792.222 549.717 777.631C545.499 767.971 540.383 758.852 535.06 749.767C536.286 745.218 537.942 740.807 538.727 736.146Z"/>
	<path fill="#C6C5C6" d="M550.522 753.354C553.655 753.597 556.716 753.88 559.809 754.45C560.981 756.133 562.32 757.825 563.322 759.61L561.906 760.45C557.932 758.873 554.07 755.745 550.522 753.354Z"/>
	<path fill="#28698F" d="M629.279 806.006L688.114 806.368C699.015 806.359 710.126 805.499 720.988 806.475C717.026 814.959 712.973 823.099 707.898 830.988C709.929 833.537 712.066 836.048 713.821 838.798C704.219 829.968 697.935 819.784 689.67 809.932Q683.562 824.561 677.293 839.122C663.803 838.286 650.297 837.575 636.893 839.759C633.689 835.754 630.232 830.38 625.72 827.839Q627.009 816.842 629.279 806.006Z"/>
	<path fill="#748DA3" d="M559.432 363.641C565.199 363.213 571.093 362.648 576.766 361.503L577.67 363.986C576.663 371.338 581.022 382.813 583.617 389.693C583.623 392.412 580.876 397.501 581.141 398.952C580.662 403.397 582.898 408.237 583.356 412.719C583.989 418.905 582.135 433.156 584.048 437.842C584.149 438.09 584.304 438.312 584.453 438.534C584.79 439.036 585.315 439.504 585.739 439.921C585.324 441.42 584.6 443.186 584.975 444.734C585.942 444.492 585.462 444.661 586.409 444.213C585.678 454.927 575.69 462.423 571.394 471.388C572.272 471.534 573.149 471.658 574.031 471.772C574.447 473.054 573.982 473.617 573.381 474.751C565.727 489.201 539.969 515.862 525.069 522.849C528.545 515.537 534.763 508.72 539.625 502.252C545.514 494.418 550.414 486.485 554.62 477.635L538.482 482.475C547.198 473.269 554.791 463.647 560.202 452.111C574.08 422.523 570.205 393.425 559.432 363.641Z"/>
	<path fill="#F5FAF2" d="M767.488 296.391C767.429 281.02 769.639 250.919 781.037 239.596C782.949 237.697 785.595 236.529 788.106 235.645C794.434 233.419 801.271 232.59 807.774 230.975C818.634 228.277 829.302 224.728 840.337 222.763C845.051 221.924 849.855 221.368 854.649 221.54C866.767 221.976 877.273 228.037 885.346 236.843C900.315 253.169 907.432 277.302 906.428 299.197C905.694 315.22 900.05 332.261 887.794 343.179C883.571 346.942 878.965 349.352 873.726 351.374C871.617 350.82 869.241 350.512 868.014 348.603L868.671 348.406C879.884 344.932 888.016 337.804 893.433 327.443C902.518 310.064 902.711 288.068 896.92 269.633C892.124 254.367 882.545 237.817 867.78 230.325C860.913 226.841 853.23 225.957 845.855 228.467C837.838 231.196 831.757 236.946 828.039 244.495C818.724 263.405 817.223 288.009 823.934 307.965C823.163 309.893 822.239 310.689 820.637 311.948Q817.242 301.137 815.399 289.957C811.021 290.545 806.731 291.397 802.407 292.284C801.409 282.815 800.3 273.101 797.471 263.982C796.864 267.313 795.998 270.621 795.229 273.92C788.057 274.34 780.003 276.071 773.586 279.372L773.431 280.126C772.381 285.375 773.65 292.035 771.102 296.717C770.429 297.149 770.29 297.482 769.459 297.309C768.645 297.138 768.171 296.837 767.488 296.391Z"/>
	<path fill="#A7D9DD" d="M773.586 279.372C776.116 269.382 778.365 256.037 788.151 250.498C796.509 245.769 812.075 243.407 821.653 241.548C816.731 257.751 814.202 272.939 815.399 289.957C811.021 290.545 806.731 291.397 802.407 292.284C801.409 282.815 800.3 273.101 797.471 263.982C796.864 267.313 795.998 270.621 795.229 273.92C788.057 274.34 780.003 276.071 773.586 279.372Z"/>
	<path fill="#F5FAF2" d="M760.968 248.061C758.194 253.641 755.492 259.074 753.85 265.118Q751.925 273.194 750.827 281.423Q750.429 285.763 750.359 290.121C749.483 291.733 749.893 294.458 749.923 296.282C733.643 300.14 717.052 302.644 700.643 305.875C686.314 308.697 670.948 313.056 656.338 313.693L656.569 309.765C656.185 311.112 656.118 312.569 654.743 313.286C653.846 313.753 652.429 313.927 651.429 314.151L651.385 313.509C650.499 299.158 653.509 284.336 663.18 273.343C675.979 269.359 689.078 266.468 702.077 263.231Q731.595 255.928 760.968 248.061Z"/>
	<path fill="#A7D9DD" d="M658.057 300.98C659.078 297.473 660.298 293.377 662.235 290.268C663.655 287.986 665.104 287.039 667.56 286.012C676.197 282.4 686.2 281.077 695.309 278.909L753.85 265.118Q751.925 273.194 750.827 281.423C734.902 282.346 718.419 287.533 702.813 290.84C690.086 293.538 669.57 296.713 658.057 300.98Z"/>
	<path fill="#92AAB9" d="M658.057 300.98C669.57 296.713 690.086 293.538 702.813 290.84C718.419 287.533 734.902 282.346 750.827 281.423Q750.429 285.763 750.359 290.121C749.483 291.733 749.893 294.458 749.923 296.282C733.643 300.14 717.052 302.644 700.643 305.875C686.314 308.697 670.948 313.056 656.338 313.693L656.569 309.765C656.511 306.681 656.716 303.799 658.057 300.98Z"/>
	<path fill="#1D3658" d="M797.471 263.982C800.3 273.101 801.409 282.815 802.407 292.284C806.731 291.397 811.021 290.545 815.399 289.957Q817.242 301.137 820.637 311.948C822.239 310.689 823.163 309.893 823.934 307.965C826.815 321.068 835.622 336.973 847.239 344.292C853.674 348.346 860.544 349.371 868.014 348.603C869.241 350.512 871.617 350.82 873.726 351.374C859.436 356.559 841.546 355.513 826.427 356.515Q811.744 357.588 797.165 359.643C782.113 350.476 774.891 332.913 770.749 316.582C768.699 310.187 768.054 303.06 767.488 296.391C768.171 296.837 768.645 297.138 769.459 297.309C770.29 297.482 770.429 297.149 771.102 296.717C773.65 292.035 772.381 285.375 773.431 280.126L773.586 279.372C780.003 276.071 788.057 274.34 795.229 273.92C795.998 270.621 796.864 267.313 797.471 263.982Z"/>
	<path fill="#748DA3" d="M802.407 292.284C806.731 291.397 811.021 290.545 815.399 289.957Q817.242 301.137 820.637 311.948C820.66 315.576 823.482 322.136 825.183 325.421C822.898 328.336 820.961 331.556 818.95 334.665C809.457 321.706 805.002 307.978 802.407 292.284Z"/>
	<path fill="#748DA3" d="M773.586 279.372C780.003 276.071 788.057 274.34 795.229 273.92C794.406 280.275 794.292 286.337 794.637 292.73C796.207 301.264 797.97 309.684 800.369 318.028C792.924 319.04 785.193 319.763 777.968 321.896C775.475 319.765 772.899 309.384 772.23 306.05C771.06 306.67 770.075 306.834 769.766 308.267C769.228 310.767 771.053 313.744 770.749 316.582C768.699 310.187 768.054 303.06 767.488 296.391C768.171 296.837 768.645 297.138 769.459 297.309C770.29 297.482 770.429 297.149 771.102 296.717C773.65 292.035 772.381 285.375 773.431 280.126L773.586 279.372Z"/>
	<path fill="#92AAB9" d="M773.586 279.372C780.003 276.071 788.057 274.34 795.229 273.92C794.406 280.275 794.292 286.337 794.637 292.73C787.091 294.11 779.516 295.701 771.917 296.741Q772.2 301.124 772.734 305.484L772.23 306.05C771.06 306.67 770.075 306.834 769.766 308.267C769.228 310.767 771.053 313.744 770.749 316.582C768.699 310.187 768.054 303.06 767.488 296.391C768.171 296.837 768.645 297.138 769.459 297.309C770.29 297.482 770.429 297.149 771.102 296.717C773.65 292.035 772.381 285.375 773.431 280.126L773.586 279.372Z"/>
	<path fill="#5D8AB0" d="M770.749 316.582C771.053 313.744 769.228 310.767 769.766 308.267C770.075 306.834 771.06 306.67 772.23 306.05C772.899 309.384 775.475 319.765 777.968 321.896L777.515 322.495C780.762 333.425 789.019 343.952 797.115 351.744C811.509 351.04 825.578 348.238 839.891 346.837C836.456 342.562 833.067 338.308 830.087 333.695C828.389 331.067 827.005 327.901 825.183 325.421C823.482 322.136 820.66 315.576 820.637 311.948C822.239 310.689 823.163 309.893 823.934 307.965C826.815 321.068 835.622 336.973 847.239 344.292C853.674 348.346 860.544 349.371 868.014 348.603C869.241 350.512 871.617 350.82 873.726 351.374C859.436 356.559 841.546 355.513 826.427 356.515Q811.744 357.588 797.165 359.643C782.113 350.476 774.891 332.913 770.749 316.582Z"/>
	<path fill="#92AAB9" d="M499.977 700.615C507.268 715.545 509.458 733.103 504.066 749.055C503.96 749.368 503.846 749.678 503.736 749.989C510.817 745.434 515.761 740.325 520.798 733.597C522.665 731.104 524.444 728.313 526.584 726.061C526.549 730.236 525.955 734.491 525.253 738.6C520.083 768.889 506.257 786.292 481.588 803.617C477.223 798.575 473.78 792.497 470.176 786.887Q463.436 776.337 456.234 766.096C449.351 776.54 444.12 788.384 438.514 799.553C438.718 781.802 434.656 765.578 427.366 749.495Q429.105 748.464 430.762 747.306C440.342 740.653 443.652 731.171 445.561 720.109C454.469 729.711 453.125 744.042 452.983 756.237C457.979 752.43 463.08 748.697 467.206 743.914C470.704 739.857 473.635 735.284 477.366 731.437C481.417 738.572 482.386 745.26 483.277 753.359C489.386 735.9 494.888 718.402 499.977 700.615Z"/>
	<path fill="#92AAB9" d="M221.788 522.88C222.131 528.749 217.749 542.859 216.531 549.592C212.442 572.188 211.14 595.843 214.218 618.647C218.132 647.632 230.024 676.303 251.403 696.762C257.943 703.021 265.521 708.327 272.72 713.801C260.451 720.075 249.816 727.817 240.171 737.674Q233.366 745.75 227.13 754.272C219.3 741.892 212.752 729.088 207.813 715.288C191.351 669.291 194.139 620.724 205.099 573.818C209.202 556.256 214.055 539.22 221.788 522.88Z"/>
	<path fill="#92AAB9" d="M113.244 460.632C114.12 461.897 114.736 462.051 116.25 462.313C121.989 463.304 127.921 463.14 133.685 464.215C152.268 467.684 170.072 478.594 181.579 493.579C188.454 502.532 191.401 511.217 194.239 521.929C197.273 517.897 201.585 512.039 206.973 511.375C208.652 511.168 210.671 511.605 211.9 512.837C212.729 513.667 213.281 515.014 213.782 516.065C201.721 545.479 194.27 572.905 187.902 604.025L186.945 603.813Q181.233 597.049 174.909 590.852C176.062 583.742 166.571 570.299 163.404 563.74C169.533 566.589 175.329 570.084 181.506 572.84C177.929 568.093 174.065 563.539 170.31 558.931C158.047 546.7 145.922 519.277 140.753 502.583C140.289 501.55 140.145 500.754 139.183 500.11C136.513 504.002 134.739 508.864 132.748 513.163L119.568 541.58C117.186 546.714 115.012 552.375 112.007 557.157C108.573 525.824 108.026 491.794 113.244 460.632Z"/>
	<path fill="#F5FAF2" d="M140.753 502.583C142.663 503.508 143.6 504.468 144.831 506.194C150.184 513.702 153.552 522.613 157.75 530.781C161.851 538.762 166.995 546.819 170.057 555.248C170.544 556.588 170.488 557.536 170.31 558.931C158.047 546.7 145.922 519.277 140.753 502.583Z"/>
	<path fill="#1D3658" d="M823.934 307.965C817.223 288.009 818.724 263.405 828.039 244.495C831.757 236.946 837.838 231.196 845.855 228.467C853.23 225.957 860.913 226.841 867.78 230.325C882.545 237.817 892.124 254.367 896.92 269.633C902.711 288.068 902.518 310.064 893.433 327.443C888.016 337.804 879.884 344.932 868.671 348.406L868.014 348.603C860.544 349.371 853.674 348.346 847.239 344.292C835.622 336.973 826.815 321.068 823.934 307.965Z"/>
	<path fill="#748DA3" d="M849.674 280.688L851.238 281.079C851.319 280.951 851.399 280.822 851.482 280.694C851.597 280.518 851.718 280.346 851.833 280.17C851.945 279.996 852.036 279.808 852.162 279.644C853.153 278.347 854.568 277.612 856.137 277.513C857.191 278.146 857.655 278.606 858.071 279.794C858.278 280.382 858.353 281.132 858.45 281.738C858.81 283.685 859.269 285.56 859.814 287.463C859.053 288.745 858.788 289.752 859.129 291.218C859.419 292.464 859.87 293.702 860.285 294.912C862.921 305.15 867.337 314.778 869.552 325.074C858.777 313.285 850.617 297.725 843.64 283.431C845.454 282.253 847.677 281.52 849.674 280.688Z"/>
	<path fill="#F5FAF2" d="M858.45 281.738C858.407 278.786 858.566 275.754 859.384 272.903C860.043 270.607 861.257 268.448 863.474 267.358C867.053 265.598 870.554 266.994 873.975 268.319C879.05 275.409 883.619 284.326 881.957 293.351C881.448 296.115 880.262 299.601 877.75 301.194C876.115 302.231 874.093 302.153 872.332 301.52C868.988 300.319 866.571 297.993 864.222 295.425L860.285 294.912C859.87 293.702 859.419 292.464 859.129 291.218C858.788 289.752 859.053 288.745 859.814 287.463C859.269 285.56 858.81 283.685 858.45 281.738Z"/>
	<path fill="#28698F" d="M859.814 287.463C861.246 290.126 862.609 292.87 864.222 295.425L860.285 294.912C859.87 293.702 859.419 292.464 859.129 291.218C858.788 289.752 859.053 288.745 859.814 287.463Z"/>
	<path fill="#92AAB9" d="M839.071 268.096C840.921 264.381 841.511 260.271 842.949 256.413C843.943 253.745 845.323 251.424 848.029 250.241C850.618 249.108 853.519 249.575 856.074 250.56C863.468 253.41 870.76 261.173 873.975 268.319C870.554 266.994 867.053 265.598 863.474 267.358C861.257 268.448 860.043 270.607 859.384 272.903C858.566 275.754 858.407 278.786 858.45 281.738C858.353 281.132 858.278 280.382 858.071 279.794C857.655 278.606 857.191 278.146 856.137 277.513C854.568 277.612 853.153 278.347 852.162 279.644C852.036 279.808 851.945 279.996 851.833 280.17C851.718 280.346 851.597 280.518 851.482 280.694C851.399 280.822 851.319 280.951 851.238 281.079L849.674 280.688C847.677 281.52 845.454 282.253 843.64 283.431C842.258 281.629 841.654 279.085 841.06 276.936C840.497 273.98 839.735 271.033 839.071 268.096Z"/>
	<path fill="#265378" d="M841.06 276.936C844.765 277.128 846.855 278.313 849.674 280.688C847.677 281.52 845.454 282.253 843.64 283.431C842.258 281.629 841.654 279.085 841.06 276.936Z"/>
	<path fill="#748DA3" d="M285.667 736.109C291.275 729.402 297.702 724.479 305.737 720.996C318.005 715.678 329.534 715.122 342.657 715.002C345.525 714.976 349.771 714.308 352.387 715.355C372.396 716.606 390.472 724.684 403.785 739.878C418.341 756.493 425.208 780.154 423.655 802.024C422.932 812.203 419.891 821.195 414.656 829.924L412.657 833.511C412.885 833.517 413.113 833.544 413.341 833.529C414.454 833.459 415.385 833.245 416.515 833.36C417.184 834.995 416.338 837.111 415.817 838.701C413.131 846.897 407.565 853.401 399.807 857.209C392.154 860.965 382.907 861.844 374.837 858.886Q374.235 858.664 373.644 858.413Q373.054 858.162 372.477 857.881Q371.9 857.6 371.338 857.291Q370.776 856.982 370.23 856.645Q369.684 856.307 369.155 855.943Q368.627 855.579 368.118 855.189Q367.608 854.799 367.119 854.384Q366.629 853.969 366.162 853.53Q365.694 853.091 365.248 852.629Q364.803 852.167 364.382 851.683Q363.96 851.199 363.563 850.695Q363.167 850.191 362.796 849.667Q362.425 849.144 362.08 848.602Q361.736 848.061 361.419 847.503Q361.103 846.944 360.815 846.371Q360.526 845.798 360.267 845.211C355.988 835.74 357.467 825.901 361.091 816.512C364.252 819.071 366.843 821.823 369.522 824.871C365.625 806.443 359.689 801.651 351.348 786.284C355.491 787.848 358.844 789.905 362.489 792.367C358.099 776.72 350.943 771.185 342.985 757.983L342.518 757.2C347.837 759.382 352.396 762.323 357.117 765.582C353.638 760.573 350.192 755.838 345.51 751.86C328.128 737.095 307.618 734.368 285.667 736.109Z"/>
	<path fill="#A7D9DD" d="M334.935 717.256C340.925 715.87 346.259 715.403 352.387 715.355C372.396 716.606 390.472 724.684 403.785 739.878C418.341 756.493 425.208 780.154 423.655 802.024C422.932 812.203 419.891 821.195 414.656 829.924L412.657 833.511C410.203 835.8 408.464 838.545 406.604 841.313Q407.081 839.418 407.474 837.503C411.72 816.592 405.685 804.539 394.293 787.468C401.329 790.842 406.455 795.655 411.621 801.415Q411.071 796.759 410.055 792.183C406.637 777.085 397.814 766.788 384.972 758.63C388.158 758.226 391.35 758.084 394.555 757.922Q393.397 756.77 392.184 755.677C376.538 741.577 353.193 727.961 332.525 723.933C325.749 722.612 319.094 722.578 312.226 722.91C319.631 720.518 327.238 718.45 334.935 717.256Z"/>
	<path fill="#F5FAF2" d="M334.935 717.256C340.925 715.87 346.259 715.403 352.387 715.355C372.396 716.606 390.472 724.684 403.785 739.878C418.341 756.493 425.208 780.154 423.655 802.024C422.932 812.203 419.891 821.195 414.656 829.924C414.279 829.169 414.057 828.534 414.097 827.672C414.271 823.94 415.48 820.027 416.145 816.333C416.882 812.239 416.974 807.692 416.977 803.53Q416.984 800.318 416.751 797.115Q416.518 793.911 416.045 790.734Q415.573 787.557 414.863 784.424Q414.154 781.292 413.212 778.221C404.45 749.876 384.121 731.361 356.135 722.86C351.08 721.324 339.2 719.689 335.646 717.68C335.406 717.544 335.172 717.397 334.935 717.256Z"/>
	<path fill="#92AAB9" d="M353.796 296.257C332.172 311.197 316.788 327.793 311.991 354.532C307.822 377.773 314.133 401.771 327.57 420.991Q328.212 421.924 328.877 422.841Q329.543 423.758 330.231 424.658Q330.919 425.557 331.63 426.44Q332.34 427.322 333.073 428.186Q333.805 429.05 334.559 429.895Q335.313 430.741 336.088 431.567Q336.863 432.393 337.659 433.199Q338.454 434.006 339.27 434.792Q340.086 435.578 340.921 436.343Q341.756 437.109 342.61 437.853Q343.464 438.597 344.337 439.319Q345.209 440.042 346.1 440.742Q346.99 441.442 347.898 442.12Q348.805 442.797 349.73 443.452Q350.654 444.107 351.595 444.738Q352.536 445.369 353.492 445.976Q354.448 446.583 355.419 447.167Q356.391 447.75 357.376 448.308Q358.362 448.866 359.361 449.4Q360.36 449.933 361.373 450.442Q362.385 450.95 363.41 451.432Q364.435 451.915 365.471 452.372Q366.508 452.828 367.556 453.259Q368.604 453.689 369.662 454.093Q370.72 454.497 371.788 454.874Q372.857 455.251 373.934 455.602Q375.011 455.952 376.097 456.275Q377.183 456.598 378.276 456.894Q379.37 457.189 380.47 457.457Q381.571 457.725 382.678 457.966Q383.785 458.206 384.898 458.418Q386.01 458.631 387.128 458.815C415.616 463.719 444.865 456.554 469.946 442.783C480.959 436.736 487.077 431.442 499.91 428.956C496.115 432.72 492.11 436.397 488.587 440.415C492.01 438.747 495.415 437 498.877 435.417Q495.943 440.692 492.439 445.608Q488.936 450.524 484.907 455.019C481.296 459.066 473.005 464.986 471.015 469.237L471.254 469.631L471.255 469.78C466.254 474.348 457.499 476.829 451.164 478.748C412.905 490.341 370.159 487.473 334.747 468.304C310.35 455.098 297.021 436.685 289.128 410.449C285.325 422.182 283.921 433.48 285.072 445.756C274.383 445.382 265.873 443.998 256.005 439.815Q264.632 409.38 273.754 379.089C281.491 353.646 291.146 329.065 310.381 309.917C314.324 305.992 318.432 301.939 323.384 299.299C324.4 299.948 325.208 300.445 326.44 300.511C334.313 300.929 344.86 296.456 353.796 296.257Z"/>
	<path fill="#F5FAF2" d="M625.72 827.839C623.462 839.209 616.01 880.219 610.993 887.379L610.442 887.262C609.348 883.38 610.238 878.095 610.819 874.17C614.31 850.591 619.181 827.094 623.535 803.655L645.933 683.603L664.385 585.456C668.049 565.654 671.101 545.573 675.633 525.953C677.412 518.252 680.565 510.941 683.468 503.614C684.972 509.766 688.016 515.439 689.478 521.591C696.979 553.159 703.08 585.123 709.97 616.835L752.844 814.001L747.974 818.056Q742.917 796.201 737.166 774.518C731.972 783.173 729.458 793.399 723.396 801.584L720.988 806.475C710.126 805.499 699.015 806.359 688.114 806.368L629.279 806.006Q627.009 816.842 625.72 827.839Z"/>
	<path fill="#C6C5C6" d="M679.357 545.603C682.218 545.286 684.926 545.301 687.794 545.406C688.173 547.846 689.693 551.681 688.484 553.898L686.887 554.046C684.503 554.35 681.332 555.057 679.035 554.269C677.659 553.798 677.224 553.252 676.549 552.023C676.422 549.561 677.803 547.399 679.357 545.603Z"/>
	<path fill="#C6C5C6" d="M676.342 557.38C680.932 557.445 685.5 557.422 689.95 556.167Q694.543 576.509 699.482 596.769L702.238 608.761C693.783 609.289 685.27 608.807 676.82 608.434C673.281 608.462 669.732 608.542 666.194 608.464C670.987 592.136 671.998 574.004 676.342 557.38Z"/>
	<path fill="#92AAB9" d="M676.82 608.434C684.828 607.134 692.825 601.166 699.482 596.769L702.238 608.761C693.783 609.289 685.27 608.807 676.82 608.434Z"/>
	<path fill="#28698F" d="M651.124 687.004L718.785 687.006L724.807 714.738L720.42 714.904L646.306 714.987C648.559 705.798 649.804 696.361 651.124 687.004Z"/>
	<path fill="#28698F" d="M635.173 773.904L707.141 774.029C715.127 773.988 729.651 772.568 736.683 773.707L737.166 774.518C731.972 783.173 729.458 793.399 723.396 801.584C716.241 799.293 702.305 800.364 694.32 800.385C673.092 800.443 651.675 801.426 630.467 800.572L635.173 773.904Z"/>
	<path fill="#28698F" d="M676.82 608.434C685.27 608.807 693.783 609.289 702.238 608.761C703.357 616.091 705.249 623.486 706.777 630.754Q711.929 655.168 717.406 679.511L653.126 679.498C654.548 670.817 656.33 662.197 657.701 653.506C669.728 653.564 681.631 652.908 693.629 652.16C681.799 650.101 670.169 649.919 658.209 649.897C661.442 636.233 663.566 622.257 666.194 608.464C669.732 608.542 673.281 608.462 676.82 608.434Z"/>
	<path fill="#28698F" d="M717.33 718.784L725.775 718.382C726.522 724.748 728.46 731.289 729.887 737.553C722.889 737.605 690.849 736.2 686.434 738.221C685.307 738.736 684.835 739.101 684.449 740.264C688.497 743.817 723.583 741.853 730.776 741.556C731.989 750.092 734.593 758.386 735.813 766.946C724.158 766.205 712.423 766.444 700.75 766.496C679.423 766.484 658.055 766.203 636.735 766.779C639.564 750.869 641.926 734.812 645.313 719.012C669.279 719.046 693.382 719.691 717.33 718.784Z"/>
	<path fill="#F5FAF2" d="M379.11 572.382C382.108 570.709 385.131 569.139 388.264 567.731C421.2 552.924 453.606 553.369 487.024 566.012C490.004 567.288 493.065 568.49 495.939 569.99C514.565 609.345 527.289 656.404 528.023 700.104C528.166 708.628 528.289 717.703 526.584 726.061C524.444 728.313 522.665 731.104 520.798 733.597C515.761 740.325 510.817 745.434 503.736 749.989C503.846 749.678 503.96 749.368 504.066 749.055C509.458 733.103 507.268 715.545 499.977 700.615C494.888 718.402 489.386 735.9 483.277 753.359C482.386 745.26 481.417 738.572 477.366 731.437C473.635 735.284 470.704 739.857 467.206 743.914C463.08 748.697 457.979 752.43 452.983 756.237C453.125 744.042 454.469 729.711 445.561 720.109C445.555 716.901 445.537 713.671 445.101 710.488C441.681 685.524 422.534 664.616 402.693 650.516C393.696 644.122 384.094 638.68 375.303 631.974C375.035 631.834 374.764 631.697 374.498 631.552C360.255 623.85 351.539 610.38 347.187 595.225C354.263 585.908 363.75 579.644 374.115 574.487Q376.595 573.392 379.11 572.382Z"/>
	<path fill="#92AAB9" d="M374.115 574.487Q376.595 573.392 379.11 572.382C377.906 575.884 376.64 579.378 375.617 582.938C380.687 580.377 385.694 577.925 390.995 575.864C379.158 587.974 373.27 601.564 373.423 618.624C373.463 623.107 373.969 627.679 375.303 631.974C375.035 631.834 374.764 631.697 374.498 631.552C360.255 623.85 351.539 610.38 347.187 595.225C354.263 585.908 363.75 579.644 374.115 574.487Z"/>
	<path fill="#748DA3" d="M477.929 481.621C479.007 480.862 479.303 480.332 480.676 480.438C481.153 483.599 480.78 486.999 480.844 490.209Q481.018 498.828 482.253 507.359C484.917 524.986 491.058 541.291 495.486 558.437C492.014 557.289 488.622 556.257 485.624 554.089C484.442 557.909 485.732 562.335 487.024 566.012C453.606 553.369 421.2 552.924 388.264 567.731C385.131 569.139 382.108 570.709 379.11 572.382Q376.595 573.392 374.115 574.487C378.111 556.869 387.004 540.897 394.49 524.598C384.38 535.349 373.761 542.474 359.212 545.393C359.129 543.529 359.16 541.459 358.369 539.729C357.661 538.181 356.447 536.897 354.82 536.321C351.231 535.05 346.458 537.538 343.321 539.223C332.134 554.767 328.213 571.687 331.222 590.689C334.716 612.758 348.053 628.897 365.762 641.632C387.617 657.349 411.882 668.124 425.277 692.992C428.207 698.431 430.822 704.536 431.836 710.663C432.628 715.453 432.195 719.798 430.808 724.448C428.917 730.249 424.34 733.26 419.695 736.792C409.907 720.35 391.225 708.51 373.814 701.639C365.415 698.325 356.69 695.903 348.35 692.417C335.858 687.194 323.802 680.578 313.492 671.73C295.44 656.239 283.837 633.09 279.436 609.924C277.901 601.846 277.366 593.687 276.74 585.502C273.393 596.841 272.943 606.806 273.916 618.56C264.755 589.723 264.7 555.475 276.781 527.49C287.223 503.303 309.029 486.906 336.063 489.474C346.061 490.424 355.568 493.899 365.201 496.535Q370.57 498.002 376.035 499.062Q381.499 500.123 387.027 500.772Q392.555 501.421 398.117 501.655Q403.678 501.889 409.241 501.706C426.62 501.146 444.716 497.816 460.603 490.545C466.506 487.843 471.897 484.023 477.929 481.621Z"/>
	<path fill="#92AAB9" d="M378.16 659.878C380.272 661.112 382.526 662.27 384.502 663.709C384.371 665.493 385.076 666.445 386.262 667.797C386.768 668.374 387.304 668.929 387.836 669.482L386.625 669.752C384.784 669.077 383.192 668.2 381.756 666.841C379.516 664.719 378.233 662.969 378.16 659.878Z"/>
	<path fill="#265378" d="M321.425 582.169C320.959 581.412 320.73 580.861 320.508 579.981C319.632 576.497 318.318 568.199 320.146 565.11L321.162 564.865L322.829 565.898Q321.461 573.976 321.425 582.169Z"/>
	<path fill="#28698F" d="M387.836 669.482C387.304 668.929 386.768 668.374 386.262 667.797C385.076 666.445 384.371 665.493 384.502 663.709C388.333 665.72 391.958 667.886 395.37 670.56C395.141 671.65 395.301 671.882 394.415 672.629C392.049 672.479 389.826 670.694 387.836 669.482Z"/>
	<path fill="#28698F" d="M335.431 639.349C335.528 636.02 335.154 630.902 336.636 627.963C342.213 633.782 348.102 638.866 354.409 643.862C350.442 644.061 341.129 639.907 335.431 639.349Z"/>
	<path fill="#92AAB9" d="M395.527 670.812C398.456 672.563 401.117 674.608 403.411 677.149C401.992 677.325 400.585 677.517 399.176 677.758C400.259 679.531 402.275 680.689 404.012 681.747C406.916 683.515 410.837 686.903 412.578 689.86C415.705 692.714 417.865 696.763 419.984 700.392L418.454 701.344C415.416 699.491 412.977 694.674 410.223 692.11C403.966 686.287 396.475 680.967 389.225 676.438C391.151 676.461 393.045 676.538 394.948 676.192C395.974 674.742 395.554 672.584 395.527 670.812Z"/>
	<path fill="#C6C5C6" d="M396.677 676.982L403.411 677.149C401.992 677.325 400.585 677.517 399.176 677.758C400.259 679.531 402.275 680.689 404.012 681.747C406.916 683.515 410.837 686.903 412.578 689.86C405.494 687.959 400.799 682.726 396.677 676.982Z"/>
	<path fill="#F5FAF2" d="M477.929 481.621C479.007 480.862 479.303 480.332 480.676 480.438C481.153 483.599 480.78 486.999 480.844 490.209Q481.018 498.828 482.253 507.359C484.917 524.986 491.058 541.291 495.486 558.437C492.014 557.289 488.622 556.257 485.624 554.089C484.582 547.082 473.305 535.441 468.793 530.138C472.819 532.245 476.528 534.604 480.302 537.137C477.676 527.359 471.658 519.48 468.245 510.023C469.634 510.881 470.698 512.431 471.745 513.682C472.256 510.324 471.886 506.721 471.754 503.341C471.634 500.276 471.49 496.637 473.71 494.237L474.653 494.362C474.678 494.304 474.715 494.25 474.726 494.187C475.482 489.794 476.321 485.803 477.929 481.621Z"/>
	<path fill="#28698F" d="M471.745 513.682C472.256 510.324 471.886 506.721 471.754 503.341C471.634 500.276 471.49 496.637 473.71 494.237L474.653 494.362C474.299 503.862 475.216 512.738 476.457 522.126L471.745 513.682Z"/>
	<path fill="#F5FAF2" d="M322.829 565.898C324.454 558.954 327.224 552.185 331.883 546.713C334.553 543.577 339.048 539.585 343.321 539.223C332.134 554.767 328.213 571.687 331.222 590.689C334.716 612.758 348.053 628.897 365.762 641.632C387.617 657.349 411.882 668.124 425.277 692.992C428.207 698.431 430.822 704.536 431.836 710.663C432.628 715.453 432.195 719.798 430.808 724.448C429.488 722.243 428.693 719.269 427.762 716.835C425.544 711.037 423.318 705.661 419.984 700.392C417.865 696.763 415.705 692.714 412.578 689.86C410.837 686.903 406.916 683.515 404.012 681.747C402.275 680.689 400.259 679.531 399.176 677.758C400.585 677.517 401.992 677.325 403.411 677.149C401.117 674.608 398.456 672.563 395.527 670.812L395.37 670.56C391.958 667.886 388.333 665.72 384.502 663.709C382.526 662.27 380.272 661.112 378.16 659.878C375.732 658.78 371.017 658.4 369.473 656.431L370.399 654.46C366.978 649.961 359.324 646.704 354.409 643.862C348.102 638.866 342.213 633.782 336.636 627.963C328.623 617.463 319.016 608.139 310.62 597.89C316.388 601.368 321.675 605.524 327.616 608.742C322.68 597.726 317.415 587.406 314.701 575.548C316.064 578.109 318.437 584.503 321.047 585.593C321.786 584.52 321.523 583.397 321.425 582.169Q321.461 573.976 322.829 565.898Z"/>
	<path fill="#F5FAF2" d="M323.384 299.299C353.271 281.304 389.136 278.503 422.527 286.829C442.447 291.795 461.967 301.06 478.02 313.913C475.935 318.118 474.067 322.257 472.426 326.659C467.775 328.659 464.574 331.458 462.674 336.255C460.451 341.871 460.737 348.97 463.196 354.469Q464.372 357.066 465.881 359.485C468.87 359.455 471.882 359.34 474.868 359.494L475.601 359.381C479.732 360.382 482.865 361.598 486.461 363.983C478.649 363.502 461.476 361.717 455.216 366.908C453.54 368.298 452.626 371.403 452.556 373.5C452.408 377.933 455.297 382.016 458.292 385.011C463.111 389.83 469.112 392.842 475.493 395.011L475.505 403.616C468.737 406.524 454.027 412.875 451.455 420.276C451.273 420.799 451.294 421.102 451.279 421.615C451.909 422.492 452.017 422.692 453.145 422.911C458.909 424.032 472.022 416.243 477.2 413.614C481.434 416.668 489.111 423.082 494.545 422.378C495.742 422.223 495.989 421.935 496.818 421.138C497.312 419.118 496.698 417.679 495.637 415.961C492.75 411.286 487.656 406.828 482.993 403.979L482.916 395.239C490.947 390.78 498.995 386.406 501.766 376.858C502.411 374.636 502.811 372.303 503.258 370.033Q504.171 371.132 505.027 372.275Q505.884 373.417 506.683 374.602Q507.481 375.786 508.22 377.008Q508.958 378.23 509.635 379.488Q510.312 380.746 510.926 382.036Q511.539 383.326 512.087 384.644Q512.636 385.963 513.118 387.308Q513.6 388.652 514.014 390.019Q514.428 391.386 514.774 392.772Q515.12 394.157 515.396 395.559Q515.672 396.96 515.879 398.373Q516.085 399.786 516.22 401.208Q516.356 402.63 516.42 404.057Q516.485 405.484 516.478 406.912Q516.471 408.34 516.394 409.766Q516.316 411.193 516.167 412.613C514.311 430.883 503.464 447.278 489.363 458.595C484.044 462.863 477.649 467.306 471.255 469.78L471.254 469.631L471.015 469.237C473.005 464.986 481.296 459.066 484.907 455.019Q488.936 450.524 492.439 445.608Q495.943 440.692 498.877 435.417C495.415 437 492.01 438.747 488.587 440.415C492.11 436.397 496.115 432.72 499.91 428.956C487.077 431.442 480.959 436.736 469.946 442.783C444.865 456.554 415.616 463.719 387.128 458.815Q386.01 458.631 384.898 458.418Q383.785 458.206 382.678 457.966Q381.571 457.725 380.47 457.457Q379.37 457.189 378.276 456.894Q377.183 456.598 376.097 456.275Q375.011 455.952 373.934 455.602Q372.857 455.251 371.788 454.874Q370.72 454.497 369.662 454.093Q368.604 453.689 367.556 453.259Q366.508 452.828 365.471 452.372Q364.435 451.915 363.41 451.432Q362.385 450.95 361.373 450.442Q360.36 449.933 359.361 449.4Q358.362 448.866 357.376 448.308Q356.391 447.75 355.419 447.167Q354.448 446.583 353.492 445.976Q352.536 445.369 351.595 444.738Q350.654 444.107 349.73 443.452Q348.805 442.797 347.898 442.12Q346.99 441.442 346.1 440.742Q345.209 440.042 344.337 439.319Q343.464 438.597 342.61 437.853Q341.756 437.109 340.921 436.343Q340.086 435.578 339.27 434.792Q338.454 434.006 337.659 433.199Q336.863 432.393 336.088 431.567Q335.313 430.741 334.559 429.895Q333.805 429.05 333.073 428.186Q332.34 427.322 331.63 426.44Q330.919 425.557 330.231 424.658Q329.543 423.758 328.877 422.841Q328.212 421.924 327.57 420.991C314.133 401.771 307.822 377.773 311.991 354.532C316.788 327.793 332.172 311.197 353.796 296.257C344.86 296.456 334.313 300.929 326.44 300.511C325.208 300.445 324.4 299.948 323.384 299.299Z"/>
	<path fill="#1D3658" d="M396.25 320.631C403.583 320.044 411.139 321.749 417.031 326.319C423.556 331.378 427.147 339.311 428.11 347.373C429.973 362.973 422.564 379.534 413.093 391.538C404.55 402.367 393.036 410.165 379.156 411.788C372.632 412.542 364.863 410.437 359.52 406.725C353.079 402.25 349.2 395.148 347.75 387.557C344.976 373.033 349.729 358.409 357.973 346.474C367.32 332.943 379.955 323.547 396.25 320.631Z"/>
	<path fill="#F5FAF2" d="M393.94 342.951C396.878 342.811 399.898 342.997 402.628 344.205C404.068 344.843 404.568 345.528 405.103 346.969C404.908 348.261 404.445 349.708 403.349 350.554C402.758 351.009 402.14 351.378 401.379 351.316C398.829 351.109 396.844 347.8 395.243 346.032C394.002 347.073 392.994 348.092 392.264 349.563C391.247 351.609 391 354.079 391.759 356.249C392.408 358.103 393.745 359.669 395.535 360.505C397.916 361.618 399.747 361.181 402.113 360.308C403.322 359.326 404.375 358.194 405.999 358.082L406.697 358.718C406.697 358.922 406.718 359.128 406.696 359.331C406.508 361.081 405.11 362.644 403.801 363.722C401.963 365.236 399.55 366.083 397.162 365.792C393.853 365.389 390.862 362.75 388.901 360.205C387.062 357.818 386.13 354.847 386.715 351.848C387.548 347.586 390.548 345.209 393.94 342.951Z"/>
	<path fill="#F5FAF2" d="M576.766 361.503C582.766 361.536 588.882 372.868 598.984 373.798C607.213 374.556 615.154 369.357 622.773 367.029C627.121 365.701 631.627 365.276 636.129 364.808C642.1 369.879 647.023 373.951 655.35 373.345C658.316 373.13 663.595 371.769 666.253 372.843L666.688 373.601C665.343 378.018 660.645 381.861 657.721 385.394C651.032 393.479 649.6 403.495 654.459 412.851C657.34 418.397 662.591 423.256 664.039 429.427C663.441 430.483 662.814 430.711 661.656 430.981C652.543 433.107 640.064 431.815 633.89 440.539C630.798 444.909 630.794 451.228 631.853 456.312C632.946 461.556 634.935 465.133 639.518 468.058C642.173 469.752 645.226 470.947 648.208 471.925C646.677 485.847 639.948 499.425 646.581 512.873C635.547 582.291 622.918 651.529 611.164 720.836L599.457 790.359C597.63 800.7 596.587 811.565 593.376 821.569C592.712 811.243 594.034 800.914 593.375 790.65C591.633 763.478 579.366 734.918 558.686 716.787C553.253 712.024 547.249 708.147 541.064 704.446C538.408 668.767 533.48 637.595 521.468 603.681C514.833 584.949 506.504 566.989 500.479 548.018C536.947 535.496 578.764 502.406 595.619 467.582C610.411 437.02 607.08 411.682 599.538 380.042C595.67 379.322 591.871 378.57 588.087 377.489C597.679 406.084 597.788 438.297 584.264 465.626C571.096 492.236 543.91 518.506 516.389 529.71C519.326 527.544 522.508 525.45 525.069 522.849C539.969 515.862 565.727 489.201 573.381 474.751C573.982 473.617 574.447 473.054 574.031 471.772C573.149 471.658 572.272 471.534 571.394 471.388C575.69 462.423 585.678 454.927 586.409 444.213C585.462 444.661 585.942 444.492 584.975 444.734C584.6 443.186 585.324 441.42 585.739 439.921C585.315 439.504 584.79 439.036 584.453 438.534C584.304 438.312 584.149 438.09 584.048 437.842C582.135 433.156 583.989 418.905 583.356 412.719C582.898 408.237 580.662 403.397 581.141 398.952C580.876 397.501 583.623 392.412 583.617 389.693C581.022 382.813 576.663 371.338 577.67 363.986L576.766 361.503Z"/>
	<path fill="#1D3658" d="M583.617 389.693L586.209 390.352C587.003 396.172 587.787 401.947 588.083 407.82L584.236 402.828C583.438 401.278 582.349 400.195 581.141 398.952C580.876 397.501 583.623 392.412 583.617 389.693Z"/>
	<path fill="#92AAB9" d="M619.35 510.29C626.49 509.849 633.073 509.463 640.002 511.48C628.844 513.062 616.969 511.992 605.717 511.578C599.796 511.581 593.886 511.589 587.969 511.344C598.151 509.529 609.017 510.781 619.35 510.29Z"/>
	<path fill="#92AAB9" d="M609.682 450.523C613.653 450.49 618.359 449.724 622.231 450.556C623.607 450.852 623.959 451.133 624.687 452.306C624.578 453.606 624.485 454.43 623.892 455.623C620.621 455.856 617.186 456.283 613.913 456.167C611.975 456.099 610.595 455.83 609.211 454.393C608.84 452.756 609.199 452.104 609.682 450.523Z"/>
	<path fill="#28698F" d="M577.67 363.986C584.861 374.327 585.124 378.389 586.209 390.352L583.617 389.693C581.022 382.813 576.663 371.338 577.67 363.986Z"/>
	<path fill="#C6C5C6" d="M581.141 398.952C582.349 400.195 583.438 401.278 584.236 402.828C583.484 407.187 586.818 412.183 587.877 416.397C589.627 423.363 588.175 433.221 585.739 439.921C585.315 439.504 584.79 439.036 584.453 438.534C584.304 438.312 584.149 438.09 584.048 437.842C582.135 433.156 583.989 418.905 583.356 412.719C582.898 408.237 580.662 403.397 581.141 398.952Z"/>
	<path fill="#28698F" d="M595.431 741.716L601.164 741.459C600.455 747.095 599.706 761.425 597.51 765.81C597.05 766.728 597.329 766.417 596.32 766.799L595.567 765.399C593 757.357 589.854 749.77 586.334 742.109L595.431 741.716Z"/>
	<path fill="#C6C5C6" d="M644.556 410.213C646.573 411.218 651.677 422.028 653.318 424.575C645.76 426.71 634.491 429.192 629.357 435.665C627.34 438.208 626.402 441.498 624.561 444.145C623.757 445.301 623.459 445.193 622.125 445.471L612.005 445.493C613.44 434.158 613.126 422.427 612.985 411.033C623.542 411.149 634.014 410.786 644.556 410.213Z"/>
	<path fill="#92AAB9" d="M630.529 371.467C636.398 371.988 641.058 377.134 646.52 379.151C648.603 379.921 651.047 380.01 653.247 380.207C646.544 387.94 645.541 396.172 644.963 406.009Q637.903 405.513 630.825 405.492L612.262 405.497C610.66 396.813 608.948 388.342 606.336 379.895C614.742 377.853 622.575 374.794 630.529 371.467Z"/>
	<path fill="#28698F" d="M542.318 654.016Q579.159 654.476 615.998 653.921L612.394 675.945C612.229 677.234 612.206 678.271 611.307 679.29C602.787 680.316 593.393 679.757 584.792 679.682L545.833 679.502C545.12 671.003 543.538 662.463 542.318 654.016Z"/>
	<path fill="#92AAB9" d="M513.549 564.752C527.25 563.954 540.953 565.935 552.089 574.586C555.114 576.936 557.478 580.693 560.693 582.638C565.036 585.266 570.152 586.844 574.65 589.283C584.799 594.784 593.953 601.498 603.031 608.587C607.201 608.486 611.346 608.445 615.516 608.565C604.114 609.92 591.845 609.029 580.364 608.976C563.648 608.9 546.864 609.278 530.161 608.701C527.552 602.821 525.926 596.467 523.739 590.416C520.614 581.77 517.018 573.265 513.549 564.752Z"/>
	<path fill="#28698F" d="M546.905 687.022Q578.842 686.609 610.778 687.131C609.929 693.206 607.999 709.113 606.18 714.046C605.76 715.185 605.525 715.154 604.468 715.602C604.398 716.549 604.294 717.464 604.385 718.412C605.179 724.218 603.068 730.866 601.723 736.499C595.84 736.874 589.974 737.004 584.082 737.102C573.466 721.357 562.35 711.031 547.167 699.817C546.963 695.564 546.982 691.281 546.905 687.022Z"/>
	<path fill="#C6C5C6" d="M604.385 718.412Q599.341 718.548 594.298 718.4C592.286 718.326 590.325 718.434 588.913 716.91C589.313 716.538 589.329 716.486 589.89 716.184C593.355 714.323 600.757 714.57 604.468 715.602C604.398 716.549 604.294 717.464 604.385 718.412Z"/>
	<path fill="#28698F" d="M615.516 608.565L623.743 608.507C621.404 622.269 619.28 636.096 616.823 649.834C607.51 649.071 598.089 649.363 588.752 649.405C572.769 649.477 556.809 649.682 540.835 649.018C538.162 635.467 534.619 621.778 530.161 608.701C546.864 609.278 563.648 608.9 580.364 608.976C591.845 609.029 604.114 609.92 615.516 608.565Z"/>
	<path fill="#F5FAF2" d="M695.551 367.052C722.572 366.342 749.788 365.399 776.755 363.542C782.514 366.587 787.937 371.265 794.49 372.405C797.732 372.968 800.994 372.738 804.207 372.125C809.738 371.069 814.953 368.583 820.501 367.518C833.302 365.061 846.587 365.028 859.578 364.434C880.777 416.611 888.823 469.177 888.445 525.269C888.662 533.15 888.499 543.867 886.757 551.538C886.117 556.025 885.595 560.565 884.774 565.02Q881.956 587.269 876.942 609.128C874.234 620.495 858.805 673.379 852.896 680.09C851.828 682.327 850.469 684.699 849.638 687.021C842.482 702.835 834.163 719.235 823.38 732.922C812.951 730.89 801.114 732 790.483 732.086Q779.171 731.641 767.852 731.475Q770.144 742.866 771.824 754.363C774.348 766.299 775.86 778.42 778.246 790.383L773.299 794.846C770.097 773.793 765.29 752.959 761.534 731.996L736.055 588.314Q732.205 566.671 728.097 545.075C726.244 535.626 723.651 526.018 722.923 516.415C722.408 509.62 725.262 503.335 724.967 496.372C720.005 488.281 718.454 481.084 717.273 471.726C721.867 469.301 725.697 466.695 728.073 461.879C730.607 456.742 732.04 449.068 729.906 443.56C724.32 429.146 707.309 434.15 698.827 430.009C697.746 429.481 697.765 429.281 697.426 428.199C698.129 423.856 701.97 420.179 704.467 416.676C708.488 411.032 709.954 403.33 708.735 396.533C707.179 387.848 701.75 382.312 694.914 377.417L695.551 367.052Z"/>
	<path fill="#92AAB9" d="M726.314 475.142C727.604 475.547 728.735 476.105 729.753 477.007C733.397 480.234 733.454 485.468 733.606 489.952C738.369 486.152 743.268 483.338 749.497 482.954C756.606 482.517 761.575 485.302 766.714 489.824C768.644 487.461 770.548 485.211 773.057 483.423C777.767 480.067 783.495 478.627 789.209 479.741C796.422 481.147 800.613 486.016 804.612 491.695C806.485 490.166 808.509 488.626 810.638 487.467C816.089 484.499 821.305 484.341 827.136 486.154C830.59 488.176 835.774 492.663 836.897 496.732C837.24 497.977 836.995 498.538 836.404 499.626C833.315 500.779 743.179 499.997 731.652 500.001C730.567 491.549 727.102 483.645 726.314 475.142Z"/>
	<path fill="#28698F" d="M760.259 687.011L849.638 687.021C842.482 702.835 834.163 719.235 823.38 732.922C812.951 730.89 801.114 732 790.483 732.086Q779.171 731.641 767.852 731.475Q766.928 725.193 765.711 718.961C781.973 718.092 803.177 720.68 818.575 716.553C801.119 714.711 782.727 714.386 765.212 715.488L760.259 687.011Z"/>
	<path fill="#C6C5C6" d="M730.245 517.925C765.09 518.502 800.056 517.46 834.92 517.44L832.197 523.522C813.904 527.653 796.748 536.597 786.416 552.802C783.735 557.008 778.725 564.475 779.603 569.513C773.043 570.427 746.021 580.552 742.339 585.61C742.279 585.693 742.231 585.785 742.176 585.872C739.279 572.685 736.801 558.971 735.273 545.564C737.123 545.455 739.28 545.545 741.092 545.158C742.328 544.894 743.082 544.616 743.784 543.534L743.058 542.732C740.33 541.618 737.608 541.875 734.718 541.937C733.89 534.014 731.643 525.816 730.245 517.925Z"/>
	<path fill="#92AAB9" d="M759.338 370.728C765.46 370.454 772.277 370.229 778.171 372.227C785.2 374.61 790.091 379.017 797.975 379.447C808.295 380.009 818.202 374.72 828.218 372.956C836.809 371.443 845.667 371.823 854.347 371.103C855.903 374.348 857.216 377.614 858.457 380.993C852.337 386.682 847.695 392.711 843.804 400.085C832.735 399.219 821.648 399.213 810.657 400.957C801.687 402.38 792.849 404.698 783.768 405.361C766.876 406.594 749.895 406.467 732.959 407.783C726.935 408.251 720.764 408.43 714.873 409.839Q744.325 410.805 773.792 411.05C788.822 411.056 804.232 410.261 819.181 411.85C824.989 412.467 831.822 413.526 836.86 416.677C842.307 420.083 844.519 425.58 846.004 431.524C852.666 431.018 857.756 431.387 864.043 433.871C865.185 434.537 866.333 435.212 867.373 436.032C874.61 441.732 875.253 451.506 876.231 459.95C873.001 456.749 869.828 453.685 866.005 451.187C850.299 440.92 833.187 442.859 815.775 446.57C817.657 441.732 820.385 437.428 823.261 433.132C813.878 427.084 803.627 425.49 792.607 426.359C776.797 427.605 758.765 436.208 749.03 449.003C745.91 453.105 744.145 458.62 740.667 462.356C739.539 463.567 738.489 463.956 736.827 463.966C733.552 461.228 740.493 445.884 733.347 435.89C727.689 427.976 716.849 426.068 707.933 424.396C711.826 418.998 714.816 412.707 715.418 406.003C716.652 392.27 710.42 382.416 701.881 372.427L759.338 370.728Z"/>
	<path fill="#28698F" d="M746.261 609.055C765.57 608.302 784.723 608.816 804.027 608.852C828.366 608.898 852.592 608.603 876.942 609.128C874.234 620.495 858.805 673.379 852.896 680.09C845.045 677.628 825.834 679.448 816.75 679.475L759.089 679.507C754.497 656.078 751.031 632.444 746.261 609.055Z"/>
	<path fill="#C6C5C6" d="M788.821 650.202C794.058 649.378 814.949 648.703 818.805 651.296L818.45 651.898C816.764 652.711 815.49 652.963 813.625 653.038C807.6 653.281 786.356 655.099 781.843 652.046L782.111 651.433C784.075 650.342 786.614 650.403 788.821 650.202Z"/>
	<path fill="#92AAB9" d="M834.92 517.44C845.556 501.326 859.394 490.668 878.478 486.702Q879.887 486.411 881.302 486.146C882.181 492.339 885.198 521.679 888.445 525.269C888.662 533.15 888.499 543.867 886.757 551.538C886.117 556.025 885.595 560.565 884.774 565.02Q881.956 587.269 876.942 609.128C852.592 608.603 828.366 608.898 804.027 608.852C784.723 608.816 765.57 608.302 746.261 609.055C744.664 601.381 743.473 593.602 742.176 585.872C742.231 585.785 742.279 585.693 742.339 585.61C746.021 580.552 773.043 570.427 779.603 569.513C778.725 564.475 783.735 557.008 786.416 552.802C796.748 536.597 813.904 527.653 832.197 523.522L834.92 517.44Z"/>
	<path fill="#F5FAF2" d="M779.603 569.513C778.725 564.475 783.735 557.008 786.416 552.802C796.748 536.597 813.904 527.653 832.197 523.522C830.924 527.605 829.825 531.675 829.243 535.92C813.502 537.148 800.788 543.025 790.363 555.134C786.654 559.443 783.825 565.941 779.603 569.513Z"/>
	<path fill="#F5FAF2" d="M814.385 590.786C818.467 585.638 822.62 580.479 827.243 575.802C843.601 559.249 863.678 551.733 886.757 551.538C886.117 556.025 885.595 560.565 884.774 565.02C858.82 564.99 835.272 576.316 814.385 590.786Z"/>
	<path fill="#F5FAF2" d="M113.244 460.632Q113.708 456.367 114.268 452.113Q114.827 447.859 115.483 443.618Q116.138 439.378 116.889 435.154Q117.64 430.93 118.486 426.723Q119.331 422.517 120.272 418.33Q121.212 414.144 122.246 409.98Q123.281 405.816 124.408 401.676Q125.536 397.537 126.757 393.423Q127.978 389.31 129.291 385.225Q130.604 381.141 132.009 377.087Q133.414 373.033 134.91 369.011Q136.405 364.99 137.991 361.003Q139.577 357.016 141.253 353.066Q142.928 349.116 144.692 345.205Q146.456 341.294 148.307 337.423Q150.159 333.553 152.097 329.725Q154.036 325.897 156.06 322.114Q158.084 318.331 160.192 314.594Q162.301 310.858 164.493 307.169Q166.686 303.481 168.96 299.843Q171.235 296.205 173.591 292.62Q175.948 289.034 178.384 285.502Q180.82 281.971 183.336 278.495Q185.851 275.019 188.444 271.6Q191.037 268.182 193.706 264.823Q196.376 261.463 199.12 258.165Q201.864 254.867 204.682 251.632Q207.5 248.396 210.39 245.225Q213.28 242.053 216.241 238.948Q219.201 235.843 222.231 232.805Q225.261 229.767 228.359 226.798Q231.456 223.829 234.62 220.931Q238.132 217.67 241.723 214.497Q245.314 211.323 248.981 208.238Q252.649 205.153 256.391 202.159Q260.132 199.165 263.947 196.263Q267.761 193.362 271.645 190.554Q275.529 187.747 279.48 185.036Q283.432 182.324 287.448 179.71Q291.465 177.096 295.545 174.582Q299.624 172.067 303.764 169.653Q307.904 167.239 312.102 164.927Q316.299 162.615 320.552 160.406Q324.805 158.197 329.111 156.094Q333.417 153.99 337.773 151.992Q342.129 149.994 346.533 148.104Q350.937 146.213 355.385 144.431Q359.834 142.649 364.325 140.976Q368.816 139.304 373.346 137.742Q377.877 136.179 382.444 134.728Q387.012 133.278 391.613 131.939Q396.215 130.6 400.848 129.375Q405.481 128.149 410.143 127.038Q414.804 125.926 419.492 124.929Q424.179 123.931 428.889 123.049Q433.6 122.167 438.331 121.4Q443.061 120.634 447.809 119.983Q452.557 119.332 457.32 118.798Q462.082 118.264 466.856 117.847Q471.63 117.429 476.413 117.129Q481.196 116.829 485.985 116.645Q490.774 116.462 495.566 116.396Q500.358 116.33 505.15 116.382Q509.942 116.433 514.731 116.602Q518.232 116.729 521.729 116.919Q525.227 117.109 528.721 117.362Q532.214 117.615 535.703 117.931Q539.191 118.247 542.674 118.626Q546.156 119.006 549.631 119.448Q553.106 119.89 556.572 120.394Q560.038 120.899 563.495 121.466Q566.951 122.034 570.397 122.663Q573.843 123.293 577.277 123.985Q580.71 124.676 584.131 125.43Q587.552 126.184 590.959 126.999Q594.365 127.815 597.757 128.691Q601.148 129.568 604.523 130.506Q607.898 131.444 611.255 132.443Q614.613 133.441 617.951 134.501Q621.29 135.56 624.609 136.679Q627.929 137.799 631.227 138.978Q634.525 140.157 637.802 141.396Q641.078 142.634 644.332 143.932Q647.586 145.229 650.815 146.585Q654.045 147.941 657.25 149.356Q660.454 150.77 663.633 152.242Q666.812 153.714 669.963 155.243Q673.114 156.772 676.238 158.358Q679.361 159.944 682.455 161.586Q685.549 163.228 688.613 164.925Q691.677 166.623 694.71 168.376Q697.743 170.128 700.744 171.935Q703.744 173.743 706.712 175.604Q709.679 177.465 712.613 179.379Q715.546 181.294 718.444 183.261Q721.343 185.228 724.205 187.247C739.54 197.954 754.869 209.39 767.582 223.2C771.933 221.11 776.221 219.483 780.882 218.217C783.727 219.75 785.719 221.572 787.742 224.068C777.774 225.853 772.144 228.911 765.423 236.416L668.805 261.649C660.437 263.813 650.453 263.82 642.651 267.351C637.325 269.76 633.099 274.128 630.163 279.123C629.013 281.079 627.863 283.153 626.993 285.25C619.318 286.655 611.732 288.487 604.067 289.894C597.604 287.581 591.154 285.72 584.522 288.784C578.277 291.669 574.271 298.064 572.222 304.434C572.148 304.666 572.079 304.9 572.007 305.133C564.038 306.685 556.345 309.128 548.446 310.929C544.905 309.598 541.106 309.877 537.726 308.581C533.905 307.116 530.254 304.977 526.505 303.312C517.776 299.437 509.175 299.75 500.112 302.197C498.051 290.147 495.125 279.477 484.653 272.014C477.236 266.728 468.17 264.859 459.234 266.482C450.524 268.064 443.605 272.917 437.183 278.766C403.711 265.918 363.29 267.144 330.659 281.772Q322.78 285.27 315.66 290.129C311.936 277.755 306.24 267.916 294.489 261.697Q293.531 261.194 292.55 260.74Q291.569 260.285 290.566 259.88Q289.563 259.475 288.542 259.12Q287.52 258.765 286.482 258.461Q285.444 258.158 284.392 257.906Q283.341 257.654 282.278 257.455Q281.215 257.256 280.143 257.11Q279.072 256.963 277.994 256.871Q276.917 256.778 275.836 256.739Q274.755 256.7 273.674 256.714Q272.592 256.729 271.513 256.797Q270.434 256.866 269.359 256.987Q268.284 257.109 267.217 257.284Q266.15 257.459 265.093 257.687Q264.036 257.915 262.991 258.195Q261.946 258.475 260.917 258.807C248.487 262.772 237.961 272.227 232.085 283.803C226.503 294.802 224.86 307.839 228.77 319.642Q229.095 320.646 229.469 321.634Q229.842 322.621 230.264 323.588Q230.686 324.556 231.155 325.502Q231.624 326.448 232.139 327.369Q232.654 328.291 233.213 329.186Q233.773 330.081 234.376 330.947Q234.979 331.814 235.623 332.65Q236.268 333.485 236.953 334.288Q237.638 335.092 238.362 335.86Q239.086 336.628 239.847 337.36Q240.607 338.092 241.403 338.786Q242.199 339.48 243.027 340.133Q243.856 340.787 244.716 341.399Q245.576 342.011 246.465 342.58Q247.354 343.15 248.27 343.674Q249.186 344.199 250.127 344.678C256.867 348.062 264.112 349.265 271.587 349.554C266.731 367.914 260.455 385.831 255.114 404.046C247.336 430.574 240.424 457.599 229.973 483.238C225.361 494.55 218.97 505.023 213.782 516.065C213.281 515.014 212.729 513.667 211.9 512.837C210.671 511.605 208.652 511.168 206.973 511.375C201.585 512.039 197.273 517.897 194.239 521.929C191.401 511.217 188.454 502.532 181.579 493.579C170.072 478.594 152.268 467.684 133.685 464.215C127.921 463.14 121.989 463.304 116.25 462.313C114.736 462.051 114.12 461.897 113.244 460.632Z"/>
	<path fill="#C6C5C6" d="M232.187 410.121Q239.253 409.79 246.291 410.505C245.357 413.696 244.362 416.67 242.916 419.668C239.55 416.192 235.926 413.175 232.187 410.121Z"/>
	<path fill="#92AAB9" d="M133.327 395.437C137.65 395.816 142.014 396.212 146.258 397.147C162.613 400.751 172.872 410.428 181.605 424.239C190.404 420.379 198.357 419.329 207.527 422.777Q208.398 423.104 209.251 423.473Q210.104 423.842 210.938 424.253Q211.772 424.665 212.585 425.117Q213.398 425.568 214.187 426.06Q214.976 426.552 215.74 427.082Q216.504 427.612 217.241 428.18Q217.977 428.747 218.685 429.35Q219.393 429.953 220.07 430.591Q220.747 431.228 221.391 431.898Q222.036 432.569 222.646 433.27Q223.257 433.971 223.832 434.702Q224.407 435.433 224.945 436.191Q225.483 436.949 225.983 437.733Q226.483 438.517 226.944 439.325Q227.404 440.133 227.824 440.963Q228.244 441.793 228.622 442.642C235.815 458.944 224.825 477.304 218.942 492.517C218.888 492.609 218.838 492.702 218.781 492.792C218.182 493.733 217.727 494.445 216.762 495.047C214.19 496.652 202.235 496.801 197.758 497.971Q195.891 493.419 193.411 489.169Q190.931 484.919 187.887 481.053C170.993 459.35 149.536 450.57 122.898 447.375C124.693 429.678 129.574 412.76 133.327 395.437Z"/>
	<defs>
		<linearGradient id="gradient_5" gradientUnits="userSpaceOnUse" x1="192.34879" y1="261.54065" x2="213.02881" y2="413.3551">
			<stop offset="0" stop-color="#5286A1"/>
			<stop offset="1" stop-color="#A0B3BB"/>
		</linearGradient>
	</defs>
	<path fill="url(#gradient_5)" d="M208.274 258.567C221.223 258.082 234.161 257.741 247.118 258.238C233.867 266.675 224.809 278.736 221.384 294.226C218.395 307.746 220.051 322.04 227.672 333.768C234.332 344.019 245.009 351.975 257.084 354.377C259.09 354.776 261.125 354.974 263.159 355.164Q257.45 372.131 252.41 389.308C250.296 396.273 247.761 403.378 246.291 410.505Q239.253 409.79 232.187 410.121L227.048 409.284C222.452 391.52 213.676 376.323 197.487 366.841C182.053 357.801 164.901 356.686 147.443 357.919Q152.091 346.676 157.45 335.754Q162.809 324.832 168.857 314.276Q174.904 303.72 181.615 293.573Q188.327 283.425 195.674 273.729C199.631 268.565 203.595 263.105 208.274 258.567Z"/>
	<path fill="#C6C5C6" d="M227.542 346.677C228.879 346.939 229.675 347.134 230.836 347.906C231.437 349.538 231.103 350.268 230.777 351.949C229.367 351.837 228.734 351.774 227.539 350.923C226.892 349.467 227.278 348.179 227.542 346.677Z"/>
	<path fill="#28698F" d="M349.11 154.152C358.518 151.611 367.564 147.619 376.766 144.425Q397.477 137.297 418.813 132.347C490.236 115.878 569.033 122.891 637.255 149.197Q646.173 152.705 654.918 156.627Q663.663 160.549 672.214 164.876Q680.765 169.202 689.105 173.925Q697.445 178.647 705.554 183.754C686.069 186.932 664.21 187.495 644.371 188.709L643.141 188.022L644.285 186.307C643.946 185.034 643.454 184.584 642.276 183.954C639.807 182.633 636.263 181.907 633.551 181.041L631.165 178.322C623.579 179.085 616.122 181.146 608.464 180.981C601.667 180.834 595.005 178.938 588.193 179.089C579.576 179.279 570.964 180.645 562.356 180.71C553.677 180.776 544.902 179.68 536.216 179.373C531.343 179.202 526.198 179.77 521.379 179.212C516.329 178.627 511.61 176.546 506.501 176.04C506.279 176.018 506.06 175.984 505.838 175.965C502.94 175.727 500.261 177.648 497.406 177.985C490.223 178.831 482.658 177.537 475.372 178.247C467.043 179.059 459.272 181.86 451.11 183.406C443.473 184.852 436.014 184.421 428.317 184.1C425.218 183.97 422.615 184.73 419.756 183.402C418.539 182.838 417.708 182.736 416.458 183.212C415.064 183.742 413.032 185.431 411.641 185.338L411.485 184.731C411.153 183.47 411.006 182.378 410.002 181.467C408.808 181.167 407.698 181.504 406.659 182.14C405.607 182.786 405.286 183.328 404.982 184.483C405.587 185.685 406.336 186.73 407.115 187.819L406.801 188.341L406.1 188.259C400.762 187.677 399.866 190.564 395.533 190.917C388.582 191.483 381.348 191.435 374.392 191.008C370.78 190.786 366.69 189.986 363.11 190.258C361.073 190.413 358.945 191.862 356.875 192.311C349.512 193.906 341.63 194.989 334.152 195.888C325.063 196.98 315.94 194.129 307.076 195.516C298.186 195.789 288.962 194.277 280.153 193.217C294.795 185.132 314.077 170.488 329.202 165.274C338.114 162.203 390.202 164.075 403.012 163.985C419.023 163.873 435.399 163.244 451.327 161.547C431.969 158.877 412.662 156.833 393.126 156.076C378.735 155.519 363.253 156.794 349.11 154.152Z"/>
	<path fill="#F5FAF2" d="M540.885 156.419C541.778 156.731 542.393 157.181 543.148 157.744C543.813 159.107 543.307 160.48 543.017 161.894C541.916 161.586 541.445 161.281 540.631 160.481C540.112 158.983 540.506 157.888 540.885 156.419Z"/>
	<path fill="#F5FAF2" d="M596.132 152.501C597.995 154.396 599.516 156.619 601.105 158.745C599.058 160.583 597.271 162.239 595.76 164.575C594.423 161.269 593.296 159.911 590.368 157.831C592.592 156.185 594.342 154.638 596.132 152.501Z"/>
	<defs>
		<linearGradient id="gradient_6" gradientUnits="userSpaceOnUse" x1="490.39978" y1="176.93616" x2="494.33807" y2="304.25272">
			<stop offset="0" stop-color="#467C9D"/>
			<stop offset="1" stop-color="#83A4B4"/>
		</linearGradient>
	</defs>
	<path fill="url(#gradient_6)" d="M307.076 195.516C315.94 194.129 325.063 196.98 334.152 195.888C341.63 194.989 349.512 193.906 356.875 192.311C358.945 191.862 361.073 190.413 363.11 190.258C366.69 189.986 370.78 190.786 374.392 191.008C381.348 191.435 388.582 191.483 395.533 190.917C399.866 190.564 400.762 187.677 406.1 188.259L406.801 188.341L407.115 187.819C406.336 186.73 405.587 185.685 404.982 184.483C405.286 183.328 405.607 182.786 406.659 182.14C407.698 181.504 408.808 181.167 410.002 181.467C411.006 182.378 411.153 183.47 411.485 184.731L411.641 185.338C413.032 185.431 415.064 183.742 416.458 183.212C417.708 182.736 418.539 182.838 419.756 183.402C422.615 184.73 425.218 183.97 428.317 184.1C436.014 184.421 443.473 184.852 451.11 183.406C459.272 181.86 467.043 179.059 475.372 178.247C482.658 177.537 490.223 178.831 497.406 177.985C500.261 177.648 502.94 175.727 505.838 175.965C506.06 175.984 506.279 176.018 506.501 176.04C511.61 176.546 516.329 178.627 521.379 179.212C526.198 179.77 531.343 179.202 536.216 179.373C544.902 179.68 553.677 180.776 562.356 180.71C570.964 180.645 579.576 179.279 588.193 179.089C595.005 178.938 601.667 180.834 608.464 180.981C616.122 181.146 623.579 179.085 631.165 178.322L633.551 181.041C636.263 181.907 639.807 182.633 642.276 183.954C643.454 184.584 643.946 185.034 644.285 186.307L643.141 188.022L644.371 188.709C640.45 189.556 636.014 189.461 632.001 189.701Q619.197 190.473 606.379 190.942L540.669 193.175C524.145 193.768 507.471 194.148 491.091 196.549C530.181 200.533 569.304 198.142 608.483 199.01C622.41 199.319 634.967 202.924 649.738 203.074C666.77 203.247 683.829 203.051 700.862 202.986C710.43 202.95 721.953 201.28 731.165 203.914C738.094 205.895 757.383 221.702 761.76 227.183C762.131 227.648 762.382 228.113 762.653 228.64C762.309 229.714 761.965 229.763 761 230.27C754.512 233.687 726.825 239.686 718.024 241.952C701.414 246.228 684.841 251.331 668.138 255.135C658.199 257.398 645.186 258.128 636.41 263.374C630.157 267.112 626.582 273.485 623.09 279.618C617.667 280.867 611.809 282.679 606.219 282.62C602.048 282.576 598.112 280.827 594.015 280.294C584.005 278.992 575.01 285.884 569.971 293.969C568.85 295.769 567.919 297.701 566.975 299.597C561.168 301.24 555.012 303.435 548.927 303.489C539.996 303.569 533.301 298.24 525.097 295.754C518.732 293.826 512.364 293.812 505.764 294.007C502.356 281.066 496.099 271.259 484.293 264.443C475.409 259.313 465.469 257.731 455.52 260.411C448.101 262.409 440.995 266.606 435.065 271.423C401.196 259.206 360.003 260.596 327.253 276.027Q323.397 277.882 319.607 279.871C315.379 271.428 309.818 265.41 303.247 258.764L399.7 257.331C423.629 256.927 448.39 257.117 472.066 253.409C443.004 250.898 414.013 250.121 384.849 249.991C363.968 249.897 342.909 250.397 322.057 249.356C315.763 249.042 310.257 245.755 304.255 244.258C295.459 242.064 285.3 241.879 276.245 241.648Q263.417 241.406 250.645 242.626C243.53 243.337 227.835 247.127 222.105 246.018C221.837 244.559 222.513 243.623 223.322 242.441C229.426 233.529 239.774 225.725 248.104 218.846C250.918 216.123 254.151 213.626 257.189 211.141C274.674 196.842 283.774 199.422 305.203 197.3C306.345 197.043 306.863 196.96 307.818 196.242L307.076 195.516Z"/>
	<path fill="#C6C5C6" d="M475.005 194.365C476.218 194.315 477.323 194.369 478.528 194.514C479.756 195.651 479.819 196.364 480.306 197.938C479.262 198.031 478.233 197.989 477.186 197.965C475.781 196.958 475.642 195.946 475.005 194.365Z"/>
	<path fill="#F5FAF2" d="M629.047 254.172C630.058 254.456 630.489 254.753 631.237 255.486C631.678 257.111 631.013 258.396 630.46 259.905C629.529 259.325 628.757 258.712 627.941 257.979C627.721 256.353 628.344 255.628 629.047 254.172Z"/>
	<path fill="#C6C5C6" d="M686.692 234.173C687.918 234.304 688.891 234.497 690.045 234.935C690.931 236.176 690.875 236.816 691.037 238.308C689.887 238.524 689.147 238.533 687.999 238.303C686.891 236.936 686.957 235.89 686.692 234.173Z"/>
	<path fill="#C6C5C6" d="M607.947 256.74C609.045 256.877 610.021 257.11 611.08 257.428C612.108 258.778 611.983 259.758 612.157 261.422C611.067 261.263 610.066 261.036 609.009 260.727C607.976 259.407 608.116 258.385 607.947 256.74Z"/>
	<path fill="#C6C5C6" d="M491.535 253.756C492.259 254.435 492.668 255.087 493.202 255.916C493.518 257.579 492.89 258.732 492.264 260.226C491.117 259.42 490.592 259.05 490.001 257.722C489.948 256.157 490.775 255.056 491.535 253.756Z"/>
	<path fill="#C6C5C6" d="M384.146 223.166C385.302 223.344 386.172 223.601 387.238 224.084C388.147 225.585 387.929 226.732 387.966 228.466C386.654 228.217 385.77 228.002 384.589 227.329C383.745 226 384.033 224.66 384.146 223.166Z"/>
	<path fill="#C6C5C6" d="M441.467 198.131C442.894 198.371 443.38 198.624 444.315 199.648C444.646 201.258 444.202 202.333 443.69 203.831C442.337 203.327 441.61 203.082 440.641 201.951C440.281 200.446 440.868 199.47 441.467 198.131Z"/>
	<path fill="#F5FAF2" d="M346.919 217.347C348.752 218.165 349.982 220.204 351.154 221.769C350.255 223.509 349.363 225.19 348.267 226.818C347.68 227.691 347.783 227.943 346.744 228.15C346.415 227.249 346.069 226.307 345.615 225.46C344.611 223.585 342.648 223.201 340.766 222.587C342.999 220.953 344.978 219.326 346.919 217.347Z"/>
	<path fill="#F5FAF2" d="M667.354 218.473C670.104 221.63 669.491 223.014 673.795 225.083C670.412 227.552 668.802 229.66 666.967 233.324L665.341 228.314L660.327 225.845C663.338 223.742 665.352 221.499 667.354 218.473Z"/>
	<path fill="#28698F" d="M248.104 218.846C250.918 216.123 254.151 213.626 257.189 211.141C274.674 196.842 283.774 199.422 305.203 197.3Q308.161 198.283 311.101 199.316L310.254 199.517C303.433 201.103 295.053 200.469 288.737 203.481C285.065 205.233 283.108 209.484 279.153 210.712C274.786 212.068 269.95 209.069 266.738 212.036C266.38 213.095 266.205 213.21 266.449 214.346C266.669 215.373 266.653 214.97 266.628 215.658C263.311 216.485 250.618 219.893 248.104 218.846Z"/>
	<path fill="#F5FAF2" d="M560.625 231.127C565.719 231.076 570.346 231.625 574.889 234.166Q575.401 234.455 575.898 234.771Q576.394 235.086 576.874 235.427Q577.354 235.767 577.815 236.132Q578.277 236.497 578.719 236.885Q579.161 237.273 579.583 237.684Q580.004 238.094 580.404 238.526Q580.804 238.957 581.181 239.409Q581.558 239.861 581.911 240.331Q582.264 240.802 582.593 241.29Q582.921 241.778 583.224 242.282Q583.527 242.787 583.803 243.306Q584.08 243.825 584.329 244.358Q584.578 244.891 584.8 245.436Q585.021 245.981 585.215 246.537Q585.408 247.092 585.572 247.657Q585.736 248.222 585.871 248.795C587.342 254.854 586.355 261.488 582.919 266.72C578.978 272.722 572.829 275.389 566.1 276.857C560.882 277.208 555.517 276.214 550.998 273.524Q550.505 273.226 550.028 272.903Q549.551 272.579 549.091 272.232Q548.631 271.885 548.189 271.515Q547.748 271.144 547.326 270.752Q546.904 270.359 546.502 269.946Q546.101 269.532 545.722 269.099Q545.342 268.665 544.985 268.213Q544.628 267.76 544.295 267.29Q543.962 266.82 543.653 266.333Q543.344 265.846 543.061 265.345Q542.778 264.843 542.521 264.327Q542.263 263.811 542.033 263.283Q541.802 262.755 541.599 262.216Q541.396 261.676 541.221 261.128Q541.046 260.579 540.899 260.021Q540.752 259.464 540.634 258.9C539.354 252.848 540.501 246.15 543.965 240.992C547.937 235.077 553.835 232.355 560.625 231.127Z"/>
</svg>
